G04 #@! TF.FileFunction,Copper,L2,Bot,Signal*
%FSLAX46Y46*%
G04 Gerber Fmt 4.6, Leading zero omitted, Abs format (unit mm)*
G04 Created by KiCad (PCBNEW 4.0.7+dfsg1-1) date Sat Dec  2 04:05:33 2017*
%MOMM*%
%LPD*%
G01*
G04 APERTURE LIST*
%ADD10C,0.100000*%
%ADD11C,0.200000*%
%ADD12C,0.300000*%
%ADD13R,2.500000X2.500000*%
%ADD14C,2.500000*%
%ADD15R,1.600000X1.600000*%
%ADD16O,1.600000X1.600000*%
%ADD17C,1.600000*%
%ADD18R,1.800000X1.800000*%
%ADD19O,1.800000X1.800000*%
%ADD20C,1.440000*%
%ADD21R,1.750000X1.750000*%
%ADD22C,1.750000*%
%ADD23R,3.200000X3.200000*%
%ADD24O,3.200000X3.200000*%
%ADD25C,6.400000*%
%ADD26C,2.000000*%
%ADD27C,0.500000*%
%ADD28C,2.000000*%
%ADD29C,0.254000*%
G04 APERTURE END LIST*
D10*
D11*
X128521905Y-39822381D02*
X128521905Y-38822381D01*
X128140952Y-38822381D01*
X128045714Y-38870000D01*
X127998095Y-38917619D01*
X127950476Y-39012857D01*
X127950476Y-39155714D01*
X127998095Y-39250952D01*
X128045714Y-39298571D01*
X128140952Y-39346190D01*
X128521905Y-39346190D01*
X126950476Y-39727143D02*
X126998095Y-39774762D01*
X127140952Y-39822381D01*
X127236190Y-39822381D01*
X127379048Y-39774762D01*
X127474286Y-39679524D01*
X127521905Y-39584286D01*
X127569524Y-39393810D01*
X127569524Y-39250952D01*
X127521905Y-39060476D01*
X127474286Y-38965238D01*
X127379048Y-38870000D01*
X127236190Y-38822381D01*
X127140952Y-38822381D01*
X126998095Y-38870000D01*
X126950476Y-38917619D01*
X126188571Y-39298571D02*
X126045714Y-39346190D01*
X125998095Y-39393810D01*
X125950476Y-39489048D01*
X125950476Y-39631905D01*
X125998095Y-39727143D01*
X126045714Y-39774762D01*
X126140952Y-39822381D01*
X126521905Y-39822381D01*
X126521905Y-38822381D01*
X126188571Y-38822381D01*
X126093333Y-38870000D01*
X126045714Y-38917619D01*
X125998095Y-39012857D01*
X125998095Y-39108095D01*
X126045714Y-39203333D01*
X126093333Y-39250952D01*
X126188571Y-39298571D01*
X126521905Y-39298571D01*
X125521905Y-39727143D02*
X125474286Y-39774762D01*
X125521905Y-39822381D01*
X125569524Y-39774762D01*
X125521905Y-39727143D01*
X125521905Y-39822381D01*
X125521905Y-39203333D02*
X125474286Y-39250952D01*
X125521905Y-39298571D01*
X125569524Y-39250952D01*
X125521905Y-39203333D01*
X125521905Y-39298571D01*
X124331429Y-39774762D02*
X124188572Y-39822381D01*
X123950476Y-39822381D01*
X123855238Y-39774762D01*
X123807619Y-39727143D01*
X123760000Y-39631905D01*
X123760000Y-39536667D01*
X123807619Y-39441429D01*
X123855238Y-39393810D01*
X123950476Y-39346190D01*
X124140953Y-39298571D01*
X124236191Y-39250952D01*
X124283810Y-39203333D01*
X124331429Y-39108095D01*
X124331429Y-39012857D01*
X124283810Y-38917619D01*
X124236191Y-38870000D01*
X124140953Y-38822381D01*
X123902857Y-38822381D01*
X123760000Y-38870000D01*
X122902857Y-39822381D02*
X122902857Y-39298571D01*
X122950476Y-39203333D01*
X123045714Y-39155714D01*
X123236191Y-39155714D01*
X123331429Y-39203333D01*
X122902857Y-39774762D02*
X122998095Y-39822381D01*
X123236191Y-39822381D01*
X123331429Y-39774762D01*
X123379048Y-39679524D01*
X123379048Y-39584286D01*
X123331429Y-39489048D01*
X123236191Y-39441429D01*
X122998095Y-39441429D01*
X122902857Y-39393810D01*
X122426667Y-39822381D02*
X122426667Y-39155714D01*
X122426667Y-39250952D02*
X122379048Y-39203333D01*
X122283810Y-39155714D01*
X122140952Y-39155714D01*
X122045714Y-39203333D01*
X121998095Y-39298571D01*
X121998095Y-39822381D01*
X121998095Y-39298571D02*
X121950476Y-39203333D01*
X121855238Y-39155714D01*
X121712381Y-39155714D01*
X121617143Y-39203333D01*
X121569524Y-39298571D01*
X121569524Y-39822381D01*
X120331429Y-39822381D02*
X120331429Y-38822381D01*
X119950476Y-38822381D01*
X119855238Y-38870000D01*
X119807619Y-38917619D01*
X119760000Y-39012857D01*
X119760000Y-39155714D01*
X119807619Y-39250952D01*
X119855238Y-39298571D01*
X119950476Y-39346190D01*
X120331429Y-39346190D01*
X119331429Y-39822381D02*
X119331429Y-39155714D01*
X119331429Y-39346190D02*
X119283810Y-39250952D01*
X119236191Y-39203333D01*
X119140953Y-39155714D01*
X119045714Y-39155714D01*
X118569524Y-39822381D02*
X118664762Y-39774762D01*
X118712381Y-39727143D01*
X118760000Y-39631905D01*
X118760000Y-39346190D01*
X118712381Y-39250952D01*
X118664762Y-39203333D01*
X118569524Y-39155714D01*
X118426666Y-39155714D01*
X118331428Y-39203333D01*
X118283809Y-39250952D01*
X118236190Y-39346190D01*
X118236190Y-39631905D01*
X118283809Y-39727143D01*
X118331428Y-39774762D01*
X118426666Y-39822381D01*
X118569524Y-39822381D01*
X117950476Y-39155714D02*
X117569524Y-39155714D01*
X117807619Y-38822381D02*
X117807619Y-39679524D01*
X117760000Y-39774762D01*
X117664762Y-39822381D01*
X117569524Y-39822381D01*
X117283809Y-39774762D02*
X117188571Y-39822381D01*
X116998095Y-39822381D01*
X116902856Y-39774762D01*
X116855237Y-39679524D01*
X116855237Y-39631905D01*
X116902856Y-39536667D01*
X116998095Y-39489048D01*
X117140952Y-39489048D01*
X117236190Y-39441429D01*
X117283809Y-39346190D01*
X117283809Y-39298571D01*
X117236190Y-39203333D01*
X117140952Y-39155714D01*
X116998095Y-39155714D01*
X116902856Y-39203333D01*
X116045713Y-39774762D02*
X116140951Y-39822381D01*
X116331428Y-39822381D01*
X116426666Y-39774762D01*
X116474285Y-39679524D01*
X116474285Y-39298571D01*
X116426666Y-39203333D01*
X116331428Y-39155714D01*
X116140951Y-39155714D01*
X116045713Y-39203333D01*
X115998094Y-39298571D01*
X115998094Y-39393810D01*
X116474285Y-39489048D01*
X115569523Y-39155714D02*
X115569523Y-39822381D01*
X115569523Y-39250952D02*
X115521904Y-39203333D01*
X115426666Y-39155714D01*
X115283808Y-39155714D01*
X115188570Y-39203333D01*
X115140951Y-39298571D01*
X115140951Y-39822381D01*
X114664761Y-39822381D02*
X114664761Y-38822381D01*
X114569523Y-39441429D02*
X114283808Y-39822381D01*
X114283808Y-39155714D02*
X114664761Y-39536667D01*
X113712380Y-39822381D02*
X113807618Y-39774762D01*
X113855237Y-39727143D01*
X113902856Y-39631905D01*
X113902856Y-39346190D01*
X113855237Y-39250952D01*
X113807618Y-39203333D01*
X113712380Y-39155714D01*
X113569522Y-39155714D01*
X113474284Y-39203333D01*
X113426665Y-39250952D01*
X113379046Y-39346190D01*
X113379046Y-39631905D01*
X113426665Y-39727143D01*
X113474284Y-39774762D01*
X113569522Y-39822381D01*
X113712380Y-39822381D01*
X111426665Y-39155714D02*
X112188570Y-39441429D01*
X111426665Y-39727143D01*
X110950475Y-39155714D02*
X110950475Y-40012857D01*
X110998094Y-40108095D01*
X111093332Y-40155714D01*
X111140951Y-40155714D01*
X110950475Y-38822381D02*
X110998094Y-38870000D01*
X110950475Y-38917619D01*
X110902856Y-38870000D01*
X110950475Y-38822381D01*
X110950475Y-38917619D01*
X110331428Y-39822381D02*
X110426666Y-39774762D01*
X110474285Y-39727143D01*
X110521904Y-39631905D01*
X110521904Y-39346190D01*
X110474285Y-39250952D01*
X110426666Y-39203333D01*
X110331428Y-39155714D01*
X110188570Y-39155714D01*
X110093332Y-39203333D01*
X110045713Y-39250952D01*
X109998094Y-39346190D01*
X109998094Y-39631905D01*
X110045713Y-39727143D01*
X110093332Y-39774762D01*
X110188570Y-39822381D01*
X110331428Y-39822381D01*
X109188570Y-39774762D02*
X109283808Y-39822381D01*
X109474285Y-39822381D01*
X109569523Y-39774762D01*
X109617142Y-39679524D01*
X109617142Y-39298571D01*
X109569523Y-39203333D01*
X109474285Y-39155714D01*
X109283808Y-39155714D01*
X109188570Y-39203333D01*
X109140951Y-39298571D01*
X109140951Y-39393810D01*
X109617142Y-39489048D01*
X108712380Y-39727143D02*
X108664761Y-39774762D01*
X108712380Y-39822381D01*
X108759999Y-39774762D01*
X108712380Y-39727143D01*
X108712380Y-39822381D01*
X108283809Y-39774762D02*
X108188571Y-39822381D01*
X107998095Y-39822381D01*
X107902856Y-39774762D01*
X107855237Y-39679524D01*
X107855237Y-39631905D01*
X107902856Y-39536667D01*
X107998095Y-39489048D01*
X108140952Y-39489048D01*
X108236190Y-39441429D01*
X108283809Y-39346190D01*
X108283809Y-39298571D01*
X108236190Y-39203333D01*
X108140952Y-39155714D01*
X107998095Y-39155714D01*
X107902856Y-39203333D01*
X107426666Y-39822381D02*
X107426666Y-38822381D01*
X107331428Y-39441429D02*
X107045713Y-39822381D01*
X107045713Y-39155714D02*
X107426666Y-39536667D01*
X106617142Y-39822381D02*
X106617142Y-38822381D01*
X106617142Y-39203333D02*
X106521904Y-39155714D01*
X106331427Y-39155714D01*
X106236189Y-39203333D01*
X106188570Y-39250952D01*
X106140951Y-39346190D01*
X106140951Y-39631905D01*
X106188570Y-39727143D01*
X106236189Y-39774762D01*
X106331427Y-39822381D01*
X106521904Y-39822381D01*
X106617142Y-39774762D01*
X105807618Y-38822381D02*
X105140951Y-38822381D01*
X105569523Y-39822381D01*
X104140951Y-39346190D02*
X104188570Y-39298571D01*
X104283808Y-39250952D01*
X104379046Y-39250952D01*
X104474284Y-39298571D01*
X104521904Y-39346190D01*
X104569523Y-39441429D01*
X104569523Y-39536667D01*
X104521904Y-39631905D01*
X104474284Y-39679524D01*
X104379046Y-39727143D01*
X104283808Y-39727143D01*
X104188570Y-39679524D01*
X104140951Y-39631905D01*
X104140951Y-39250952D02*
X104140951Y-39631905D01*
X104093332Y-39679524D01*
X104045713Y-39679524D01*
X103950475Y-39631905D01*
X103902856Y-39536667D01*
X103902856Y-39298571D01*
X103998094Y-39155714D01*
X104140951Y-39060476D01*
X104331427Y-39012857D01*
X104521904Y-39060476D01*
X104664761Y-39155714D01*
X104759999Y-39298571D01*
X104807618Y-39489048D01*
X104759999Y-39679524D01*
X104664761Y-39822381D01*
X104521904Y-39917619D01*
X104331427Y-39965238D01*
X104140951Y-39917619D01*
X103998094Y-39822381D01*
X103045713Y-39155714D02*
X103045713Y-39965238D01*
X103093332Y-40060476D01*
X103140951Y-40108095D01*
X103236190Y-40155714D01*
X103379047Y-40155714D01*
X103474285Y-40108095D01*
X103045713Y-39774762D02*
X103140951Y-39822381D01*
X103331428Y-39822381D01*
X103426666Y-39774762D01*
X103474285Y-39727143D01*
X103521904Y-39631905D01*
X103521904Y-39346190D01*
X103474285Y-39250952D01*
X103426666Y-39203333D01*
X103331428Y-39155714D01*
X103140951Y-39155714D01*
X103045713Y-39203333D01*
X102569523Y-39822381D02*
X102569523Y-39155714D01*
X102569523Y-39250952D02*
X102521904Y-39203333D01*
X102426666Y-39155714D01*
X102283808Y-39155714D01*
X102188570Y-39203333D01*
X102140951Y-39298571D01*
X102140951Y-39822381D01*
X102140951Y-39298571D02*
X102093332Y-39203333D01*
X101998094Y-39155714D01*
X101855237Y-39155714D01*
X101759999Y-39203333D01*
X101712380Y-39298571D01*
X101712380Y-39822381D01*
X100807618Y-39822381D02*
X100807618Y-39298571D01*
X100855237Y-39203333D01*
X100950475Y-39155714D01*
X101140952Y-39155714D01*
X101236190Y-39203333D01*
X100807618Y-39774762D02*
X100902856Y-39822381D01*
X101140952Y-39822381D01*
X101236190Y-39774762D01*
X101283809Y-39679524D01*
X101283809Y-39584286D01*
X101236190Y-39489048D01*
X101140952Y-39441429D01*
X100902856Y-39441429D01*
X100807618Y-39393810D01*
X100331428Y-39822381D02*
X100331428Y-39155714D01*
X100331428Y-38822381D02*
X100379047Y-38870000D01*
X100331428Y-38917619D01*
X100283809Y-38870000D01*
X100331428Y-38822381D01*
X100331428Y-38917619D01*
X99712381Y-39822381D02*
X99807619Y-39774762D01*
X99855238Y-39679524D01*
X99855238Y-38822381D01*
X99331428Y-39727143D02*
X99283809Y-39774762D01*
X99331428Y-39822381D01*
X99379047Y-39774762D01*
X99331428Y-39727143D01*
X99331428Y-39822381D01*
X98426666Y-39774762D02*
X98521904Y-39822381D01*
X98712381Y-39822381D01*
X98807619Y-39774762D01*
X98855238Y-39727143D01*
X98902857Y-39631905D01*
X98902857Y-39346190D01*
X98855238Y-39250952D01*
X98807619Y-39203333D01*
X98712381Y-39155714D01*
X98521904Y-39155714D01*
X98426666Y-39203333D01*
X97855238Y-39822381D02*
X97950476Y-39774762D01*
X97998095Y-39727143D01*
X98045714Y-39631905D01*
X98045714Y-39346190D01*
X97998095Y-39250952D01*
X97950476Y-39203333D01*
X97855238Y-39155714D01*
X97712380Y-39155714D01*
X97617142Y-39203333D01*
X97569523Y-39250952D01*
X97521904Y-39346190D01*
X97521904Y-39631905D01*
X97569523Y-39727143D01*
X97617142Y-39774762D01*
X97712380Y-39822381D01*
X97855238Y-39822381D01*
X97093333Y-39822381D02*
X97093333Y-39155714D01*
X97093333Y-39250952D02*
X97045714Y-39203333D01*
X96950476Y-39155714D01*
X96807618Y-39155714D01*
X96712380Y-39203333D01*
X96664761Y-39298571D01*
X96664761Y-39822381D01*
X96664761Y-39298571D02*
X96617142Y-39203333D01*
X96521904Y-39155714D01*
X96379047Y-39155714D01*
X96283809Y-39203333D01*
X96236190Y-39298571D01*
X96236190Y-39822381D01*
X95760000Y-39155714D02*
X94998095Y-39441429D01*
X95760000Y-39727143D01*
D12*
X123259999Y-37437143D02*
X123045713Y-37508571D01*
X122688570Y-37508571D01*
X122545713Y-37437143D01*
X122474284Y-37365714D01*
X122402856Y-37222857D01*
X122402856Y-37080000D01*
X122474284Y-36937143D01*
X122545713Y-36865714D01*
X122688570Y-36794286D01*
X122974284Y-36722857D01*
X123117142Y-36651429D01*
X123188570Y-36580000D01*
X123259999Y-36437143D01*
X123259999Y-36294286D01*
X123188570Y-36151429D01*
X123117142Y-36080000D01*
X122974284Y-36008571D01*
X122617142Y-36008571D01*
X122402856Y-36080000D01*
X121545713Y-37508571D02*
X121688571Y-37437143D01*
X121759999Y-37365714D01*
X121831428Y-37222857D01*
X121831428Y-36794286D01*
X121759999Y-36651429D01*
X121688571Y-36580000D01*
X121545713Y-36508571D01*
X121331428Y-36508571D01*
X121188571Y-36580000D01*
X121117142Y-36651429D01*
X121045713Y-36794286D01*
X121045713Y-37222857D01*
X121117142Y-37365714D01*
X121188571Y-37437143D01*
X121331428Y-37508571D01*
X121545713Y-37508571D01*
X120188570Y-37508571D02*
X120331428Y-37437143D01*
X120402856Y-37294286D01*
X120402856Y-36008571D01*
X118974285Y-37508571D02*
X118974285Y-36722857D01*
X119045714Y-36580000D01*
X119188571Y-36508571D01*
X119474285Y-36508571D01*
X119617142Y-36580000D01*
X118974285Y-37437143D02*
X119117142Y-37508571D01*
X119474285Y-37508571D01*
X119617142Y-37437143D01*
X119688571Y-37294286D01*
X119688571Y-37151429D01*
X119617142Y-37008571D01*
X119474285Y-36937143D01*
X119117142Y-36937143D01*
X118974285Y-36865714D01*
X118259999Y-37508571D02*
X118259999Y-36508571D01*
X118259999Y-36794286D02*
X118188571Y-36651429D01*
X118117142Y-36580000D01*
X117974285Y-36508571D01*
X117831428Y-36508571D01*
X116402857Y-36008571D02*
X115545714Y-36008571D01*
X115974285Y-37508571D02*
X115974285Y-36008571D01*
X115045714Y-37508571D02*
X115045714Y-36508571D01*
X115045714Y-36794286D02*
X114974286Y-36651429D01*
X114902857Y-36580000D01*
X114760000Y-36508571D01*
X114617143Y-36508571D01*
X113474286Y-37508571D02*
X113474286Y-36722857D01*
X113545715Y-36580000D01*
X113688572Y-36508571D01*
X113974286Y-36508571D01*
X114117143Y-36580000D01*
X113474286Y-37437143D02*
X113617143Y-37508571D01*
X113974286Y-37508571D01*
X114117143Y-37437143D01*
X114188572Y-37294286D01*
X114188572Y-37151429D01*
X114117143Y-37008571D01*
X113974286Y-36937143D01*
X113617143Y-36937143D01*
X113474286Y-36865714D01*
X112117143Y-37437143D02*
X112260000Y-37508571D01*
X112545714Y-37508571D01*
X112688572Y-37437143D01*
X112760000Y-37365714D01*
X112831429Y-37222857D01*
X112831429Y-36794286D01*
X112760000Y-36651429D01*
X112688572Y-36580000D01*
X112545714Y-36508571D01*
X112260000Y-36508571D01*
X112117143Y-36580000D01*
X111474286Y-37508571D02*
X111474286Y-36008571D01*
X111331429Y-36937143D02*
X110902858Y-37508571D01*
X110902858Y-36508571D02*
X111474286Y-37080000D01*
X109688572Y-37437143D02*
X109831429Y-37508571D01*
X110117143Y-37508571D01*
X110260000Y-37437143D01*
X110331429Y-37294286D01*
X110331429Y-36722857D01*
X110260000Y-36580000D01*
X110117143Y-36508571D01*
X109831429Y-36508571D01*
X109688572Y-36580000D01*
X109617143Y-36722857D01*
X109617143Y-36865714D01*
X110331429Y-37008571D01*
X108974286Y-37508571D02*
X108974286Y-36508571D01*
X108974286Y-36794286D02*
X108902858Y-36651429D01*
X108831429Y-36580000D01*
X108688572Y-36508571D01*
X108545715Y-36508571D01*
X107974287Y-37437143D02*
X107974287Y-37508571D01*
X108045715Y-37651429D01*
X108117144Y-37722857D01*
X105331429Y-37508571D02*
X105831429Y-36794286D01*
X106188572Y-37508571D02*
X106188572Y-36008571D01*
X105617144Y-36008571D01*
X105474286Y-36080000D01*
X105402858Y-36151429D01*
X105331429Y-36294286D01*
X105331429Y-36508571D01*
X105402858Y-36651429D01*
X105474286Y-36722857D01*
X105617144Y-36794286D01*
X106188572Y-36794286D01*
X104117144Y-37437143D02*
X104260001Y-37508571D01*
X104545715Y-37508571D01*
X104688572Y-37437143D01*
X104760001Y-37294286D01*
X104760001Y-36722857D01*
X104688572Y-36580000D01*
X104545715Y-36508571D01*
X104260001Y-36508571D01*
X104117144Y-36580000D01*
X104045715Y-36722857D01*
X104045715Y-36865714D01*
X104760001Y-37008571D01*
X103545715Y-36508571D02*
X103188572Y-37508571D01*
X102831430Y-36508571D01*
X100617144Y-36722857D02*
X100402858Y-36794286D01*
X100331430Y-36865714D01*
X100260001Y-37008571D01*
X100260001Y-37222857D01*
X100331430Y-37365714D01*
X100402858Y-37437143D01*
X100545716Y-37508571D01*
X101117144Y-37508571D01*
X101117144Y-36008571D01*
X100617144Y-36008571D01*
X100474287Y-36080000D01*
X100402858Y-36151429D01*
X100331430Y-36294286D01*
X100331430Y-36437143D01*
X100402858Y-36580000D01*
X100474287Y-36651429D01*
X100617144Y-36722857D01*
X101117144Y-36722857D01*
D13*
X127000000Y-64770000D03*
D14*
X132000000Y-64770000D03*
D15*
X55880000Y-41910000D03*
D16*
X63500000Y-57150000D03*
X55880000Y-44450000D03*
X63500000Y-54610000D03*
X55880000Y-46990000D03*
X63500000Y-52070000D03*
X55880000Y-49530000D03*
X63500000Y-49530000D03*
X55880000Y-52070000D03*
X63500000Y-46990000D03*
X55880000Y-54610000D03*
X63500000Y-44450000D03*
X55880000Y-57150000D03*
X63500000Y-41910000D03*
D13*
X153670000Y-50800000D03*
D14*
X153670000Y-45800000D03*
D17*
X146050000Y-45720000D03*
X146050000Y-50720000D03*
D15*
X72390000Y-44450000D03*
D17*
X72390000Y-47950000D03*
D13*
X109220000Y-64770000D03*
D14*
X114220000Y-64770000D03*
D18*
X83820000Y-36830000D03*
D19*
X83820000Y-39370000D03*
X83820000Y-41910000D03*
D18*
X139700000Y-36830000D03*
D19*
X139700000Y-39370000D03*
X139700000Y-41910000D03*
D18*
X83820000Y-60960000D03*
D19*
X83820000Y-58420000D03*
X83820000Y-55880000D03*
D18*
X139700000Y-60960000D03*
D19*
X139700000Y-58420000D03*
X139700000Y-55880000D03*
D17*
X46990000Y-36830000D03*
D16*
X46990000Y-46990000D03*
D17*
X46990000Y-52070000D03*
D16*
X46990000Y-62230000D03*
D17*
X69850000Y-62230000D03*
D16*
X69850000Y-52070000D03*
D17*
X74930000Y-52070000D03*
D16*
X74930000Y-62230000D03*
D20*
X39370000Y-39370000D03*
X41910000Y-41910000D03*
X39370000Y-44450000D03*
X39370000Y-50800000D03*
X41910000Y-53340000D03*
X39370000Y-55880000D03*
D13*
X91440000Y-64770000D03*
D14*
X96440000Y-64770000D03*
D21*
X30480000Y-43180000D03*
D22*
X30480000Y-40680000D03*
D21*
X30480000Y-54610000D03*
D22*
X30480000Y-52110000D03*
D23*
X91440000Y-49530000D03*
D24*
X96520000Y-49530000D03*
D23*
X132080000Y-49530000D03*
D24*
X127000000Y-49530000D03*
D23*
X102870000Y-30480000D03*
D24*
X102870000Y-45720000D03*
D23*
X120650000Y-30480000D03*
D24*
X120650000Y-45720000D03*
D23*
X102870000Y-50800000D03*
D24*
X102870000Y-66040000D03*
D23*
X120650000Y-50800000D03*
D24*
X120650000Y-66040000D03*
D25*
X29210000Y-29210000D03*
X157480000Y-29210000D03*
X29210000Y-68580000D03*
X157480000Y-68580000D03*
D26*
X52070000Y-34290000D03*
X52070000Y-41910000D03*
X72390000Y-64770000D03*
X78740000Y-64770000D03*
X78740000Y-36830000D03*
X78740000Y-27940000D03*
X52070000Y-46990000D03*
X52070000Y-54610000D03*
D27*
X46990000Y-62230000D02*
X38100000Y-62230000D01*
X38100000Y-62230000D02*
X30480000Y-54610000D01*
X46990000Y-62230000D02*
X46990000Y-68580000D01*
D28*
X153670000Y-50800000D02*
X153670000Y-57150000D01*
X153670000Y-57150000D02*
X142240000Y-68580000D01*
X142240000Y-68580000D02*
X135890000Y-68580000D01*
X120650000Y-66040000D02*
X120650000Y-68580000D01*
X102870000Y-66040000D02*
X102870000Y-68580000D01*
X139700000Y-58420000D02*
X137160000Y-58420000D01*
X135890000Y-59690000D02*
X135890000Y-68580000D01*
X137160000Y-58420000D02*
X135890000Y-59690000D01*
X83820000Y-58420000D02*
X86360000Y-58420000D01*
X87630000Y-59690000D02*
X87630000Y-68580000D01*
X86360000Y-58420000D02*
X87630000Y-59690000D01*
X87630000Y-68580000D02*
X74930000Y-68580000D01*
X146050000Y-50720000D02*
X153590000Y-50720000D01*
X153590000Y-50720000D02*
X153670000Y-50800000D01*
D27*
X63500000Y-49530000D02*
X61595000Y-51435000D01*
X61595000Y-51435000D02*
X61595000Y-57785000D01*
X61595000Y-57785000D02*
X63500000Y-59690000D01*
X63500000Y-59690000D02*
X72390000Y-59690000D01*
X72390000Y-59690000D02*
X74930000Y-62230000D01*
D28*
X39370000Y-68580000D02*
X46990000Y-68580000D01*
X46990000Y-68580000D02*
X73660000Y-68580000D01*
X73660000Y-68580000D02*
X74930000Y-68580000D01*
D27*
X74930000Y-62230000D02*
X74930000Y-68580000D01*
X74930000Y-62230000D02*
X76480001Y-60679999D01*
X76480001Y-60679999D02*
X76480001Y-50908631D01*
X73521370Y-47950000D02*
X72390000Y-47950000D01*
X76480001Y-50908631D02*
X73521370Y-47950000D01*
D28*
X102870000Y-68580000D02*
X87630000Y-68580000D01*
X135890000Y-68580000D02*
X120650000Y-68580000D01*
X120650000Y-68580000D02*
X102870000Y-68580000D01*
D27*
X63500000Y-52070000D02*
X64770000Y-52070000D01*
X64770000Y-52070000D02*
X69850000Y-52070000D01*
X65050001Y-48540001D02*
X65050001Y-51789999D01*
X65050001Y-51789999D02*
X64770000Y-52070000D01*
X63500000Y-46990000D02*
X65050001Y-48540001D01*
X69850000Y-52070000D02*
X74930000Y-52070000D01*
X72390000Y-44450000D02*
X71090000Y-44450000D01*
X71090000Y-44450000D02*
X69850000Y-45690000D01*
X69850000Y-45690000D02*
X69850000Y-50938630D01*
X69850000Y-50938630D02*
X69850000Y-52070000D01*
D28*
X102870000Y-50800000D02*
X102870000Y-45720000D01*
X109220000Y-64770000D02*
X109220000Y-52070000D01*
X106680000Y-49530000D02*
X102870000Y-49530000D01*
X109220000Y-52070000D02*
X106680000Y-49530000D01*
X96520000Y-49530000D02*
X102870000Y-49530000D01*
X96440000Y-64770000D02*
X96440000Y-49610000D01*
X96440000Y-49610000D02*
X96520000Y-49530000D01*
X96520000Y-64690000D02*
X96440000Y-64770000D01*
X120650000Y-50800000D02*
X120650000Y-45720000D01*
X114220000Y-64770000D02*
X114220000Y-52150000D01*
X116840000Y-49530000D02*
X120650000Y-49530000D01*
X114220000Y-52150000D02*
X116840000Y-49530000D01*
X127000000Y-49530000D02*
X120650000Y-49530000D01*
X127000000Y-49530000D02*
X127000000Y-64770000D01*
D27*
X73660000Y-34290000D02*
X82550000Y-34290000D01*
X55880000Y-41910000D02*
X52070000Y-41910000D01*
X52070000Y-34290000D02*
X73660000Y-34290000D01*
X83820000Y-35560000D02*
X83820000Y-36830000D01*
X82550000Y-34290000D02*
X83820000Y-35560000D01*
X83820000Y-36830000D02*
X82550000Y-36830000D01*
X82550000Y-60960000D02*
X83820000Y-60960000D01*
X81280000Y-59690000D02*
X82550000Y-60960000D01*
X81280000Y-38100000D02*
X81280000Y-59690000D01*
X82550000Y-36830000D02*
X81280000Y-38100000D01*
X143510000Y-27940000D02*
X78740000Y-27940000D01*
X156210000Y-40640000D02*
X143510000Y-27940000D01*
X156210000Y-46990000D02*
X156210000Y-40640000D01*
X142240000Y-48260000D02*
X154940000Y-48260000D01*
X78740000Y-36830000D02*
X78740000Y-64770000D01*
X54610000Y-58420000D02*
X55880000Y-57150000D01*
X54610000Y-58420000D02*
X54610000Y-63500000D01*
X54610000Y-63500000D02*
X55880000Y-64770000D01*
X55880000Y-64770000D02*
X72390000Y-64770000D01*
X154940000Y-48260000D02*
X156210000Y-46990000D01*
X139700000Y-36830000D02*
X140970000Y-36830000D01*
X140970000Y-60960000D02*
X139700000Y-60960000D01*
X142240000Y-59690000D02*
X140970000Y-60960000D01*
X142240000Y-38100000D02*
X142240000Y-48260000D01*
X142240000Y-48260000D02*
X142240000Y-59690000D01*
X140970000Y-36830000D02*
X142240000Y-38100000D01*
X39370000Y-44450000D02*
X41910000Y-44450000D01*
X46990000Y-39370000D02*
X46990000Y-36830000D01*
X41910000Y-44450000D02*
X46990000Y-39370000D01*
X46990000Y-36830000D02*
X46990000Y-36465602D01*
X39370000Y-52070000D02*
X39370000Y-50800000D01*
X40640000Y-53340000D02*
X39370000Y-52070000D01*
X41910000Y-53340000D02*
X40640000Y-53340000D01*
X46990000Y-46990000D02*
X41910000Y-52070000D01*
X41910000Y-53340000D02*
X41910000Y-52321767D01*
X46990000Y-46990000D02*
X49530000Y-44450000D01*
X49530000Y-44450000D02*
X55880000Y-44450000D01*
X41910000Y-52070000D02*
X41910000Y-53340000D01*
X41910000Y-55880000D02*
X43180000Y-55880000D01*
X39370000Y-55880000D02*
X41910000Y-55880000D01*
X43180000Y-55880000D02*
X46990000Y-52070000D01*
X55880000Y-52070000D02*
X48260000Y-52070000D01*
X48260000Y-52070000D02*
X46990000Y-52070000D01*
X63500000Y-54610000D02*
X63500000Y-57150000D01*
X63500000Y-41910000D02*
X63500000Y-44450000D01*
D28*
X91440000Y-49530000D02*
X83820000Y-49530000D01*
X91440000Y-49530000D02*
X91440000Y-64770000D01*
X83820000Y-41910000D02*
X83820000Y-49530000D01*
X83820000Y-49530000D02*
X83820000Y-55880000D01*
X132080000Y-49530000D02*
X139700000Y-49530000D01*
X132080000Y-49530000D02*
X132080000Y-64690000D01*
X132080000Y-64690000D02*
X132000000Y-64770000D01*
X132080000Y-64690000D02*
X132000000Y-64770000D01*
X139700000Y-41910000D02*
X139700000Y-49530000D01*
X139700000Y-49530000D02*
X139700000Y-55880000D01*
D27*
X39370000Y-40640000D02*
X39370000Y-39370000D01*
X40640000Y-41910000D02*
X39370000Y-40640000D01*
X41910000Y-41910000D02*
X40640000Y-41910000D01*
X30480000Y-40680000D02*
X30480000Y-40640000D01*
X30480000Y-40640000D02*
X31750000Y-39370000D01*
X31750000Y-39370000D02*
X39370000Y-39370000D01*
X39370000Y-36830000D02*
X39370000Y-39370000D01*
D28*
X153670000Y-45800000D02*
X153670000Y-41910000D01*
X153670000Y-41910000D02*
X142240000Y-30480000D01*
D27*
X49530000Y-30480000D02*
X49530000Y-35560000D01*
X50800000Y-36830000D02*
X55880000Y-36830000D01*
X55880000Y-36830000D02*
X60325000Y-41275000D01*
X49530000Y-35560000D02*
X50800000Y-36830000D01*
X60325000Y-41275000D02*
X60325000Y-51435000D01*
X39370000Y-36830000D02*
X39370000Y-30480000D01*
D28*
X59690000Y-30480000D02*
X87630000Y-30480000D01*
X59690000Y-30480000D02*
X49530000Y-30480000D01*
X49530000Y-30480000D02*
X39370000Y-30480000D01*
X139700000Y-39370000D02*
X137160000Y-39370000D01*
X135890000Y-38100000D02*
X135890000Y-30480000D01*
X137160000Y-39370000D02*
X135890000Y-38100000D01*
X83820000Y-39370000D02*
X86360000Y-39370000D01*
X86360000Y-39370000D02*
X87630000Y-38100000D01*
X87630000Y-38100000D02*
X87630000Y-30480000D01*
X142240000Y-30480000D02*
X135890000Y-30480000D01*
X135890000Y-30480000D02*
X120650000Y-30480000D01*
X120650000Y-30480000D02*
X102870000Y-30480000D01*
X102870000Y-30480000D02*
X87630000Y-30480000D01*
X146050000Y-45720000D02*
X153590000Y-45720000D01*
X153590000Y-45720000D02*
X153670000Y-45800000D01*
D27*
X60325000Y-51435000D02*
X60325000Y-61595000D01*
X68580000Y-62230000D02*
X69850000Y-62230000D01*
X60325000Y-61595000D02*
X60960000Y-62230000D01*
X60960000Y-62230000D02*
X68580000Y-62230000D01*
X59690000Y-50800000D02*
X60325000Y-51435000D01*
X59690000Y-50800000D02*
X58420000Y-49530000D01*
X58420000Y-49530000D02*
X55880000Y-49530000D01*
X30480000Y-46990000D02*
X43180000Y-46990000D01*
X56515000Y-39370000D02*
X58420000Y-41275000D01*
X58420000Y-41275000D02*
X58420000Y-44450000D01*
X58420000Y-44450000D02*
X55880000Y-46990000D01*
X50800000Y-39370000D02*
X56515000Y-39370000D01*
X44450000Y-45720000D02*
X50800000Y-39370000D01*
X43180000Y-46990000D02*
X44450000Y-45720000D01*
X30480000Y-45720000D02*
X30480000Y-43180000D01*
X30480000Y-52070000D02*
X30480000Y-46990000D01*
X30480000Y-46990000D02*
X30480000Y-45720000D01*
X55880000Y-46990000D02*
X52070000Y-46990000D01*
X52070000Y-54610000D02*
X55880000Y-54610000D01*
D29*
G36*
X154260827Y-26170435D02*
X154462500Y-26372108D01*
X153824430Y-26711054D01*
X153146389Y-28300200D01*
X153128101Y-30027856D01*
X153772349Y-31631001D01*
X153824430Y-31708946D01*
X154462502Y-32047893D01*
X157300395Y-29210000D01*
X157286253Y-29195858D01*
X157465858Y-29016253D01*
X157480000Y-29030395D01*
X157494143Y-29016253D01*
X157673748Y-29195858D01*
X157659605Y-29210000D01*
X157673748Y-29224143D01*
X157494143Y-29403748D01*
X157480000Y-29389605D01*
X154642107Y-32227498D01*
X154981054Y-32865570D01*
X156570200Y-33543611D01*
X158297856Y-33561899D01*
X159901001Y-32917651D01*
X159978946Y-32865570D01*
X160317892Y-32227500D01*
X160519565Y-32429173D01*
X160605000Y-32343738D01*
X160605000Y-65446262D01*
X160519565Y-65360827D01*
X160317892Y-65562500D01*
X159978946Y-64924430D01*
X158389800Y-64246389D01*
X156662144Y-64228101D01*
X155058999Y-64872349D01*
X154981054Y-64924430D01*
X154642107Y-65562502D01*
X157480000Y-68400395D01*
X157494143Y-68386253D01*
X157673748Y-68565858D01*
X157659605Y-68580000D01*
X157673748Y-68594143D01*
X157494143Y-68773748D01*
X157480000Y-68759605D01*
X157465858Y-68773748D01*
X157286253Y-68594143D01*
X157300395Y-68580000D01*
X154462502Y-65742107D01*
X153824430Y-66081054D01*
X153146389Y-67670200D01*
X153128101Y-69397856D01*
X153772349Y-71001001D01*
X153824430Y-71078946D01*
X154462500Y-71417892D01*
X154260827Y-71619565D01*
X154346262Y-71705000D01*
X32343738Y-71705000D01*
X32429173Y-71619565D01*
X32227500Y-71417892D01*
X32865570Y-71078946D01*
X33543611Y-69489800D01*
X33561899Y-67762144D01*
X32917651Y-66158999D01*
X32865570Y-66081054D01*
X32227498Y-65742107D01*
X29389605Y-68580000D01*
X29403748Y-68594143D01*
X29224143Y-68773748D01*
X29210000Y-68759605D01*
X29195858Y-68773748D01*
X29016253Y-68594143D01*
X29030395Y-68580000D01*
X29016253Y-68565858D01*
X29195858Y-68386253D01*
X29210000Y-68400395D01*
X32047893Y-65562502D01*
X31708946Y-64924430D01*
X30119800Y-64246389D01*
X28392144Y-64228101D01*
X26788999Y-64872349D01*
X26711054Y-64924430D01*
X26372108Y-65562500D01*
X26170435Y-65360827D01*
X26085000Y-65446262D01*
X26085000Y-62658740D01*
X45094886Y-62658740D01*
X45403215Y-63351333D01*
X45953117Y-63873213D01*
X46561261Y-64125107D01*
X46863000Y-63882377D01*
X46863000Y-62357000D01*
X47117000Y-62357000D01*
X47117000Y-63882377D01*
X47418739Y-64125107D01*
X48026883Y-63873213D01*
X48576785Y-63351333D01*
X48885114Y-62658740D01*
X48643102Y-62357000D01*
X47117000Y-62357000D01*
X46863000Y-62357000D01*
X45336898Y-62357000D01*
X45094886Y-62658740D01*
X26085000Y-62658740D01*
X26085000Y-61801260D01*
X45094886Y-61801260D01*
X45336898Y-62103000D01*
X46863000Y-62103000D01*
X46863000Y-60577623D01*
X47117000Y-60577623D01*
X47117000Y-62103000D01*
X48643102Y-62103000D01*
X48885114Y-61801260D01*
X48576785Y-61108667D01*
X48026883Y-60586787D01*
X47418739Y-60334893D01*
X47117000Y-60577623D01*
X46863000Y-60577623D01*
X46561261Y-60334893D01*
X45953117Y-60586787D01*
X45403215Y-61108667D01*
X45094886Y-61801260D01*
X26085000Y-61801260D01*
X26085000Y-55022750D01*
X28462000Y-55022750D01*
X28462000Y-55712357D01*
X28636011Y-56132458D01*
X28957543Y-56453989D01*
X29377643Y-56628000D01*
X30067250Y-56628000D01*
X30353000Y-56342250D01*
X30353000Y-54737000D01*
X30607000Y-54737000D01*
X30607000Y-56342250D01*
X30892750Y-56628000D01*
X31582357Y-56628000D01*
X32002457Y-56453989D01*
X32323989Y-56132458D01*
X32498000Y-55712357D01*
X32498000Y-55022750D01*
X32212250Y-54737000D01*
X30607000Y-54737000D01*
X30353000Y-54737000D01*
X28747750Y-54737000D01*
X28462000Y-55022750D01*
X26085000Y-55022750D01*
X26085000Y-53507643D01*
X28462000Y-53507643D01*
X28462000Y-54197250D01*
X28747750Y-54483000D01*
X30353000Y-54483000D01*
X30353000Y-54463000D01*
X30607000Y-54463000D01*
X30607000Y-54483000D01*
X32212250Y-54483000D01*
X32498000Y-54197250D01*
X32498000Y-53507643D01*
X32323989Y-53087542D01*
X32002457Y-52766011D01*
X31866064Y-52709515D01*
X31989738Y-52411675D01*
X31990262Y-51810960D01*
X31760862Y-51255771D01*
X31365000Y-50859217D01*
X31365000Y-47875000D01*
X43179995Y-47875000D01*
X43180000Y-47875001D01*
X43462484Y-47818810D01*
X43518675Y-47807633D01*
X43805790Y-47615790D01*
X43805791Y-47615789D01*
X45075787Y-46345792D01*
X45075790Y-46345790D01*
X51166579Y-40255000D01*
X56148420Y-40255000D01*
X56355980Y-40462560D01*
X55080000Y-40462560D01*
X54844683Y-40506838D01*
X54628559Y-40645910D01*
X54483569Y-40858110D01*
X54449773Y-41025000D01*
X53473398Y-41025000D01*
X53456894Y-40985057D01*
X52997363Y-40524722D01*
X52396648Y-40275284D01*
X51746205Y-40274716D01*
X51145057Y-40523106D01*
X50684722Y-40982637D01*
X50435284Y-41583352D01*
X50434716Y-42233795D01*
X50683106Y-42834943D01*
X51142637Y-43295278D01*
X51743352Y-43544716D01*
X52393795Y-43545284D01*
X52994943Y-43296894D01*
X53455278Y-42837363D01*
X53472869Y-42795000D01*
X54448554Y-42795000D01*
X54476838Y-42945317D01*
X54615910Y-43161441D01*
X54828110Y-43306431D01*
X54983089Y-43337815D01*
X54837189Y-43435302D01*
X54750527Y-43565000D01*
X49530000Y-43565000D01*
X49191325Y-43632367D01*
X48904210Y-43824210D01*
X48904208Y-43824213D01*
X47166438Y-45561983D01*
X46990000Y-45526887D01*
X46440849Y-45636120D01*
X45975302Y-45947189D01*
X45664233Y-46412736D01*
X45555000Y-46961887D01*
X45555000Y-47018113D01*
X45580767Y-47147654D01*
X41284210Y-51444210D01*
X41092367Y-51731325D01*
X41085669Y-51765000D01*
X41024999Y-52070000D01*
X41025000Y-52070005D01*
X41025000Y-52308868D01*
X40942652Y-52391072D01*
X40318912Y-51767332D01*
X40518043Y-51568548D01*
X40724764Y-51070709D01*
X40725235Y-50531656D01*
X40519383Y-50033457D01*
X40138548Y-49651957D01*
X39640709Y-49445236D01*
X39101656Y-49444765D01*
X38603457Y-49650617D01*
X38221957Y-50031452D01*
X38015236Y-50529291D01*
X38014765Y-51068344D01*
X38220617Y-51566543D01*
X38485000Y-51831388D01*
X38485000Y-52069995D01*
X38484999Y-52070000D01*
X38535080Y-52321767D01*
X38552367Y-52408675D01*
X38730318Y-52674999D01*
X38744210Y-52695790D01*
X40014208Y-53965787D01*
X40014210Y-53965790D01*
X40156477Y-54060849D01*
X40301325Y-54157633D01*
X40640000Y-54225001D01*
X40640005Y-54225000D01*
X40878868Y-54225000D01*
X41141452Y-54488043D01*
X41639291Y-54694764D01*
X42178344Y-54695235D01*
X42676543Y-54489383D01*
X43058043Y-54108548D01*
X43264764Y-53610709D01*
X43265235Y-53071656D01*
X43059383Y-52573457D01*
X42858928Y-52372652D01*
X46813562Y-48418017D01*
X46990000Y-48453113D01*
X47539151Y-48343880D01*
X48004698Y-48032811D01*
X48315767Y-47567264D01*
X48425000Y-47018113D01*
X48425000Y-46961887D01*
X48399233Y-46832347D01*
X49896579Y-45335000D01*
X54750527Y-45335000D01*
X54837189Y-45464698D01*
X55219275Y-45720000D01*
X54837189Y-45975302D01*
X54750527Y-46105000D01*
X53473398Y-46105000D01*
X53456894Y-46065057D01*
X52997363Y-45604722D01*
X52396648Y-45355284D01*
X51746205Y-45354716D01*
X51145057Y-45603106D01*
X50684722Y-46062637D01*
X50435284Y-46663352D01*
X50434716Y-47313795D01*
X50683106Y-47914943D01*
X51142637Y-48375278D01*
X51743352Y-48624716D01*
X52393795Y-48625284D01*
X52994943Y-48376894D01*
X53455278Y-47917363D01*
X53472869Y-47875000D01*
X54750527Y-47875000D01*
X54837189Y-48004698D01*
X55219275Y-48260000D01*
X54837189Y-48515302D01*
X54526120Y-48980849D01*
X54416887Y-49530000D01*
X54526120Y-50079151D01*
X54837189Y-50544698D01*
X55219275Y-50800000D01*
X54837189Y-51055302D01*
X54750527Y-51185000D01*
X48134171Y-51185000D01*
X47803923Y-50854176D01*
X47276691Y-50635250D01*
X46705813Y-50634752D01*
X46178200Y-50852757D01*
X45774176Y-51256077D01*
X45555250Y-51783309D01*
X45554840Y-52253581D01*
X42813420Y-54995000D01*
X40401132Y-54995000D01*
X40138548Y-54731957D01*
X39640709Y-54525236D01*
X39101656Y-54524765D01*
X38603457Y-54730617D01*
X38221957Y-55111452D01*
X38015236Y-55609291D01*
X38014765Y-56148344D01*
X38220617Y-56646543D01*
X38601452Y-57028043D01*
X39099291Y-57234764D01*
X39638344Y-57235235D01*
X40136543Y-57029383D01*
X40401388Y-56765000D01*
X43179995Y-56765000D01*
X43180000Y-56765001D01*
X43462484Y-56708810D01*
X43518675Y-56697633D01*
X43805790Y-56505790D01*
X46806739Y-53504840D01*
X47274187Y-53505248D01*
X47801800Y-53287243D01*
X48134623Y-52955000D01*
X54750527Y-52955000D01*
X54837189Y-53084698D01*
X55219275Y-53340000D01*
X54837189Y-53595302D01*
X54750527Y-53725000D01*
X53473398Y-53725000D01*
X53456894Y-53685057D01*
X52997363Y-53224722D01*
X52396648Y-52975284D01*
X51746205Y-52974716D01*
X51145057Y-53223106D01*
X50684722Y-53682637D01*
X50435284Y-54283352D01*
X50434716Y-54933795D01*
X50683106Y-55534943D01*
X51142637Y-55995278D01*
X51743352Y-56244716D01*
X52393795Y-56245284D01*
X52994943Y-55996894D01*
X53455278Y-55537363D01*
X53472869Y-55495000D01*
X54750527Y-55495000D01*
X54837189Y-55624698D01*
X55219275Y-55880000D01*
X54837189Y-56135302D01*
X54526120Y-56600849D01*
X54416887Y-57150000D01*
X54451983Y-57326438D01*
X53984210Y-57794210D01*
X53792367Y-58081325D01*
X53792367Y-58081326D01*
X53724999Y-58420000D01*
X53725000Y-58420005D01*
X53725000Y-63499995D01*
X53724999Y-63500000D01*
X53765504Y-63703628D01*
X53792367Y-63838675D01*
X53943132Y-64064312D01*
X53984210Y-64125790D01*
X55254208Y-65395787D01*
X55254210Y-65395790D01*
X55503714Y-65562502D01*
X55541325Y-65587633D01*
X55880000Y-65655001D01*
X55880005Y-65655000D01*
X70986602Y-65655000D01*
X71003106Y-65694943D01*
X71462637Y-66155278D01*
X72063352Y-66404716D01*
X72713795Y-66405284D01*
X73314943Y-66156894D01*
X73775278Y-65697363D01*
X74024716Y-65096648D01*
X74025284Y-64446205D01*
X73776894Y-63845057D01*
X73317363Y-63384722D01*
X72716648Y-63135284D01*
X72066205Y-63134716D01*
X71465057Y-63383106D01*
X71004722Y-63842637D01*
X70987131Y-63885000D01*
X56246579Y-63885000D01*
X55495000Y-63133420D01*
X55495000Y-58786580D01*
X55722347Y-58559233D01*
X55851887Y-58585000D01*
X55908113Y-58585000D01*
X56457264Y-58475767D01*
X56922811Y-58164698D01*
X57233880Y-57699151D01*
X57343113Y-57150000D01*
X57233880Y-56600849D01*
X56922811Y-56135302D01*
X56540725Y-55880000D01*
X56922811Y-55624698D01*
X57233880Y-55159151D01*
X57343113Y-54610000D01*
X57233880Y-54060849D01*
X56922811Y-53595302D01*
X56540725Y-53340000D01*
X56922811Y-53084698D01*
X57233880Y-52619151D01*
X57343113Y-52070000D01*
X57233880Y-51520849D01*
X56922811Y-51055302D01*
X56540725Y-50800000D01*
X56922811Y-50544698D01*
X57009473Y-50415000D01*
X58053420Y-50415000D01*
X59064208Y-51425787D01*
X59064210Y-51425790D01*
X59440000Y-51801579D01*
X59440000Y-61594995D01*
X59439999Y-61595000D01*
X59492712Y-61860000D01*
X59507367Y-61933675D01*
X59615372Y-62095317D01*
X59699210Y-62220790D01*
X60334208Y-62855787D01*
X60334210Y-62855790D01*
X60435649Y-62923569D01*
X60621326Y-63047634D01*
X60960000Y-63115001D01*
X60960005Y-63115000D01*
X68705829Y-63115000D01*
X69036077Y-63445824D01*
X69563309Y-63664750D01*
X70134187Y-63665248D01*
X70661800Y-63447243D01*
X71065824Y-63043923D01*
X71225766Y-62658740D01*
X73034886Y-62658740D01*
X73343215Y-63351333D01*
X73893117Y-63873213D01*
X74501261Y-64125107D01*
X74803000Y-63882377D01*
X74803000Y-62357000D01*
X75057000Y-62357000D01*
X75057000Y-63882377D01*
X75358739Y-64125107D01*
X75966883Y-63873213D01*
X76516785Y-63351333D01*
X76825114Y-62658740D01*
X76583102Y-62357000D01*
X75057000Y-62357000D01*
X74803000Y-62357000D01*
X73276898Y-62357000D01*
X73034886Y-62658740D01*
X71225766Y-62658740D01*
X71284750Y-62516691D01*
X71285248Y-61945813D01*
X71225520Y-61801260D01*
X73034886Y-61801260D01*
X73276898Y-62103000D01*
X74803000Y-62103000D01*
X74803000Y-60577623D01*
X75057000Y-60577623D01*
X75057000Y-62103000D01*
X76583102Y-62103000D01*
X76825114Y-61801260D01*
X76516785Y-61108667D01*
X75966883Y-60586787D01*
X75358739Y-60334893D01*
X75057000Y-60577623D01*
X74803000Y-60577623D01*
X74501261Y-60334893D01*
X73893117Y-60586787D01*
X73343215Y-61108667D01*
X73034886Y-61801260D01*
X71225520Y-61801260D01*
X71067243Y-61418200D01*
X70663923Y-61014176D01*
X70136691Y-60795250D01*
X69565813Y-60794752D01*
X69038200Y-61012757D01*
X68705377Y-61345000D01*
X61326579Y-61345000D01*
X61210000Y-61228420D01*
X61210000Y-51435005D01*
X61210001Y-51435000D01*
X61210000Y-51434995D01*
X61210000Y-49101261D01*
X61604893Y-49101261D01*
X61847623Y-49403000D01*
X63373000Y-49403000D01*
X63373000Y-49383000D01*
X63627000Y-49383000D01*
X63627000Y-49403000D01*
X63647000Y-49403000D01*
X63647000Y-49657000D01*
X63627000Y-49657000D01*
X63627000Y-49677000D01*
X63373000Y-49677000D01*
X63373000Y-49657000D01*
X61847623Y-49657000D01*
X61604893Y-49958739D01*
X61856787Y-50566883D01*
X62378667Y-51116785D01*
X62407524Y-51129631D01*
X62146120Y-51520849D01*
X62036887Y-52070000D01*
X62146120Y-52619151D01*
X62457189Y-53084698D01*
X62839275Y-53340000D01*
X62457189Y-53595302D01*
X62146120Y-54060849D01*
X62036887Y-54610000D01*
X62146120Y-55159151D01*
X62457189Y-55624698D01*
X62615000Y-55730144D01*
X62615000Y-56029856D01*
X62457189Y-56135302D01*
X62146120Y-56600849D01*
X62036887Y-57150000D01*
X62146120Y-57699151D01*
X62457189Y-58164698D01*
X62922736Y-58475767D01*
X63471887Y-58585000D01*
X63528113Y-58585000D01*
X64077264Y-58475767D01*
X64542811Y-58164698D01*
X64853880Y-57699151D01*
X64963113Y-57150000D01*
X64853880Y-56600849D01*
X64542811Y-56135302D01*
X64385000Y-56029856D01*
X64385000Y-55730144D01*
X64542811Y-55624698D01*
X64853880Y-55159151D01*
X64963113Y-54610000D01*
X64853880Y-54060849D01*
X64542811Y-53595302D01*
X64160725Y-53340000D01*
X64542811Y-53084698D01*
X64629473Y-52955000D01*
X64769995Y-52955000D01*
X64770000Y-52955001D01*
X64770005Y-52955000D01*
X68729856Y-52955000D01*
X68835302Y-53112811D01*
X69300849Y-53423880D01*
X69850000Y-53533113D01*
X70399151Y-53423880D01*
X70864698Y-53112811D01*
X70970144Y-52955000D01*
X73785829Y-52955000D01*
X74116077Y-53285824D01*
X74643309Y-53504750D01*
X75214187Y-53505248D01*
X75741800Y-53287243D01*
X76145824Y-52883923D01*
X76364750Y-52356691D01*
X76365248Y-51785813D01*
X76147243Y-51258200D01*
X75743923Y-50854176D01*
X75216691Y-50635250D01*
X74645813Y-50634752D01*
X74118200Y-50852757D01*
X73785377Y-51185000D01*
X70970144Y-51185000D01*
X70864698Y-51027189D01*
X70735000Y-50940527D01*
X70735000Y-49235203D01*
X71284402Y-49235203D01*
X71330699Y-49624068D01*
X72051971Y-49902014D01*
X72824706Y-49882784D01*
X73449301Y-49624068D01*
X73495598Y-49235203D01*
X72390000Y-48129605D01*
X71284402Y-49235203D01*
X70735000Y-49235203D01*
X70735000Y-49011571D01*
X71104797Y-49055598D01*
X72210395Y-47950000D01*
X72569605Y-47950000D01*
X73675203Y-49055598D01*
X74064068Y-49009301D01*
X74342014Y-48288029D01*
X74322784Y-47515294D01*
X74064068Y-46890699D01*
X73675203Y-46844402D01*
X72569605Y-47950000D01*
X72210395Y-47950000D01*
X71104797Y-46844402D01*
X70735000Y-46888429D01*
X70735000Y-46664797D01*
X71284402Y-46664797D01*
X72390000Y-47770395D01*
X73495598Y-46664797D01*
X73449301Y-46275932D01*
X72728029Y-45997986D01*
X71955294Y-46017216D01*
X71330699Y-46275932D01*
X71284402Y-46664797D01*
X70735000Y-46664797D01*
X70735000Y-46056580D01*
X71111904Y-45679675D01*
X71125910Y-45701441D01*
X71338110Y-45846431D01*
X71590000Y-45897440D01*
X73190000Y-45897440D01*
X73425317Y-45853162D01*
X73641441Y-45714090D01*
X73786431Y-45501890D01*
X73837440Y-45250000D01*
X73837440Y-43650000D01*
X73793162Y-43414683D01*
X73654090Y-43198559D01*
X73441890Y-43053569D01*
X73190000Y-43002560D01*
X71590000Y-43002560D01*
X71354683Y-43046838D01*
X71138559Y-43185910D01*
X70993569Y-43398110D01*
X70954307Y-43591991D01*
X70807516Y-43621190D01*
X70751325Y-43632367D01*
X70464210Y-43824210D01*
X70464208Y-43824213D01*
X69224210Y-45064210D01*
X69032367Y-45351325D01*
X69031580Y-45355284D01*
X68964999Y-45690000D01*
X68965000Y-45690005D01*
X68965000Y-50940527D01*
X68835302Y-51027189D01*
X68729856Y-51185000D01*
X65935001Y-51185000D01*
X65935001Y-48540001D01*
X65867634Y-48201326D01*
X65675791Y-47914211D01*
X65675788Y-47914209D01*
X64928017Y-47166438D01*
X64963113Y-46990000D01*
X64853880Y-46440849D01*
X64542811Y-45975302D01*
X64160725Y-45720000D01*
X64542811Y-45464698D01*
X64853880Y-44999151D01*
X64963113Y-44450000D01*
X64853880Y-43900849D01*
X64542811Y-43435302D01*
X64385000Y-43329856D01*
X64385000Y-43030144D01*
X64542811Y-42924698D01*
X64853880Y-42459151D01*
X64963113Y-41910000D01*
X64853880Y-41360849D01*
X64542811Y-40895302D01*
X64077264Y-40584233D01*
X63528113Y-40475000D01*
X63471887Y-40475000D01*
X62922736Y-40584233D01*
X62457189Y-40895302D01*
X62146120Y-41360849D01*
X62036887Y-41910000D01*
X62146120Y-42459151D01*
X62457189Y-42924698D01*
X62615000Y-43030144D01*
X62615000Y-43329856D01*
X62457189Y-43435302D01*
X62146120Y-43900849D01*
X62036887Y-44450000D01*
X62146120Y-44999151D01*
X62457189Y-45464698D01*
X62839275Y-45720000D01*
X62457189Y-45975302D01*
X62146120Y-46440849D01*
X62036887Y-46990000D01*
X62146120Y-47539151D01*
X62407524Y-47930369D01*
X62378667Y-47943215D01*
X61856787Y-48493117D01*
X61604893Y-49101261D01*
X61210000Y-49101261D01*
X61210000Y-41275005D01*
X61210001Y-41275000D01*
X61142633Y-40936325D01*
X61101445Y-40874683D01*
X60950790Y-40649210D01*
X60950787Y-40649208D01*
X57455375Y-37153795D01*
X77104716Y-37153795D01*
X77353106Y-37754943D01*
X77812637Y-38215278D01*
X77855000Y-38232869D01*
X77855000Y-63366602D01*
X77815057Y-63383106D01*
X77354722Y-63842637D01*
X77105284Y-64443352D01*
X77104716Y-65093795D01*
X77353106Y-65694943D01*
X77812637Y-66155278D01*
X78413352Y-66404716D01*
X79063795Y-66405284D01*
X79664943Y-66156894D01*
X80125278Y-65697363D01*
X80374716Y-65096648D01*
X80375284Y-64446205D01*
X80126894Y-63845057D01*
X79667363Y-63384722D01*
X79625000Y-63367131D01*
X79625000Y-38233398D01*
X79664943Y-38216894D01*
X80125278Y-37757363D01*
X80374716Y-37156648D01*
X80375284Y-36506205D01*
X80126894Y-35905057D01*
X79667363Y-35444722D01*
X79066648Y-35195284D01*
X78416205Y-35194716D01*
X77815057Y-35443106D01*
X77354722Y-35902637D01*
X77105284Y-36503352D01*
X77104716Y-37153795D01*
X57455375Y-37153795D01*
X56505790Y-36204210D01*
X56390127Y-36126927D01*
X56218675Y-36012367D01*
X56162484Y-36001190D01*
X55880000Y-35944999D01*
X55879995Y-35945000D01*
X51166579Y-35945000D01*
X50415000Y-35193420D01*
X50415000Y-32115000D01*
X85995000Y-32115000D01*
X85995000Y-37422761D01*
X85682760Y-37735000D01*
X85366427Y-37735000D01*
X85367440Y-37730000D01*
X85367440Y-35930000D01*
X85323162Y-35694683D01*
X85184090Y-35478559D01*
X84971890Y-35333569D01*
X84720000Y-35282560D01*
X84649814Y-35282560D01*
X84637633Y-35221325D01*
X84620233Y-35195284D01*
X84445790Y-34934210D01*
X84445787Y-34934208D01*
X83175790Y-33664210D01*
X82888675Y-33472367D01*
X82832484Y-33461190D01*
X82550000Y-33404999D01*
X82549995Y-33405000D01*
X53473398Y-33405000D01*
X53456894Y-33365057D01*
X52997363Y-32904722D01*
X52396648Y-32655284D01*
X51746205Y-32654716D01*
X51145057Y-32903106D01*
X50684722Y-33362637D01*
X50435284Y-33963352D01*
X50434716Y-34613795D01*
X50683106Y-35214943D01*
X51142637Y-35675278D01*
X51743352Y-35924716D01*
X52393795Y-35925284D01*
X52994943Y-35676894D01*
X53455278Y-35217363D01*
X53472869Y-35175000D01*
X82183420Y-35175000D01*
X82472071Y-35463650D01*
X82468559Y-35465910D01*
X82323569Y-35678110D01*
X82272560Y-35930000D01*
X82272560Y-36000186D01*
X82211325Y-36012367D01*
X81924210Y-36204210D01*
X81924208Y-36204213D01*
X80654210Y-37474210D01*
X80462367Y-37761325D01*
X80462367Y-37761326D01*
X80394999Y-38100000D01*
X80395000Y-38100005D01*
X80395000Y-59689995D01*
X80394999Y-59690000D01*
X80421790Y-59824683D01*
X80462367Y-60028675D01*
X80558571Y-60172655D01*
X80654210Y-60315790D01*
X81924208Y-61585787D01*
X81924210Y-61585790D01*
X82211325Y-61777633D01*
X82272560Y-61789814D01*
X82272560Y-61860000D01*
X82316838Y-62095317D01*
X82455910Y-62311441D01*
X82668110Y-62456431D01*
X82920000Y-62507440D01*
X84720000Y-62507440D01*
X84955317Y-62463162D01*
X85171441Y-62324090D01*
X85316431Y-62111890D01*
X85367440Y-61860000D01*
X85367440Y-60060000D01*
X85323162Y-59824683D01*
X85295458Y-59781630D01*
X85492224Y-59593689D01*
X85814085Y-58864415D01*
X85573306Y-58547000D01*
X83947000Y-58547000D01*
X83947000Y-58567000D01*
X83693000Y-58567000D01*
X83693000Y-58547000D01*
X83673000Y-58547000D01*
X83673000Y-58293000D01*
X83693000Y-58293000D01*
X83693000Y-58273000D01*
X83947000Y-58273000D01*
X83947000Y-58293000D01*
X85573306Y-58293000D01*
X85814085Y-57975585D01*
X85492224Y-57246311D01*
X85091452Y-56863512D01*
X85330543Y-56505687D01*
X85455000Y-55880000D01*
X85455000Y-51165000D01*
X89199146Y-51165000D01*
X89236838Y-51365317D01*
X89375910Y-51581441D01*
X89588110Y-51726431D01*
X89805000Y-51770352D01*
X89805000Y-63013156D01*
X89738559Y-63055910D01*
X89593569Y-63268110D01*
X89542560Y-63520000D01*
X89542560Y-66020000D01*
X89586838Y-66255317D01*
X89725910Y-66471441D01*
X89938110Y-66616431D01*
X90190000Y-66667440D01*
X92690000Y-66667440D01*
X92925317Y-66623162D01*
X93141441Y-66484090D01*
X93286431Y-66271890D01*
X93337440Y-66020000D01*
X93337440Y-63520000D01*
X93293162Y-63284683D01*
X93154090Y-63068559D01*
X93075000Y-63014519D01*
X93075000Y-51770854D01*
X93275317Y-51733162D01*
X93491441Y-51594090D01*
X93636431Y-51381890D01*
X93687440Y-51130000D01*
X93687440Y-49530000D01*
X94241214Y-49530000D01*
X94411343Y-50385297D01*
X94805000Y-50974447D01*
X94805000Y-63792129D01*
X94555328Y-64393405D01*
X94554674Y-65143305D01*
X94841043Y-65836372D01*
X95370839Y-66367093D01*
X96063405Y-66654672D01*
X96813305Y-66655326D01*
X96961539Y-66594077D01*
X100183538Y-66594077D01*
X100600069Y-67579965D01*
X101362176Y-68331407D01*
X102315924Y-68726456D01*
X102743000Y-68493966D01*
X102743000Y-66167000D01*
X102997000Y-66167000D01*
X102997000Y-68493966D01*
X103424076Y-68726456D01*
X104377824Y-68331407D01*
X105139931Y-67579965D01*
X105556462Y-66594077D01*
X105324314Y-66167000D01*
X102997000Y-66167000D01*
X102743000Y-66167000D01*
X100415686Y-66167000D01*
X100183538Y-66594077D01*
X96961539Y-66594077D01*
X97506372Y-66368957D01*
X98037093Y-65839161D01*
X98183770Y-65485923D01*
X100183538Y-65485923D01*
X100415686Y-65913000D01*
X102743000Y-65913000D01*
X102743000Y-63586034D01*
X102997000Y-63586034D01*
X102997000Y-65913000D01*
X105324314Y-65913000D01*
X105556462Y-65485923D01*
X105139931Y-64500035D01*
X104377824Y-63748593D01*
X103424076Y-63353544D01*
X102997000Y-63586034D01*
X102743000Y-63586034D01*
X102315924Y-63353544D01*
X101362176Y-63748593D01*
X100600069Y-64500035D01*
X100183538Y-65485923D01*
X98183770Y-65485923D01*
X98324672Y-65146595D01*
X98325326Y-64396695D01*
X98075000Y-63790859D01*
X98075000Y-51165000D01*
X100622560Y-51165000D01*
X100622560Y-52400000D01*
X100666838Y-52635317D01*
X100805910Y-52851441D01*
X101018110Y-52996431D01*
X101270000Y-53047440D01*
X104470000Y-53047440D01*
X104705317Y-53003162D01*
X104921441Y-52864090D01*
X105066431Y-52651890D01*
X105117440Y-52400000D01*
X105117440Y-51165000D01*
X106002760Y-51165000D01*
X107585000Y-52747239D01*
X107585000Y-63013156D01*
X107518559Y-63055910D01*
X107373569Y-63268110D01*
X107322560Y-63520000D01*
X107322560Y-66020000D01*
X107366838Y-66255317D01*
X107505910Y-66471441D01*
X107718110Y-66616431D01*
X107970000Y-66667440D01*
X110470000Y-66667440D01*
X110705317Y-66623162D01*
X110921441Y-66484090D01*
X111066431Y-66271890D01*
X111117440Y-66020000D01*
X111117440Y-65143305D01*
X112334674Y-65143305D01*
X112621043Y-65836372D01*
X113150839Y-66367093D01*
X113843405Y-66654672D01*
X114593305Y-66655326D01*
X114741539Y-66594077D01*
X117963538Y-66594077D01*
X118380069Y-67579965D01*
X119142176Y-68331407D01*
X120095924Y-68726456D01*
X120523000Y-68493966D01*
X120523000Y-66167000D01*
X120777000Y-66167000D01*
X120777000Y-68493966D01*
X121204076Y-68726456D01*
X122157824Y-68331407D01*
X122919931Y-67579965D01*
X123336462Y-66594077D01*
X123104314Y-66167000D01*
X120777000Y-66167000D01*
X120523000Y-66167000D01*
X118195686Y-66167000D01*
X117963538Y-66594077D01*
X114741539Y-66594077D01*
X115286372Y-66368957D01*
X115817093Y-65839161D01*
X115963770Y-65485923D01*
X117963538Y-65485923D01*
X118195686Y-65913000D01*
X120523000Y-65913000D01*
X120523000Y-63586034D01*
X120777000Y-63586034D01*
X120777000Y-65913000D01*
X123104314Y-65913000D01*
X123336462Y-65485923D01*
X122919931Y-64500035D01*
X122157824Y-63748593D01*
X121204076Y-63353544D01*
X120777000Y-63586034D01*
X120523000Y-63586034D01*
X120095924Y-63353544D01*
X119142176Y-63748593D01*
X118380069Y-64500035D01*
X117963538Y-65485923D01*
X115963770Y-65485923D01*
X116104672Y-65146595D01*
X116105326Y-64396695D01*
X115855000Y-63790859D01*
X115855000Y-52827240D01*
X117517239Y-51165000D01*
X118402560Y-51165000D01*
X118402560Y-52400000D01*
X118446838Y-52635317D01*
X118585910Y-52851441D01*
X118798110Y-52996431D01*
X119050000Y-53047440D01*
X122250000Y-53047440D01*
X122485317Y-53003162D01*
X122701441Y-52864090D01*
X122846431Y-52651890D01*
X122897440Y-52400000D01*
X122897440Y-51165000D01*
X125365000Y-51165000D01*
X125365000Y-63013156D01*
X125298559Y-63055910D01*
X125153569Y-63268110D01*
X125102560Y-63520000D01*
X125102560Y-66020000D01*
X125146838Y-66255317D01*
X125285910Y-66471441D01*
X125498110Y-66616431D01*
X125750000Y-66667440D01*
X128250000Y-66667440D01*
X128485317Y-66623162D01*
X128701441Y-66484090D01*
X128846431Y-66271890D01*
X128897440Y-66020000D01*
X128897440Y-63520000D01*
X128853162Y-63284683D01*
X128714090Y-63068559D01*
X128635000Y-63014519D01*
X128635000Y-51094176D01*
X129108657Y-50385297D01*
X129278786Y-49530000D01*
X129108657Y-48674703D01*
X128624170Y-47949616D01*
X127899083Y-47465129D01*
X127043786Y-47295000D01*
X126956214Y-47295000D01*
X126100917Y-47465129D01*
X125457569Y-47895000D01*
X122285000Y-47895000D01*
X122285000Y-47262431D01*
X122714871Y-46619083D01*
X122885000Y-45763786D01*
X122885000Y-45676214D01*
X122714871Y-44820917D01*
X122230384Y-44095830D01*
X121505297Y-43611343D01*
X120650000Y-43441214D01*
X119794703Y-43611343D01*
X119069616Y-44095830D01*
X118585129Y-44820917D01*
X118415000Y-45676214D01*
X118415000Y-45763786D01*
X118585129Y-46619083D01*
X119015000Y-47262431D01*
X119015000Y-47895000D01*
X116840005Y-47895000D01*
X116840000Y-47894999D01*
X116288511Y-48004698D01*
X116214313Y-48019457D01*
X115683880Y-48373880D01*
X115683878Y-48373883D01*
X113063880Y-50993880D01*
X112709457Y-51524312D01*
X112584999Y-52150000D01*
X112585000Y-52150005D01*
X112585000Y-63792129D01*
X112335328Y-64393405D01*
X112334674Y-65143305D01*
X111117440Y-65143305D01*
X111117440Y-63520000D01*
X111073162Y-63284683D01*
X110934090Y-63068559D01*
X110855000Y-63014519D01*
X110855000Y-52070000D01*
X110730543Y-51444313D01*
X110376120Y-50913880D01*
X110376117Y-50913878D01*
X107836120Y-48373880D01*
X107305688Y-48019457D01*
X106680000Y-47894999D01*
X106679995Y-47895000D01*
X104505000Y-47895000D01*
X104505000Y-47262431D01*
X104934871Y-46619083D01*
X105105000Y-45763786D01*
X105105000Y-45676214D01*
X104934871Y-44820917D01*
X104450384Y-44095830D01*
X103725297Y-43611343D01*
X102870000Y-43441214D01*
X102014703Y-43611343D01*
X101289616Y-44095830D01*
X100805129Y-44820917D01*
X100635000Y-45676214D01*
X100635000Y-45763786D01*
X100805129Y-46619083D01*
X101235000Y-47262431D01*
X101235000Y-47895000D01*
X98062431Y-47895000D01*
X97419083Y-47465129D01*
X96563786Y-47295000D01*
X96476214Y-47295000D01*
X95620917Y-47465129D01*
X94895830Y-47949616D01*
X94411343Y-48674703D01*
X94241214Y-49530000D01*
X93687440Y-49530000D01*
X93687440Y-47930000D01*
X93643162Y-47694683D01*
X93504090Y-47478559D01*
X93291890Y-47333569D01*
X93040000Y-47282560D01*
X89840000Y-47282560D01*
X89604683Y-47326838D01*
X89388559Y-47465910D01*
X89243569Y-47678110D01*
X89199648Y-47895000D01*
X85455000Y-47895000D01*
X85455000Y-41910000D01*
X85330543Y-41284313D01*
X85143913Y-41005000D01*
X86359995Y-41005000D01*
X86360000Y-41005001D01*
X86985688Y-40880543D01*
X87516120Y-40526120D01*
X88786117Y-39256122D01*
X88786120Y-39256120D01*
X89012289Y-38917633D01*
X89140543Y-38725688D01*
X89265000Y-38100000D01*
X89265000Y-34290000D01*
X93853000Y-34290000D01*
X93853000Y-41910000D01*
X93861685Y-41956159D01*
X93888965Y-41998553D01*
X93930590Y-42026994D01*
X93980000Y-42037000D01*
X129540000Y-42037000D01*
X129586159Y-42028315D01*
X129628553Y-42001035D01*
X129656994Y-41959410D01*
X129667000Y-41910000D01*
X129667000Y-34290000D01*
X129658315Y-34243841D01*
X129631035Y-34201447D01*
X129589410Y-34173006D01*
X129540000Y-34163000D01*
X93980000Y-34163000D01*
X93933841Y-34171685D01*
X93891447Y-34198965D01*
X93863006Y-34240590D01*
X93853000Y-34290000D01*
X89265000Y-34290000D01*
X89265000Y-32115000D01*
X100629146Y-32115000D01*
X100666838Y-32315317D01*
X100805910Y-32531441D01*
X101018110Y-32676431D01*
X101270000Y-32727440D01*
X104470000Y-32727440D01*
X104705317Y-32683162D01*
X104921441Y-32544090D01*
X105066431Y-32331890D01*
X105110352Y-32115000D01*
X118409146Y-32115000D01*
X118446838Y-32315317D01*
X118585910Y-32531441D01*
X118798110Y-32676431D01*
X119050000Y-32727440D01*
X122250000Y-32727440D01*
X122485317Y-32683162D01*
X122701441Y-32544090D01*
X122846431Y-32331890D01*
X122890352Y-32115000D01*
X134255000Y-32115000D01*
X134255000Y-38099995D01*
X134254999Y-38100000D01*
X134379457Y-38725688D01*
X134733880Y-39256120D01*
X136003878Y-40526117D01*
X136003880Y-40526120D01*
X136321851Y-40738581D01*
X136534312Y-40880543D01*
X137160000Y-41005000D01*
X138376087Y-41005000D01*
X138189457Y-41284313D01*
X138065000Y-41910000D01*
X138065000Y-47895000D01*
X134320854Y-47895000D01*
X134283162Y-47694683D01*
X134144090Y-47478559D01*
X133931890Y-47333569D01*
X133680000Y-47282560D01*
X130480000Y-47282560D01*
X130244683Y-47326838D01*
X130028559Y-47465910D01*
X129883569Y-47678110D01*
X129832560Y-47930000D01*
X129832560Y-51130000D01*
X129876838Y-51365317D01*
X130015910Y-51581441D01*
X130228110Y-51726431D01*
X130445000Y-51770352D01*
X130445000Y-63658819D01*
X130402907Y-63700839D01*
X130115328Y-64393405D01*
X130114674Y-65143305D01*
X130401043Y-65836372D01*
X130930839Y-66367093D01*
X131623405Y-66654672D01*
X132373305Y-66655326D01*
X133066372Y-66368957D01*
X133597093Y-65839161D01*
X133884672Y-65146595D01*
X133885326Y-64396695D01*
X133715000Y-63984474D01*
X133715000Y-51770854D01*
X133915317Y-51733162D01*
X134131441Y-51594090D01*
X134276431Y-51381890D01*
X134320352Y-51165000D01*
X138065000Y-51165000D01*
X138065000Y-55880000D01*
X138189457Y-56505687D01*
X138428548Y-56863512D01*
X138027776Y-57246311D01*
X137705915Y-57975585D01*
X137946694Y-58293000D01*
X139573000Y-58293000D01*
X139573000Y-58273000D01*
X139827000Y-58273000D01*
X139827000Y-58293000D01*
X139847000Y-58293000D01*
X139847000Y-58547000D01*
X139827000Y-58547000D01*
X139827000Y-58567000D01*
X139573000Y-58567000D01*
X139573000Y-58547000D01*
X137946694Y-58547000D01*
X137705915Y-58864415D01*
X138027776Y-59593689D01*
X138222799Y-59779966D01*
X138203569Y-59808110D01*
X138152560Y-60060000D01*
X138152560Y-61860000D01*
X138196838Y-62095317D01*
X138335910Y-62311441D01*
X138548110Y-62456431D01*
X138800000Y-62507440D01*
X140600000Y-62507440D01*
X140835317Y-62463162D01*
X141051441Y-62324090D01*
X141196431Y-62111890D01*
X141247440Y-61860000D01*
X141247440Y-61789813D01*
X141252484Y-61788810D01*
X141308675Y-61777633D01*
X141595790Y-61585790D01*
X141595791Y-61585789D01*
X142865787Y-60315792D01*
X142865790Y-60315790D01*
X143057633Y-60028675D01*
X143098210Y-59824683D01*
X143125001Y-59690000D01*
X143125000Y-59689995D01*
X143125000Y-52005203D01*
X144944402Y-52005203D01*
X144990699Y-52394068D01*
X145711971Y-52672014D01*
X146484706Y-52652784D01*
X147109301Y-52394068D01*
X147155598Y-52005203D01*
X146050000Y-50899605D01*
X144944402Y-52005203D01*
X143125000Y-52005203D01*
X143125000Y-50381971D01*
X144097986Y-50381971D01*
X144117216Y-51154706D01*
X144375932Y-51779301D01*
X144764797Y-51825598D01*
X145870395Y-50720000D01*
X146229605Y-50720000D01*
X147335203Y-51825598D01*
X147724068Y-51779301D01*
X147942391Y-51212750D01*
X151277000Y-51212750D01*
X151277000Y-52277357D01*
X151451011Y-52697458D01*
X151772543Y-53018989D01*
X152192643Y-53193000D01*
X153257250Y-53193000D01*
X153543000Y-52907250D01*
X153543000Y-50927000D01*
X153797000Y-50927000D01*
X153797000Y-52907250D01*
X154082750Y-53193000D01*
X155147357Y-53193000D01*
X155567457Y-53018989D01*
X155888989Y-52697458D01*
X156063000Y-52277357D01*
X156063000Y-51212750D01*
X155777250Y-50927000D01*
X153797000Y-50927000D01*
X153543000Y-50927000D01*
X151562750Y-50927000D01*
X151277000Y-51212750D01*
X147942391Y-51212750D01*
X148002014Y-51058029D01*
X147982784Y-50285294D01*
X147724068Y-49660699D01*
X147335203Y-49614402D01*
X146229605Y-50720000D01*
X145870395Y-50720000D01*
X144764797Y-49614402D01*
X144375932Y-49660699D01*
X144097986Y-50381971D01*
X143125000Y-50381971D01*
X143125000Y-49145000D01*
X144978904Y-49145000D01*
X144944402Y-49434797D01*
X146050000Y-50540395D01*
X147155598Y-49434797D01*
X147121096Y-49145000D01*
X151350582Y-49145000D01*
X151277000Y-49322643D01*
X151277000Y-50387250D01*
X151562750Y-50673000D01*
X153543000Y-50673000D01*
X153543000Y-50653000D01*
X153797000Y-50653000D01*
X153797000Y-50673000D01*
X155777250Y-50673000D01*
X156063000Y-50387250D01*
X156063000Y-49322643D01*
X155888989Y-48902542D01*
X155719013Y-48732567D01*
X156835787Y-47615792D01*
X156835790Y-47615790D01*
X157027633Y-47328675D01*
X157031240Y-47310543D01*
X157095001Y-46990000D01*
X157095000Y-46989995D01*
X157095000Y-40640005D01*
X157095001Y-40640000D01*
X157027633Y-40301325D01*
X157010043Y-40275000D01*
X156835790Y-40014210D01*
X156835787Y-40014208D01*
X144135790Y-27314210D01*
X143848675Y-27122367D01*
X143792484Y-27111190D01*
X143510000Y-27054999D01*
X143509995Y-27055000D01*
X80143398Y-27055000D01*
X80126894Y-27015057D01*
X79667363Y-26554722D01*
X79066648Y-26305284D01*
X78416205Y-26304716D01*
X77815057Y-26553106D01*
X77354722Y-27012637D01*
X77105284Y-27613352D01*
X77104716Y-28263795D01*
X77344866Y-28845000D01*
X39370000Y-28845000D01*
X38744313Y-28969457D01*
X38213880Y-29323880D01*
X37859457Y-29854313D01*
X37735000Y-30480000D01*
X37859457Y-31105687D01*
X38213880Y-31636120D01*
X38485000Y-31817276D01*
X38485000Y-38338868D01*
X38338612Y-38485000D01*
X31750005Y-38485000D01*
X31750000Y-38484999D01*
X31411325Y-38552367D01*
X31124210Y-38744210D01*
X31124208Y-38744213D01*
X30698231Y-39170189D01*
X30180960Y-39169738D01*
X29625771Y-39399138D01*
X29200630Y-39823537D01*
X28970262Y-40378325D01*
X28969738Y-40979040D01*
X29199138Y-41534229D01*
X29367717Y-41703103D01*
X29153559Y-41840910D01*
X29008569Y-42053110D01*
X28957560Y-42305000D01*
X28957560Y-44055000D01*
X29001838Y-44290317D01*
X29140910Y-44506441D01*
X29353110Y-44651431D01*
X29595000Y-44700415D01*
X29595000Y-50859855D01*
X29200630Y-51253537D01*
X28970262Y-51808325D01*
X28969738Y-52409040D01*
X29093899Y-52709531D01*
X28957543Y-52766011D01*
X28636011Y-53087542D01*
X28462000Y-53507643D01*
X26085000Y-53507643D01*
X26085000Y-32343738D01*
X26170435Y-32429173D01*
X26372108Y-32227500D01*
X26711054Y-32865570D01*
X28300200Y-33543611D01*
X30027856Y-33561899D01*
X31631001Y-32917651D01*
X31708946Y-32865570D01*
X32047893Y-32227498D01*
X29210000Y-29389605D01*
X29195858Y-29403748D01*
X29016253Y-29224143D01*
X29030395Y-29210000D01*
X29016253Y-29195858D01*
X29195858Y-29016253D01*
X29210000Y-29030395D01*
X29224143Y-29016253D01*
X29403748Y-29195858D01*
X29389605Y-29210000D01*
X32227498Y-32047893D01*
X32865570Y-31708946D01*
X33543611Y-30119800D01*
X33561899Y-28392144D01*
X32917651Y-26788999D01*
X32865570Y-26711054D01*
X32227500Y-26372108D01*
X32429173Y-26170435D01*
X32343738Y-26085000D01*
X154346262Y-26085000D01*
X154260827Y-26170435D01*
X154260827Y-26170435D01*
G37*
X154260827Y-26170435D02*
X154462500Y-26372108D01*
X153824430Y-26711054D01*
X153146389Y-28300200D01*
X153128101Y-30027856D01*
X153772349Y-31631001D01*
X153824430Y-31708946D01*
X154462502Y-32047893D01*
X157300395Y-29210000D01*
X157286253Y-29195858D01*
X157465858Y-29016253D01*
X157480000Y-29030395D01*
X157494143Y-29016253D01*
X157673748Y-29195858D01*
X157659605Y-29210000D01*
X157673748Y-29224143D01*
X157494143Y-29403748D01*
X157480000Y-29389605D01*
X154642107Y-32227498D01*
X154981054Y-32865570D01*
X156570200Y-33543611D01*
X158297856Y-33561899D01*
X159901001Y-32917651D01*
X159978946Y-32865570D01*
X160317892Y-32227500D01*
X160519565Y-32429173D01*
X160605000Y-32343738D01*
X160605000Y-65446262D01*
X160519565Y-65360827D01*
X160317892Y-65562500D01*
X159978946Y-64924430D01*
X158389800Y-64246389D01*
X156662144Y-64228101D01*
X155058999Y-64872349D01*
X154981054Y-64924430D01*
X154642107Y-65562502D01*
X157480000Y-68400395D01*
X157494143Y-68386253D01*
X157673748Y-68565858D01*
X157659605Y-68580000D01*
X157673748Y-68594143D01*
X157494143Y-68773748D01*
X157480000Y-68759605D01*
X157465858Y-68773748D01*
X157286253Y-68594143D01*
X157300395Y-68580000D01*
X154462502Y-65742107D01*
X153824430Y-66081054D01*
X153146389Y-67670200D01*
X153128101Y-69397856D01*
X153772349Y-71001001D01*
X153824430Y-71078946D01*
X154462500Y-71417892D01*
X154260827Y-71619565D01*
X154346262Y-71705000D01*
X32343738Y-71705000D01*
X32429173Y-71619565D01*
X32227500Y-71417892D01*
X32865570Y-71078946D01*
X33543611Y-69489800D01*
X33561899Y-67762144D01*
X32917651Y-66158999D01*
X32865570Y-66081054D01*
X32227498Y-65742107D01*
X29389605Y-68580000D01*
X29403748Y-68594143D01*
X29224143Y-68773748D01*
X29210000Y-68759605D01*
X29195858Y-68773748D01*
X29016253Y-68594143D01*
X29030395Y-68580000D01*
X29016253Y-68565858D01*
X29195858Y-68386253D01*
X29210000Y-68400395D01*
X32047893Y-65562502D01*
X31708946Y-64924430D01*
X30119800Y-64246389D01*
X28392144Y-64228101D01*
X26788999Y-64872349D01*
X26711054Y-64924430D01*
X26372108Y-65562500D01*
X26170435Y-65360827D01*
X26085000Y-65446262D01*
X26085000Y-62658740D01*
X45094886Y-62658740D01*
X45403215Y-63351333D01*
X45953117Y-63873213D01*
X46561261Y-64125107D01*
X46863000Y-63882377D01*
X46863000Y-62357000D01*
X47117000Y-62357000D01*
X47117000Y-63882377D01*
X47418739Y-64125107D01*
X48026883Y-63873213D01*
X48576785Y-63351333D01*
X48885114Y-62658740D01*
X48643102Y-62357000D01*
X47117000Y-62357000D01*
X46863000Y-62357000D01*
X45336898Y-62357000D01*
X45094886Y-62658740D01*
X26085000Y-62658740D01*
X26085000Y-61801260D01*
X45094886Y-61801260D01*
X45336898Y-62103000D01*
X46863000Y-62103000D01*
X46863000Y-60577623D01*
X47117000Y-60577623D01*
X47117000Y-62103000D01*
X48643102Y-62103000D01*
X48885114Y-61801260D01*
X48576785Y-61108667D01*
X48026883Y-60586787D01*
X47418739Y-60334893D01*
X47117000Y-60577623D01*
X46863000Y-60577623D01*
X46561261Y-60334893D01*
X45953117Y-60586787D01*
X45403215Y-61108667D01*
X45094886Y-61801260D01*
X26085000Y-61801260D01*
X26085000Y-55022750D01*
X28462000Y-55022750D01*
X28462000Y-55712357D01*
X28636011Y-56132458D01*
X28957543Y-56453989D01*
X29377643Y-56628000D01*
X30067250Y-56628000D01*
X30353000Y-56342250D01*
X30353000Y-54737000D01*
X30607000Y-54737000D01*
X30607000Y-56342250D01*
X30892750Y-56628000D01*
X31582357Y-56628000D01*
X32002457Y-56453989D01*
X32323989Y-56132458D01*
X32498000Y-55712357D01*
X32498000Y-55022750D01*
X32212250Y-54737000D01*
X30607000Y-54737000D01*
X30353000Y-54737000D01*
X28747750Y-54737000D01*
X28462000Y-55022750D01*
X26085000Y-55022750D01*
X26085000Y-53507643D01*
X28462000Y-53507643D01*
X28462000Y-54197250D01*
X28747750Y-54483000D01*
X30353000Y-54483000D01*
X30353000Y-54463000D01*
X30607000Y-54463000D01*
X30607000Y-54483000D01*
X32212250Y-54483000D01*
X32498000Y-54197250D01*
X32498000Y-53507643D01*
X32323989Y-53087542D01*
X32002457Y-52766011D01*
X31866064Y-52709515D01*
X31989738Y-52411675D01*
X31990262Y-51810960D01*
X31760862Y-51255771D01*
X31365000Y-50859217D01*
X31365000Y-47875000D01*
X43179995Y-47875000D01*
X43180000Y-47875001D01*
X43462484Y-47818810D01*
X43518675Y-47807633D01*
X43805790Y-47615790D01*
X43805791Y-47615789D01*
X45075787Y-46345792D01*
X45075790Y-46345790D01*
X51166579Y-40255000D01*
X56148420Y-40255000D01*
X56355980Y-40462560D01*
X55080000Y-40462560D01*
X54844683Y-40506838D01*
X54628559Y-40645910D01*
X54483569Y-40858110D01*
X54449773Y-41025000D01*
X53473398Y-41025000D01*
X53456894Y-40985057D01*
X52997363Y-40524722D01*
X52396648Y-40275284D01*
X51746205Y-40274716D01*
X51145057Y-40523106D01*
X50684722Y-40982637D01*
X50435284Y-41583352D01*
X50434716Y-42233795D01*
X50683106Y-42834943D01*
X51142637Y-43295278D01*
X51743352Y-43544716D01*
X52393795Y-43545284D01*
X52994943Y-43296894D01*
X53455278Y-42837363D01*
X53472869Y-42795000D01*
X54448554Y-42795000D01*
X54476838Y-42945317D01*
X54615910Y-43161441D01*
X54828110Y-43306431D01*
X54983089Y-43337815D01*
X54837189Y-43435302D01*
X54750527Y-43565000D01*
X49530000Y-43565000D01*
X49191325Y-43632367D01*
X48904210Y-43824210D01*
X48904208Y-43824213D01*
X47166438Y-45561983D01*
X46990000Y-45526887D01*
X46440849Y-45636120D01*
X45975302Y-45947189D01*
X45664233Y-46412736D01*
X45555000Y-46961887D01*
X45555000Y-47018113D01*
X45580767Y-47147654D01*
X41284210Y-51444210D01*
X41092367Y-51731325D01*
X41085669Y-51765000D01*
X41024999Y-52070000D01*
X41025000Y-52070005D01*
X41025000Y-52308868D01*
X40942652Y-52391072D01*
X40318912Y-51767332D01*
X40518043Y-51568548D01*
X40724764Y-51070709D01*
X40725235Y-50531656D01*
X40519383Y-50033457D01*
X40138548Y-49651957D01*
X39640709Y-49445236D01*
X39101656Y-49444765D01*
X38603457Y-49650617D01*
X38221957Y-50031452D01*
X38015236Y-50529291D01*
X38014765Y-51068344D01*
X38220617Y-51566543D01*
X38485000Y-51831388D01*
X38485000Y-52069995D01*
X38484999Y-52070000D01*
X38535080Y-52321767D01*
X38552367Y-52408675D01*
X38730318Y-52674999D01*
X38744210Y-52695790D01*
X40014208Y-53965787D01*
X40014210Y-53965790D01*
X40156477Y-54060849D01*
X40301325Y-54157633D01*
X40640000Y-54225001D01*
X40640005Y-54225000D01*
X40878868Y-54225000D01*
X41141452Y-54488043D01*
X41639291Y-54694764D01*
X42178344Y-54695235D01*
X42676543Y-54489383D01*
X43058043Y-54108548D01*
X43264764Y-53610709D01*
X43265235Y-53071656D01*
X43059383Y-52573457D01*
X42858928Y-52372652D01*
X46813562Y-48418017D01*
X46990000Y-48453113D01*
X47539151Y-48343880D01*
X48004698Y-48032811D01*
X48315767Y-47567264D01*
X48425000Y-47018113D01*
X48425000Y-46961887D01*
X48399233Y-46832347D01*
X49896579Y-45335000D01*
X54750527Y-45335000D01*
X54837189Y-45464698D01*
X55219275Y-45720000D01*
X54837189Y-45975302D01*
X54750527Y-46105000D01*
X53473398Y-46105000D01*
X53456894Y-46065057D01*
X52997363Y-45604722D01*
X52396648Y-45355284D01*
X51746205Y-45354716D01*
X51145057Y-45603106D01*
X50684722Y-46062637D01*
X50435284Y-46663352D01*
X50434716Y-47313795D01*
X50683106Y-47914943D01*
X51142637Y-48375278D01*
X51743352Y-48624716D01*
X52393795Y-48625284D01*
X52994943Y-48376894D01*
X53455278Y-47917363D01*
X53472869Y-47875000D01*
X54750527Y-47875000D01*
X54837189Y-48004698D01*
X55219275Y-48260000D01*
X54837189Y-48515302D01*
X54526120Y-48980849D01*
X54416887Y-49530000D01*
X54526120Y-50079151D01*
X54837189Y-50544698D01*
X55219275Y-50800000D01*
X54837189Y-51055302D01*
X54750527Y-51185000D01*
X48134171Y-51185000D01*
X47803923Y-50854176D01*
X47276691Y-50635250D01*
X46705813Y-50634752D01*
X46178200Y-50852757D01*
X45774176Y-51256077D01*
X45555250Y-51783309D01*
X45554840Y-52253581D01*
X42813420Y-54995000D01*
X40401132Y-54995000D01*
X40138548Y-54731957D01*
X39640709Y-54525236D01*
X39101656Y-54524765D01*
X38603457Y-54730617D01*
X38221957Y-55111452D01*
X38015236Y-55609291D01*
X38014765Y-56148344D01*
X38220617Y-56646543D01*
X38601452Y-57028043D01*
X39099291Y-57234764D01*
X39638344Y-57235235D01*
X40136543Y-57029383D01*
X40401388Y-56765000D01*
X43179995Y-56765000D01*
X43180000Y-56765001D01*
X43462484Y-56708810D01*
X43518675Y-56697633D01*
X43805790Y-56505790D01*
X46806739Y-53504840D01*
X47274187Y-53505248D01*
X47801800Y-53287243D01*
X48134623Y-52955000D01*
X54750527Y-52955000D01*
X54837189Y-53084698D01*
X55219275Y-53340000D01*
X54837189Y-53595302D01*
X54750527Y-53725000D01*
X53473398Y-53725000D01*
X53456894Y-53685057D01*
X52997363Y-53224722D01*
X52396648Y-52975284D01*
X51746205Y-52974716D01*
X51145057Y-53223106D01*
X50684722Y-53682637D01*
X50435284Y-54283352D01*
X50434716Y-54933795D01*
X50683106Y-55534943D01*
X51142637Y-55995278D01*
X51743352Y-56244716D01*
X52393795Y-56245284D01*
X52994943Y-55996894D01*
X53455278Y-55537363D01*
X53472869Y-55495000D01*
X54750527Y-55495000D01*
X54837189Y-55624698D01*
X55219275Y-55880000D01*
X54837189Y-56135302D01*
X54526120Y-56600849D01*
X54416887Y-57150000D01*
X54451983Y-57326438D01*
X53984210Y-57794210D01*
X53792367Y-58081325D01*
X53792367Y-58081326D01*
X53724999Y-58420000D01*
X53725000Y-58420005D01*
X53725000Y-63499995D01*
X53724999Y-63500000D01*
X53765504Y-63703628D01*
X53792367Y-63838675D01*
X53943132Y-64064312D01*
X53984210Y-64125790D01*
X55254208Y-65395787D01*
X55254210Y-65395790D01*
X55503714Y-65562502D01*
X55541325Y-65587633D01*
X55880000Y-65655001D01*
X55880005Y-65655000D01*
X70986602Y-65655000D01*
X71003106Y-65694943D01*
X71462637Y-66155278D01*
X72063352Y-66404716D01*
X72713795Y-66405284D01*
X73314943Y-66156894D01*
X73775278Y-65697363D01*
X74024716Y-65096648D01*
X74025284Y-64446205D01*
X73776894Y-63845057D01*
X73317363Y-63384722D01*
X72716648Y-63135284D01*
X72066205Y-63134716D01*
X71465057Y-63383106D01*
X71004722Y-63842637D01*
X70987131Y-63885000D01*
X56246579Y-63885000D01*
X55495000Y-63133420D01*
X55495000Y-58786580D01*
X55722347Y-58559233D01*
X55851887Y-58585000D01*
X55908113Y-58585000D01*
X56457264Y-58475767D01*
X56922811Y-58164698D01*
X57233880Y-57699151D01*
X57343113Y-57150000D01*
X57233880Y-56600849D01*
X56922811Y-56135302D01*
X56540725Y-55880000D01*
X56922811Y-55624698D01*
X57233880Y-55159151D01*
X57343113Y-54610000D01*
X57233880Y-54060849D01*
X56922811Y-53595302D01*
X56540725Y-53340000D01*
X56922811Y-53084698D01*
X57233880Y-52619151D01*
X57343113Y-52070000D01*
X57233880Y-51520849D01*
X56922811Y-51055302D01*
X56540725Y-50800000D01*
X56922811Y-50544698D01*
X57009473Y-50415000D01*
X58053420Y-50415000D01*
X59064208Y-51425787D01*
X59064210Y-51425790D01*
X59440000Y-51801579D01*
X59440000Y-61594995D01*
X59439999Y-61595000D01*
X59492712Y-61860000D01*
X59507367Y-61933675D01*
X59615372Y-62095317D01*
X59699210Y-62220790D01*
X60334208Y-62855787D01*
X60334210Y-62855790D01*
X60435649Y-62923569D01*
X60621326Y-63047634D01*
X60960000Y-63115001D01*
X60960005Y-63115000D01*
X68705829Y-63115000D01*
X69036077Y-63445824D01*
X69563309Y-63664750D01*
X70134187Y-63665248D01*
X70661800Y-63447243D01*
X71065824Y-63043923D01*
X71225766Y-62658740D01*
X73034886Y-62658740D01*
X73343215Y-63351333D01*
X73893117Y-63873213D01*
X74501261Y-64125107D01*
X74803000Y-63882377D01*
X74803000Y-62357000D01*
X75057000Y-62357000D01*
X75057000Y-63882377D01*
X75358739Y-64125107D01*
X75966883Y-63873213D01*
X76516785Y-63351333D01*
X76825114Y-62658740D01*
X76583102Y-62357000D01*
X75057000Y-62357000D01*
X74803000Y-62357000D01*
X73276898Y-62357000D01*
X73034886Y-62658740D01*
X71225766Y-62658740D01*
X71284750Y-62516691D01*
X71285248Y-61945813D01*
X71225520Y-61801260D01*
X73034886Y-61801260D01*
X73276898Y-62103000D01*
X74803000Y-62103000D01*
X74803000Y-60577623D01*
X75057000Y-60577623D01*
X75057000Y-62103000D01*
X76583102Y-62103000D01*
X76825114Y-61801260D01*
X76516785Y-61108667D01*
X75966883Y-60586787D01*
X75358739Y-60334893D01*
X75057000Y-60577623D01*
X74803000Y-60577623D01*
X74501261Y-60334893D01*
X73893117Y-60586787D01*
X73343215Y-61108667D01*
X73034886Y-61801260D01*
X71225520Y-61801260D01*
X71067243Y-61418200D01*
X70663923Y-61014176D01*
X70136691Y-60795250D01*
X69565813Y-60794752D01*
X69038200Y-61012757D01*
X68705377Y-61345000D01*
X61326579Y-61345000D01*
X61210000Y-61228420D01*
X61210000Y-51435005D01*
X61210001Y-51435000D01*
X61210000Y-51434995D01*
X61210000Y-49101261D01*
X61604893Y-49101261D01*
X61847623Y-49403000D01*
X63373000Y-49403000D01*
X63373000Y-49383000D01*
X63627000Y-49383000D01*
X63627000Y-49403000D01*
X63647000Y-49403000D01*
X63647000Y-49657000D01*
X63627000Y-49657000D01*
X63627000Y-49677000D01*
X63373000Y-49677000D01*
X63373000Y-49657000D01*
X61847623Y-49657000D01*
X61604893Y-49958739D01*
X61856787Y-50566883D01*
X62378667Y-51116785D01*
X62407524Y-51129631D01*
X62146120Y-51520849D01*
X62036887Y-52070000D01*
X62146120Y-52619151D01*
X62457189Y-53084698D01*
X62839275Y-53340000D01*
X62457189Y-53595302D01*
X62146120Y-54060849D01*
X62036887Y-54610000D01*
X62146120Y-55159151D01*
X62457189Y-55624698D01*
X62615000Y-55730144D01*
X62615000Y-56029856D01*
X62457189Y-56135302D01*
X62146120Y-56600849D01*
X62036887Y-57150000D01*
X62146120Y-57699151D01*
X62457189Y-58164698D01*
X62922736Y-58475767D01*
X63471887Y-58585000D01*
X63528113Y-58585000D01*
X64077264Y-58475767D01*
X64542811Y-58164698D01*
X64853880Y-57699151D01*
X64963113Y-57150000D01*
X64853880Y-56600849D01*
X64542811Y-56135302D01*
X64385000Y-56029856D01*
X64385000Y-55730144D01*
X64542811Y-55624698D01*
X64853880Y-55159151D01*
X64963113Y-54610000D01*
X64853880Y-54060849D01*
X64542811Y-53595302D01*
X64160725Y-53340000D01*
X64542811Y-53084698D01*
X64629473Y-52955000D01*
X64769995Y-52955000D01*
X64770000Y-52955001D01*
X64770005Y-52955000D01*
X68729856Y-52955000D01*
X68835302Y-53112811D01*
X69300849Y-53423880D01*
X69850000Y-53533113D01*
X70399151Y-53423880D01*
X70864698Y-53112811D01*
X70970144Y-52955000D01*
X73785829Y-52955000D01*
X74116077Y-53285824D01*
X74643309Y-53504750D01*
X75214187Y-53505248D01*
X75741800Y-53287243D01*
X76145824Y-52883923D01*
X76364750Y-52356691D01*
X76365248Y-51785813D01*
X76147243Y-51258200D01*
X75743923Y-50854176D01*
X75216691Y-50635250D01*
X74645813Y-50634752D01*
X74118200Y-50852757D01*
X73785377Y-51185000D01*
X70970144Y-51185000D01*
X70864698Y-51027189D01*
X70735000Y-50940527D01*
X70735000Y-49235203D01*
X71284402Y-49235203D01*
X71330699Y-49624068D01*
X72051971Y-49902014D01*
X72824706Y-49882784D01*
X73449301Y-49624068D01*
X73495598Y-49235203D01*
X72390000Y-48129605D01*
X71284402Y-49235203D01*
X70735000Y-49235203D01*
X70735000Y-49011571D01*
X71104797Y-49055598D01*
X72210395Y-47950000D01*
X72569605Y-47950000D01*
X73675203Y-49055598D01*
X74064068Y-49009301D01*
X74342014Y-48288029D01*
X74322784Y-47515294D01*
X74064068Y-46890699D01*
X73675203Y-46844402D01*
X72569605Y-47950000D01*
X72210395Y-47950000D01*
X71104797Y-46844402D01*
X70735000Y-46888429D01*
X70735000Y-46664797D01*
X71284402Y-46664797D01*
X72390000Y-47770395D01*
X73495598Y-46664797D01*
X73449301Y-46275932D01*
X72728029Y-45997986D01*
X71955294Y-46017216D01*
X71330699Y-46275932D01*
X71284402Y-46664797D01*
X70735000Y-46664797D01*
X70735000Y-46056580D01*
X71111904Y-45679675D01*
X71125910Y-45701441D01*
X71338110Y-45846431D01*
X71590000Y-45897440D01*
X73190000Y-45897440D01*
X73425317Y-45853162D01*
X73641441Y-45714090D01*
X73786431Y-45501890D01*
X73837440Y-45250000D01*
X73837440Y-43650000D01*
X73793162Y-43414683D01*
X73654090Y-43198559D01*
X73441890Y-43053569D01*
X73190000Y-43002560D01*
X71590000Y-43002560D01*
X71354683Y-43046838D01*
X71138559Y-43185910D01*
X70993569Y-43398110D01*
X70954307Y-43591991D01*
X70807516Y-43621190D01*
X70751325Y-43632367D01*
X70464210Y-43824210D01*
X70464208Y-43824213D01*
X69224210Y-45064210D01*
X69032367Y-45351325D01*
X69031580Y-45355284D01*
X68964999Y-45690000D01*
X68965000Y-45690005D01*
X68965000Y-50940527D01*
X68835302Y-51027189D01*
X68729856Y-51185000D01*
X65935001Y-51185000D01*
X65935001Y-48540001D01*
X65867634Y-48201326D01*
X65675791Y-47914211D01*
X65675788Y-47914209D01*
X64928017Y-47166438D01*
X64963113Y-46990000D01*
X64853880Y-46440849D01*
X64542811Y-45975302D01*
X64160725Y-45720000D01*
X64542811Y-45464698D01*
X64853880Y-44999151D01*
X64963113Y-44450000D01*
X64853880Y-43900849D01*
X64542811Y-43435302D01*
X64385000Y-43329856D01*
X64385000Y-43030144D01*
X64542811Y-42924698D01*
X64853880Y-42459151D01*
X64963113Y-41910000D01*
X64853880Y-41360849D01*
X64542811Y-40895302D01*
X64077264Y-40584233D01*
X63528113Y-40475000D01*
X63471887Y-40475000D01*
X62922736Y-40584233D01*
X62457189Y-40895302D01*
X62146120Y-41360849D01*
X62036887Y-41910000D01*
X62146120Y-42459151D01*
X62457189Y-42924698D01*
X62615000Y-43030144D01*
X62615000Y-43329856D01*
X62457189Y-43435302D01*
X62146120Y-43900849D01*
X62036887Y-44450000D01*
X62146120Y-44999151D01*
X62457189Y-45464698D01*
X62839275Y-45720000D01*
X62457189Y-45975302D01*
X62146120Y-46440849D01*
X62036887Y-46990000D01*
X62146120Y-47539151D01*
X62407524Y-47930369D01*
X62378667Y-47943215D01*
X61856787Y-48493117D01*
X61604893Y-49101261D01*
X61210000Y-49101261D01*
X61210000Y-41275005D01*
X61210001Y-41275000D01*
X61142633Y-40936325D01*
X61101445Y-40874683D01*
X60950790Y-40649210D01*
X60950787Y-40649208D01*
X57455375Y-37153795D01*
X77104716Y-37153795D01*
X77353106Y-37754943D01*
X77812637Y-38215278D01*
X77855000Y-38232869D01*
X77855000Y-63366602D01*
X77815057Y-63383106D01*
X77354722Y-63842637D01*
X77105284Y-64443352D01*
X77104716Y-65093795D01*
X77353106Y-65694943D01*
X77812637Y-66155278D01*
X78413352Y-66404716D01*
X79063795Y-66405284D01*
X79664943Y-66156894D01*
X80125278Y-65697363D01*
X80374716Y-65096648D01*
X80375284Y-64446205D01*
X80126894Y-63845057D01*
X79667363Y-63384722D01*
X79625000Y-63367131D01*
X79625000Y-38233398D01*
X79664943Y-38216894D01*
X80125278Y-37757363D01*
X80374716Y-37156648D01*
X80375284Y-36506205D01*
X80126894Y-35905057D01*
X79667363Y-35444722D01*
X79066648Y-35195284D01*
X78416205Y-35194716D01*
X77815057Y-35443106D01*
X77354722Y-35902637D01*
X77105284Y-36503352D01*
X77104716Y-37153795D01*
X57455375Y-37153795D01*
X56505790Y-36204210D01*
X56390127Y-36126927D01*
X56218675Y-36012367D01*
X56162484Y-36001190D01*
X55880000Y-35944999D01*
X55879995Y-35945000D01*
X51166579Y-35945000D01*
X50415000Y-35193420D01*
X50415000Y-32115000D01*
X85995000Y-32115000D01*
X85995000Y-37422761D01*
X85682760Y-37735000D01*
X85366427Y-37735000D01*
X85367440Y-37730000D01*
X85367440Y-35930000D01*
X85323162Y-35694683D01*
X85184090Y-35478559D01*
X84971890Y-35333569D01*
X84720000Y-35282560D01*
X84649814Y-35282560D01*
X84637633Y-35221325D01*
X84620233Y-35195284D01*
X84445790Y-34934210D01*
X84445787Y-34934208D01*
X83175790Y-33664210D01*
X82888675Y-33472367D01*
X82832484Y-33461190D01*
X82550000Y-33404999D01*
X82549995Y-33405000D01*
X53473398Y-33405000D01*
X53456894Y-33365057D01*
X52997363Y-32904722D01*
X52396648Y-32655284D01*
X51746205Y-32654716D01*
X51145057Y-32903106D01*
X50684722Y-33362637D01*
X50435284Y-33963352D01*
X50434716Y-34613795D01*
X50683106Y-35214943D01*
X51142637Y-35675278D01*
X51743352Y-35924716D01*
X52393795Y-35925284D01*
X52994943Y-35676894D01*
X53455278Y-35217363D01*
X53472869Y-35175000D01*
X82183420Y-35175000D01*
X82472071Y-35463650D01*
X82468559Y-35465910D01*
X82323569Y-35678110D01*
X82272560Y-35930000D01*
X82272560Y-36000186D01*
X82211325Y-36012367D01*
X81924210Y-36204210D01*
X81924208Y-36204213D01*
X80654210Y-37474210D01*
X80462367Y-37761325D01*
X80462367Y-37761326D01*
X80394999Y-38100000D01*
X80395000Y-38100005D01*
X80395000Y-59689995D01*
X80394999Y-59690000D01*
X80421790Y-59824683D01*
X80462367Y-60028675D01*
X80558571Y-60172655D01*
X80654210Y-60315790D01*
X81924208Y-61585787D01*
X81924210Y-61585790D01*
X82211325Y-61777633D01*
X82272560Y-61789814D01*
X82272560Y-61860000D01*
X82316838Y-62095317D01*
X82455910Y-62311441D01*
X82668110Y-62456431D01*
X82920000Y-62507440D01*
X84720000Y-62507440D01*
X84955317Y-62463162D01*
X85171441Y-62324090D01*
X85316431Y-62111890D01*
X85367440Y-61860000D01*
X85367440Y-60060000D01*
X85323162Y-59824683D01*
X85295458Y-59781630D01*
X85492224Y-59593689D01*
X85814085Y-58864415D01*
X85573306Y-58547000D01*
X83947000Y-58547000D01*
X83947000Y-58567000D01*
X83693000Y-58567000D01*
X83693000Y-58547000D01*
X83673000Y-58547000D01*
X83673000Y-58293000D01*
X83693000Y-58293000D01*
X83693000Y-58273000D01*
X83947000Y-58273000D01*
X83947000Y-58293000D01*
X85573306Y-58293000D01*
X85814085Y-57975585D01*
X85492224Y-57246311D01*
X85091452Y-56863512D01*
X85330543Y-56505687D01*
X85455000Y-55880000D01*
X85455000Y-51165000D01*
X89199146Y-51165000D01*
X89236838Y-51365317D01*
X89375910Y-51581441D01*
X89588110Y-51726431D01*
X89805000Y-51770352D01*
X89805000Y-63013156D01*
X89738559Y-63055910D01*
X89593569Y-63268110D01*
X89542560Y-63520000D01*
X89542560Y-66020000D01*
X89586838Y-66255317D01*
X89725910Y-66471441D01*
X89938110Y-66616431D01*
X90190000Y-66667440D01*
X92690000Y-66667440D01*
X92925317Y-66623162D01*
X93141441Y-66484090D01*
X93286431Y-66271890D01*
X93337440Y-66020000D01*
X93337440Y-63520000D01*
X93293162Y-63284683D01*
X93154090Y-63068559D01*
X93075000Y-63014519D01*
X93075000Y-51770854D01*
X93275317Y-51733162D01*
X93491441Y-51594090D01*
X93636431Y-51381890D01*
X93687440Y-51130000D01*
X93687440Y-49530000D01*
X94241214Y-49530000D01*
X94411343Y-50385297D01*
X94805000Y-50974447D01*
X94805000Y-63792129D01*
X94555328Y-64393405D01*
X94554674Y-65143305D01*
X94841043Y-65836372D01*
X95370839Y-66367093D01*
X96063405Y-66654672D01*
X96813305Y-66655326D01*
X96961539Y-66594077D01*
X100183538Y-66594077D01*
X100600069Y-67579965D01*
X101362176Y-68331407D01*
X102315924Y-68726456D01*
X102743000Y-68493966D01*
X102743000Y-66167000D01*
X102997000Y-66167000D01*
X102997000Y-68493966D01*
X103424076Y-68726456D01*
X104377824Y-68331407D01*
X105139931Y-67579965D01*
X105556462Y-66594077D01*
X105324314Y-66167000D01*
X102997000Y-66167000D01*
X102743000Y-66167000D01*
X100415686Y-66167000D01*
X100183538Y-66594077D01*
X96961539Y-66594077D01*
X97506372Y-66368957D01*
X98037093Y-65839161D01*
X98183770Y-65485923D01*
X100183538Y-65485923D01*
X100415686Y-65913000D01*
X102743000Y-65913000D01*
X102743000Y-63586034D01*
X102997000Y-63586034D01*
X102997000Y-65913000D01*
X105324314Y-65913000D01*
X105556462Y-65485923D01*
X105139931Y-64500035D01*
X104377824Y-63748593D01*
X103424076Y-63353544D01*
X102997000Y-63586034D01*
X102743000Y-63586034D01*
X102315924Y-63353544D01*
X101362176Y-63748593D01*
X100600069Y-64500035D01*
X100183538Y-65485923D01*
X98183770Y-65485923D01*
X98324672Y-65146595D01*
X98325326Y-64396695D01*
X98075000Y-63790859D01*
X98075000Y-51165000D01*
X100622560Y-51165000D01*
X100622560Y-52400000D01*
X100666838Y-52635317D01*
X100805910Y-52851441D01*
X101018110Y-52996431D01*
X101270000Y-53047440D01*
X104470000Y-53047440D01*
X104705317Y-53003162D01*
X104921441Y-52864090D01*
X105066431Y-52651890D01*
X105117440Y-52400000D01*
X105117440Y-51165000D01*
X106002760Y-51165000D01*
X107585000Y-52747239D01*
X107585000Y-63013156D01*
X107518559Y-63055910D01*
X107373569Y-63268110D01*
X107322560Y-63520000D01*
X107322560Y-66020000D01*
X107366838Y-66255317D01*
X107505910Y-66471441D01*
X107718110Y-66616431D01*
X107970000Y-66667440D01*
X110470000Y-66667440D01*
X110705317Y-66623162D01*
X110921441Y-66484090D01*
X111066431Y-66271890D01*
X111117440Y-66020000D01*
X111117440Y-65143305D01*
X112334674Y-65143305D01*
X112621043Y-65836372D01*
X113150839Y-66367093D01*
X113843405Y-66654672D01*
X114593305Y-66655326D01*
X114741539Y-66594077D01*
X117963538Y-66594077D01*
X118380069Y-67579965D01*
X119142176Y-68331407D01*
X120095924Y-68726456D01*
X120523000Y-68493966D01*
X120523000Y-66167000D01*
X120777000Y-66167000D01*
X120777000Y-68493966D01*
X121204076Y-68726456D01*
X122157824Y-68331407D01*
X122919931Y-67579965D01*
X123336462Y-66594077D01*
X123104314Y-66167000D01*
X120777000Y-66167000D01*
X120523000Y-66167000D01*
X118195686Y-66167000D01*
X117963538Y-66594077D01*
X114741539Y-66594077D01*
X115286372Y-66368957D01*
X115817093Y-65839161D01*
X115963770Y-65485923D01*
X117963538Y-65485923D01*
X118195686Y-65913000D01*
X120523000Y-65913000D01*
X120523000Y-63586034D01*
X120777000Y-63586034D01*
X120777000Y-65913000D01*
X123104314Y-65913000D01*
X123336462Y-65485923D01*
X122919931Y-64500035D01*
X122157824Y-63748593D01*
X121204076Y-63353544D01*
X120777000Y-63586034D01*
X120523000Y-63586034D01*
X120095924Y-63353544D01*
X119142176Y-63748593D01*
X118380069Y-64500035D01*
X117963538Y-65485923D01*
X115963770Y-65485923D01*
X116104672Y-65146595D01*
X116105326Y-64396695D01*
X115855000Y-63790859D01*
X115855000Y-52827240D01*
X117517239Y-51165000D01*
X118402560Y-51165000D01*
X118402560Y-52400000D01*
X118446838Y-52635317D01*
X118585910Y-52851441D01*
X118798110Y-52996431D01*
X119050000Y-53047440D01*
X122250000Y-53047440D01*
X122485317Y-53003162D01*
X122701441Y-52864090D01*
X122846431Y-52651890D01*
X122897440Y-52400000D01*
X122897440Y-51165000D01*
X125365000Y-51165000D01*
X125365000Y-63013156D01*
X125298559Y-63055910D01*
X125153569Y-63268110D01*
X125102560Y-63520000D01*
X125102560Y-66020000D01*
X125146838Y-66255317D01*
X125285910Y-66471441D01*
X125498110Y-66616431D01*
X125750000Y-66667440D01*
X128250000Y-66667440D01*
X128485317Y-66623162D01*
X128701441Y-66484090D01*
X128846431Y-66271890D01*
X128897440Y-66020000D01*
X128897440Y-63520000D01*
X128853162Y-63284683D01*
X128714090Y-63068559D01*
X128635000Y-63014519D01*
X128635000Y-51094176D01*
X129108657Y-50385297D01*
X129278786Y-49530000D01*
X129108657Y-48674703D01*
X128624170Y-47949616D01*
X127899083Y-47465129D01*
X127043786Y-47295000D01*
X126956214Y-47295000D01*
X126100917Y-47465129D01*
X125457569Y-47895000D01*
X122285000Y-47895000D01*
X122285000Y-47262431D01*
X122714871Y-46619083D01*
X122885000Y-45763786D01*
X122885000Y-45676214D01*
X122714871Y-44820917D01*
X122230384Y-44095830D01*
X121505297Y-43611343D01*
X120650000Y-43441214D01*
X119794703Y-43611343D01*
X119069616Y-44095830D01*
X118585129Y-44820917D01*
X118415000Y-45676214D01*
X118415000Y-45763786D01*
X118585129Y-46619083D01*
X119015000Y-47262431D01*
X119015000Y-47895000D01*
X116840005Y-47895000D01*
X116840000Y-47894999D01*
X116288511Y-48004698D01*
X116214313Y-48019457D01*
X115683880Y-48373880D01*
X115683878Y-48373883D01*
X113063880Y-50993880D01*
X112709457Y-51524312D01*
X112584999Y-52150000D01*
X112585000Y-52150005D01*
X112585000Y-63792129D01*
X112335328Y-64393405D01*
X112334674Y-65143305D01*
X111117440Y-65143305D01*
X111117440Y-63520000D01*
X111073162Y-63284683D01*
X110934090Y-63068559D01*
X110855000Y-63014519D01*
X110855000Y-52070000D01*
X110730543Y-51444313D01*
X110376120Y-50913880D01*
X110376117Y-50913878D01*
X107836120Y-48373880D01*
X107305688Y-48019457D01*
X106680000Y-47894999D01*
X106679995Y-47895000D01*
X104505000Y-47895000D01*
X104505000Y-47262431D01*
X104934871Y-46619083D01*
X105105000Y-45763786D01*
X105105000Y-45676214D01*
X104934871Y-44820917D01*
X104450384Y-44095830D01*
X103725297Y-43611343D01*
X102870000Y-43441214D01*
X102014703Y-43611343D01*
X101289616Y-44095830D01*
X100805129Y-44820917D01*
X100635000Y-45676214D01*
X100635000Y-45763786D01*
X100805129Y-46619083D01*
X101235000Y-47262431D01*
X101235000Y-47895000D01*
X98062431Y-47895000D01*
X97419083Y-47465129D01*
X96563786Y-47295000D01*
X96476214Y-47295000D01*
X95620917Y-47465129D01*
X94895830Y-47949616D01*
X94411343Y-48674703D01*
X94241214Y-49530000D01*
X93687440Y-49530000D01*
X93687440Y-47930000D01*
X93643162Y-47694683D01*
X93504090Y-47478559D01*
X93291890Y-47333569D01*
X93040000Y-47282560D01*
X89840000Y-47282560D01*
X89604683Y-47326838D01*
X89388559Y-47465910D01*
X89243569Y-47678110D01*
X89199648Y-47895000D01*
X85455000Y-47895000D01*
X85455000Y-41910000D01*
X85330543Y-41284313D01*
X85143913Y-41005000D01*
X86359995Y-41005000D01*
X86360000Y-41005001D01*
X86985688Y-40880543D01*
X87516120Y-40526120D01*
X88786117Y-39256122D01*
X88786120Y-39256120D01*
X89012289Y-38917633D01*
X89140543Y-38725688D01*
X89265000Y-38100000D01*
X89265000Y-34290000D01*
X93853000Y-34290000D01*
X93853000Y-41910000D01*
X93861685Y-41956159D01*
X93888965Y-41998553D01*
X93930590Y-42026994D01*
X93980000Y-42037000D01*
X129540000Y-42037000D01*
X129586159Y-42028315D01*
X129628553Y-42001035D01*
X129656994Y-41959410D01*
X129667000Y-41910000D01*
X129667000Y-34290000D01*
X129658315Y-34243841D01*
X129631035Y-34201447D01*
X129589410Y-34173006D01*
X129540000Y-34163000D01*
X93980000Y-34163000D01*
X93933841Y-34171685D01*
X93891447Y-34198965D01*
X93863006Y-34240590D01*
X93853000Y-34290000D01*
X89265000Y-34290000D01*
X89265000Y-32115000D01*
X100629146Y-32115000D01*
X100666838Y-32315317D01*
X100805910Y-32531441D01*
X101018110Y-32676431D01*
X101270000Y-32727440D01*
X104470000Y-32727440D01*
X104705317Y-32683162D01*
X104921441Y-32544090D01*
X105066431Y-32331890D01*
X105110352Y-32115000D01*
X118409146Y-32115000D01*
X118446838Y-32315317D01*
X118585910Y-32531441D01*
X118798110Y-32676431D01*
X119050000Y-32727440D01*
X122250000Y-32727440D01*
X122485317Y-32683162D01*
X122701441Y-32544090D01*
X122846431Y-32331890D01*
X122890352Y-32115000D01*
X134255000Y-32115000D01*
X134255000Y-38099995D01*
X134254999Y-38100000D01*
X134379457Y-38725688D01*
X134733880Y-39256120D01*
X136003878Y-40526117D01*
X136003880Y-40526120D01*
X136321851Y-40738581D01*
X136534312Y-40880543D01*
X137160000Y-41005000D01*
X138376087Y-41005000D01*
X138189457Y-41284313D01*
X138065000Y-41910000D01*
X138065000Y-47895000D01*
X134320854Y-47895000D01*
X134283162Y-47694683D01*
X134144090Y-47478559D01*
X133931890Y-47333569D01*
X133680000Y-47282560D01*
X130480000Y-47282560D01*
X130244683Y-47326838D01*
X130028559Y-47465910D01*
X129883569Y-47678110D01*
X129832560Y-47930000D01*
X129832560Y-51130000D01*
X129876838Y-51365317D01*
X130015910Y-51581441D01*
X130228110Y-51726431D01*
X130445000Y-51770352D01*
X130445000Y-63658819D01*
X130402907Y-63700839D01*
X130115328Y-64393405D01*
X130114674Y-65143305D01*
X130401043Y-65836372D01*
X130930839Y-66367093D01*
X131623405Y-66654672D01*
X132373305Y-66655326D01*
X133066372Y-66368957D01*
X133597093Y-65839161D01*
X133884672Y-65146595D01*
X133885326Y-64396695D01*
X133715000Y-63984474D01*
X133715000Y-51770854D01*
X133915317Y-51733162D01*
X134131441Y-51594090D01*
X134276431Y-51381890D01*
X134320352Y-51165000D01*
X138065000Y-51165000D01*
X138065000Y-55880000D01*
X138189457Y-56505687D01*
X138428548Y-56863512D01*
X138027776Y-57246311D01*
X137705915Y-57975585D01*
X137946694Y-58293000D01*
X139573000Y-58293000D01*
X139573000Y-58273000D01*
X139827000Y-58273000D01*
X139827000Y-58293000D01*
X139847000Y-58293000D01*
X139847000Y-58547000D01*
X139827000Y-58547000D01*
X139827000Y-58567000D01*
X139573000Y-58567000D01*
X139573000Y-58547000D01*
X137946694Y-58547000D01*
X137705915Y-58864415D01*
X138027776Y-59593689D01*
X138222799Y-59779966D01*
X138203569Y-59808110D01*
X138152560Y-60060000D01*
X138152560Y-61860000D01*
X138196838Y-62095317D01*
X138335910Y-62311441D01*
X138548110Y-62456431D01*
X138800000Y-62507440D01*
X140600000Y-62507440D01*
X140835317Y-62463162D01*
X141051441Y-62324090D01*
X141196431Y-62111890D01*
X141247440Y-61860000D01*
X141247440Y-61789813D01*
X141252484Y-61788810D01*
X141308675Y-61777633D01*
X141595790Y-61585790D01*
X141595791Y-61585789D01*
X142865787Y-60315792D01*
X142865790Y-60315790D01*
X143057633Y-60028675D01*
X143098210Y-59824683D01*
X143125001Y-59690000D01*
X143125000Y-59689995D01*
X143125000Y-52005203D01*
X144944402Y-52005203D01*
X144990699Y-52394068D01*
X145711971Y-52672014D01*
X146484706Y-52652784D01*
X147109301Y-52394068D01*
X147155598Y-52005203D01*
X146050000Y-50899605D01*
X144944402Y-52005203D01*
X143125000Y-52005203D01*
X143125000Y-50381971D01*
X144097986Y-50381971D01*
X144117216Y-51154706D01*
X144375932Y-51779301D01*
X144764797Y-51825598D01*
X145870395Y-50720000D01*
X146229605Y-50720000D01*
X147335203Y-51825598D01*
X147724068Y-51779301D01*
X147942391Y-51212750D01*
X151277000Y-51212750D01*
X151277000Y-52277357D01*
X151451011Y-52697458D01*
X151772543Y-53018989D01*
X152192643Y-53193000D01*
X153257250Y-53193000D01*
X153543000Y-52907250D01*
X153543000Y-50927000D01*
X153797000Y-50927000D01*
X153797000Y-52907250D01*
X154082750Y-53193000D01*
X155147357Y-53193000D01*
X155567457Y-53018989D01*
X155888989Y-52697458D01*
X156063000Y-52277357D01*
X156063000Y-51212750D01*
X155777250Y-50927000D01*
X153797000Y-50927000D01*
X153543000Y-50927000D01*
X151562750Y-50927000D01*
X151277000Y-51212750D01*
X147942391Y-51212750D01*
X148002014Y-51058029D01*
X147982784Y-50285294D01*
X147724068Y-49660699D01*
X147335203Y-49614402D01*
X146229605Y-50720000D01*
X145870395Y-50720000D01*
X144764797Y-49614402D01*
X144375932Y-49660699D01*
X144097986Y-50381971D01*
X143125000Y-50381971D01*
X143125000Y-49145000D01*
X144978904Y-49145000D01*
X144944402Y-49434797D01*
X146050000Y-50540395D01*
X147155598Y-49434797D01*
X147121096Y-49145000D01*
X151350582Y-49145000D01*
X151277000Y-49322643D01*
X151277000Y-50387250D01*
X151562750Y-50673000D01*
X153543000Y-50673000D01*
X153543000Y-50653000D01*
X153797000Y-50653000D01*
X153797000Y-50673000D01*
X155777250Y-50673000D01*
X156063000Y-50387250D01*
X156063000Y-49322643D01*
X155888989Y-48902542D01*
X155719013Y-48732567D01*
X156835787Y-47615792D01*
X156835790Y-47615790D01*
X157027633Y-47328675D01*
X157031240Y-47310543D01*
X157095001Y-46990000D01*
X157095000Y-46989995D01*
X157095000Y-40640005D01*
X157095001Y-40640000D01*
X157027633Y-40301325D01*
X157010043Y-40275000D01*
X156835790Y-40014210D01*
X156835787Y-40014208D01*
X144135790Y-27314210D01*
X143848675Y-27122367D01*
X143792484Y-27111190D01*
X143510000Y-27054999D01*
X143509995Y-27055000D01*
X80143398Y-27055000D01*
X80126894Y-27015057D01*
X79667363Y-26554722D01*
X79066648Y-26305284D01*
X78416205Y-26304716D01*
X77815057Y-26553106D01*
X77354722Y-27012637D01*
X77105284Y-27613352D01*
X77104716Y-28263795D01*
X77344866Y-28845000D01*
X39370000Y-28845000D01*
X38744313Y-28969457D01*
X38213880Y-29323880D01*
X37859457Y-29854313D01*
X37735000Y-30480000D01*
X37859457Y-31105687D01*
X38213880Y-31636120D01*
X38485000Y-31817276D01*
X38485000Y-38338868D01*
X38338612Y-38485000D01*
X31750005Y-38485000D01*
X31750000Y-38484999D01*
X31411325Y-38552367D01*
X31124210Y-38744210D01*
X31124208Y-38744213D01*
X30698231Y-39170189D01*
X30180960Y-39169738D01*
X29625771Y-39399138D01*
X29200630Y-39823537D01*
X28970262Y-40378325D01*
X28969738Y-40979040D01*
X29199138Y-41534229D01*
X29367717Y-41703103D01*
X29153559Y-41840910D01*
X29008569Y-42053110D01*
X28957560Y-42305000D01*
X28957560Y-44055000D01*
X29001838Y-44290317D01*
X29140910Y-44506441D01*
X29353110Y-44651431D01*
X29595000Y-44700415D01*
X29595000Y-50859855D01*
X29200630Y-51253537D01*
X28970262Y-51808325D01*
X28969738Y-52409040D01*
X29093899Y-52709531D01*
X28957543Y-52766011D01*
X28636011Y-53087542D01*
X28462000Y-53507643D01*
X26085000Y-53507643D01*
X26085000Y-32343738D01*
X26170435Y-32429173D01*
X26372108Y-32227500D01*
X26711054Y-32865570D01*
X28300200Y-33543611D01*
X30027856Y-33561899D01*
X31631001Y-32917651D01*
X31708946Y-32865570D01*
X32047893Y-32227498D01*
X29210000Y-29389605D01*
X29195858Y-29403748D01*
X29016253Y-29224143D01*
X29030395Y-29210000D01*
X29016253Y-29195858D01*
X29195858Y-29016253D01*
X29210000Y-29030395D01*
X29224143Y-29016253D01*
X29403748Y-29195858D01*
X29389605Y-29210000D01*
X32227498Y-32047893D01*
X32865570Y-31708946D01*
X33543611Y-30119800D01*
X33561899Y-28392144D01*
X32917651Y-26788999D01*
X32865570Y-26711054D01*
X32227500Y-26372108D01*
X32429173Y-26170435D01*
X32343738Y-26085000D01*
X154346262Y-26085000D01*
X154260827Y-26170435D01*
M02*
