G04 #@! TF.FileFunction,Copper,L1,Top,Signal*
%FSLAX46Y46*%
G04 Gerber Fmt 4.6, Leading zero omitted, Abs format (unit mm)*
G04 Created by KiCad (PCBNEW 4.0.7+dfsg1-1) date Mon May 14 00:45:41 2018*
%MOMM*%
%LPD*%
G01*
G04 APERTURE LIST*
%ADD10C,0.100000*%
%ADD11R,2.500000X2.500000*%
%ADD12C,2.500000*%
%ADD13R,1.600000X1.600000*%
%ADD14O,1.600000X1.600000*%
%ADD15C,1.600000*%
%ADD16R,1.800000X1.800000*%
%ADD17O,1.800000X1.800000*%
%ADD18C,1.440000*%
%ADD19R,1.750000X1.750000*%
%ADD20C,1.750000*%
%ADD21R,3.200000X3.200000*%
%ADD22O,3.200000X3.200000*%
%ADD23C,6.400000*%
%ADD24C,2.000000*%
%ADD25C,0.500000*%
%ADD26C,0.381000*%
G04 APERTURE END LIST*
D10*
D11*
X127000000Y-64770000D03*
D12*
X132000000Y-64770000D03*
D13*
X55880000Y-41910000D03*
D14*
X63500000Y-57150000D03*
X55880000Y-44450000D03*
X63500000Y-54610000D03*
X55880000Y-46990000D03*
X63500000Y-52070000D03*
X55880000Y-49530000D03*
X63500000Y-49530000D03*
X55880000Y-52070000D03*
X63500000Y-46990000D03*
X55880000Y-54610000D03*
X63500000Y-44450000D03*
X55880000Y-57150000D03*
X63500000Y-41910000D03*
D11*
X153670000Y-50800000D03*
D12*
X153670000Y-45800000D03*
D15*
X146050000Y-45720000D03*
X146050000Y-50720000D03*
D11*
X109220000Y-64770000D03*
D12*
X114220000Y-64770000D03*
D16*
X83820000Y-36830000D03*
D17*
X83820000Y-39370000D03*
X83820000Y-41910000D03*
D16*
X139700000Y-36830000D03*
D17*
X139700000Y-39370000D03*
X139700000Y-41910000D03*
D16*
X83820000Y-60960000D03*
D17*
X83820000Y-58420000D03*
X83820000Y-55880000D03*
D16*
X139700000Y-60960000D03*
D17*
X139700000Y-58420000D03*
X139700000Y-55880000D03*
D15*
X46990000Y-36830000D03*
D14*
X46990000Y-46990000D03*
D15*
X46990000Y-52070000D03*
D14*
X46990000Y-62230000D03*
D15*
X69850000Y-62230000D03*
D14*
X69850000Y-52070000D03*
D15*
X74930000Y-52070000D03*
D14*
X74930000Y-62230000D03*
D18*
X39370000Y-39370000D03*
X41910000Y-41910000D03*
X39370000Y-44450000D03*
X39370000Y-50800000D03*
X41910000Y-53340000D03*
X39370000Y-55880000D03*
D11*
X91440000Y-64770000D03*
D12*
X96440000Y-64770000D03*
D19*
X30480000Y-43180000D03*
D20*
X30480000Y-40680000D03*
D19*
X30480000Y-54610000D03*
D20*
X30480000Y-52110000D03*
D21*
X91440000Y-49530000D03*
D22*
X96520000Y-49530000D03*
D21*
X132080000Y-49530000D03*
D22*
X127000000Y-49530000D03*
D21*
X102870000Y-30480000D03*
D22*
X102870000Y-45720000D03*
D21*
X120650000Y-30480000D03*
D22*
X120650000Y-45720000D03*
D21*
X102870000Y-50800000D03*
D22*
X102870000Y-66040000D03*
D21*
X120650000Y-50800000D03*
D22*
X120650000Y-66040000D03*
D23*
X29210000Y-29210000D03*
X157480000Y-29210000D03*
X29210000Y-68580000D03*
X157480000Y-68580000D03*
D15*
X76200000Y-34290000D03*
D14*
X66040000Y-34290000D03*
D15*
X76200000Y-39370000D03*
D14*
X66040000Y-39370000D03*
D24*
X78740000Y-36830000D03*
X78740000Y-27940000D03*
X52070000Y-46990000D03*
X52070000Y-54610000D03*
X52070000Y-34290000D03*
X52070000Y-41910000D03*
X71120000Y-66040000D03*
X78740000Y-66040000D03*
D25*
X78740000Y-27940000D02*
X78740000Y-36830000D01*
X52070000Y-46990000D02*
X52070000Y-54610000D01*
X52070000Y-34290000D02*
X52070000Y-41910000D01*
X78740000Y-66040000D02*
X71120000Y-66040000D01*
D26*
G36*
X26568094Y-26478291D02*
X29210000Y-29120197D01*
X31851906Y-26478291D01*
X31625775Y-26148500D01*
X155064225Y-26148500D01*
X154838094Y-26478291D01*
X157480000Y-29120197D01*
X160121906Y-26478291D01*
X159895775Y-26148500D01*
X160541500Y-26148500D01*
X160541500Y-26794225D01*
X160211709Y-26568094D01*
X157569803Y-29210000D01*
X160211709Y-31851906D01*
X160541500Y-31625775D01*
X160541500Y-66164225D01*
X160211709Y-65938094D01*
X157569803Y-68580000D01*
X160211709Y-71221906D01*
X160541500Y-70995775D01*
X160541500Y-71641500D01*
X159895775Y-71641500D01*
X160121906Y-71311709D01*
X157480000Y-68669803D01*
X154838094Y-71311709D01*
X155064225Y-71641500D01*
X31625775Y-71641500D01*
X31851906Y-71311709D01*
X29210000Y-68669803D01*
X26568094Y-71311709D01*
X26794225Y-71641500D01*
X26148500Y-71641500D01*
X26148500Y-70995775D01*
X26478291Y-71221906D01*
X29120197Y-68580000D01*
X29299803Y-68580000D01*
X31941709Y-71221906D01*
X32462656Y-70864703D01*
X33089380Y-69446053D01*
X33093611Y-69264446D01*
X153564496Y-69264446D01*
X154124472Y-70710744D01*
X154227344Y-70864703D01*
X154748291Y-71221906D01*
X157390197Y-68580000D01*
X154748291Y-65938094D01*
X154227344Y-66295297D01*
X153600620Y-67713947D01*
X153564496Y-69264446D01*
X33093611Y-69264446D01*
X33125504Y-67895554D01*
X32565528Y-66449256D01*
X32516828Y-66376370D01*
X69421205Y-66376370D01*
X69679242Y-67000866D01*
X70156621Y-67479079D01*
X70780665Y-67738205D01*
X71456370Y-67738795D01*
X72080866Y-67480758D01*
X72559079Y-67003379D01*
X72565257Y-66988500D01*
X77294132Y-66988500D01*
X77299242Y-67000866D01*
X77776621Y-67479079D01*
X78400665Y-67738205D01*
X79076370Y-67738795D01*
X79700866Y-67480758D01*
X80179079Y-67003379D01*
X80438205Y-66379335D01*
X80438795Y-65703630D01*
X80180758Y-65079134D01*
X79703379Y-64600921D01*
X79079335Y-64341795D01*
X78403630Y-64341205D01*
X77779134Y-64599242D01*
X77300921Y-65076621D01*
X77294743Y-65091500D01*
X72565868Y-65091500D01*
X72560758Y-65079134D01*
X72083379Y-64600921D01*
X71459335Y-64341795D01*
X70783630Y-64341205D01*
X70159134Y-64599242D01*
X69680921Y-65076621D01*
X69421795Y-65700665D01*
X69421205Y-66376370D01*
X32516828Y-66376370D01*
X32462656Y-66295297D01*
X31941709Y-65938094D01*
X29299803Y-68580000D01*
X29120197Y-68580000D01*
X26478291Y-65938094D01*
X26148500Y-66164225D01*
X26148500Y-65848291D01*
X26568094Y-65848291D01*
X29210000Y-68490197D01*
X31851906Y-65848291D01*
X31494703Y-65327344D01*
X30076053Y-64700620D01*
X28525554Y-64664496D01*
X27079256Y-65224472D01*
X26925297Y-65327344D01*
X26568094Y-65848291D01*
X26148500Y-65848291D01*
X26148500Y-62526925D01*
X45521207Y-62526925D01*
X45746640Y-63066406D01*
X46161364Y-63478552D01*
X46693075Y-63698788D01*
X46926500Y-63552351D01*
X46926500Y-62293500D01*
X47053500Y-62293500D01*
X47053500Y-63552351D01*
X47286925Y-63698788D01*
X47818636Y-63478552D01*
X48233360Y-63066406D01*
X48458793Y-62526925D01*
X48458691Y-62526762D01*
X68351241Y-62526762D01*
X68578893Y-63077723D01*
X69000060Y-63499625D01*
X69550622Y-63728239D01*
X70146762Y-63728759D01*
X70697723Y-63501107D01*
X71119625Y-63079940D01*
X71348239Y-62529378D01*
X71348241Y-62526925D01*
X73461207Y-62526925D01*
X73686640Y-63066406D01*
X74101364Y-63478552D01*
X74633075Y-63698788D01*
X74866500Y-63552351D01*
X74866500Y-62293500D01*
X74993500Y-62293500D01*
X74993500Y-63552351D01*
X75226925Y-63698788D01*
X75658568Y-63520000D01*
X89477816Y-63520000D01*
X89477816Y-66020000D01*
X89526522Y-66278849D01*
X89679501Y-66516585D01*
X89912921Y-66676074D01*
X90190000Y-66732184D01*
X92690000Y-66732184D01*
X92948849Y-66683478D01*
X93186585Y-66530499D01*
X93346074Y-66297079D01*
X93402184Y-66020000D01*
X93402184Y-65155880D01*
X94491163Y-65155880D01*
X94787179Y-65872294D01*
X95334823Y-66420894D01*
X96050719Y-66718161D01*
X96825880Y-66718837D01*
X97447120Y-66462146D01*
X100610595Y-66462146D01*
X100944130Y-67294649D01*
X101570862Y-67936143D01*
X102395376Y-68288966D01*
X102447854Y-68299402D01*
X102806500Y-68162926D01*
X102806500Y-66103500D01*
X102933500Y-66103500D01*
X102933500Y-68162926D01*
X103292146Y-68299402D01*
X103344624Y-68288966D01*
X104169138Y-67936143D01*
X104795870Y-67294649D01*
X105129405Y-66462146D01*
X104993001Y-66103500D01*
X102933500Y-66103500D01*
X102806500Y-66103500D01*
X100746999Y-66103500D01*
X100610595Y-66462146D01*
X97447120Y-66462146D01*
X97542294Y-66422821D01*
X98090894Y-65875177D01*
X98197744Y-65617854D01*
X100610595Y-65617854D01*
X100746999Y-65976500D01*
X102806500Y-65976500D01*
X102806500Y-63917074D01*
X102933500Y-63917074D01*
X102933500Y-65976500D01*
X104993001Y-65976500D01*
X105129405Y-65617854D01*
X104795870Y-64785351D01*
X104169138Y-64143857D01*
X103344624Y-63791034D01*
X103292146Y-63780598D01*
X102933500Y-63917074D01*
X102806500Y-63917074D01*
X102447854Y-63780598D01*
X102395376Y-63791034D01*
X101570862Y-64143857D01*
X100944130Y-64785351D01*
X100610595Y-65617854D01*
X98197744Y-65617854D01*
X98388161Y-65159281D01*
X98388837Y-64384120D01*
X98092821Y-63667706D01*
X97945373Y-63520000D01*
X107257816Y-63520000D01*
X107257816Y-66020000D01*
X107306522Y-66278849D01*
X107459501Y-66516585D01*
X107692921Y-66676074D01*
X107970000Y-66732184D01*
X110470000Y-66732184D01*
X110728849Y-66683478D01*
X110966585Y-66530499D01*
X111126074Y-66297079D01*
X111182184Y-66020000D01*
X111182184Y-65155880D01*
X112271163Y-65155880D01*
X112567179Y-65872294D01*
X113114823Y-66420894D01*
X113830719Y-66718161D01*
X114605880Y-66718837D01*
X115227120Y-66462146D01*
X118390595Y-66462146D01*
X118724130Y-67294649D01*
X119350862Y-67936143D01*
X120175376Y-68288966D01*
X120227854Y-68299402D01*
X120586500Y-68162926D01*
X120586500Y-66103500D01*
X120713500Y-66103500D01*
X120713500Y-68162926D01*
X121072146Y-68299402D01*
X121124624Y-68288966D01*
X121949138Y-67936143D01*
X122575870Y-67294649D01*
X122909405Y-66462146D01*
X122773001Y-66103500D01*
X120713500Y-66103500D01*
X120586500Y-66103500D01*
X118526999Y-66103500D01*
X118390595Y-66462146D01*
X115227120Y-66462146D01*
X115322294Y-66422821D01*
X115870894Y-65875177D01*
X115977744Y-65617854D01*
X118390595Y-65617854D01*
X118526999Y-65976500D01*
X120586500Y-65976500D01*
X120586500Y-63917074D01*
X120713500Y-63917074D01*
X120713500Y-65976500D01*
X122773001Y-65976500D01*
X122909405Y-65617854D01*
X122575870Y-64785351D01*
X121949138Y-64143857D01*
X121124624Y-63791034D01*
X121072146Y-63780598D01*
X120713500Y-63917074D01*
X120586500Y-63917074D01*
X120227854Y-63780598D01*
X120175376Y-63791034D01*
X119350862Y-64143857D01*
X118724130Y-64785351D01*
X118390595Y-65617854D01*
X115977744Y-65617854D01*
X116168161Y-65159281D01*
X116168837Y-64384120D01*
X115872821Y-63667706D01*
X115725373Y-63520000D01*
X125037816Y-63520000D01*
X125037816Y-66020000D01*
X125086522Y-66278849D01*
X125239501Y-66516585D01*
X125472921Y-66676074D01*
X125750000Y-66732184D01*
X128250000Y-66732184D01*
X128508849Y-66683478D01*
X128746585Y-66530499D01*
X128906074Y-66297079D01*
X128962184Y-66020000D01*
X128962184Y-65155880D01*
X130051163Y-65155880D01*
X130347179Y-65872294D01*
X130894823Y-66420894D01*
X131610719Y-66718161D01*
X132385880Y-66718837D01*
X133102294Y-66422821D01*
X133650894Y-65875177D01*
X133662058Y-65848291D01*
X154838094Y-65848291D01*
X157480000Y-68490197D01*
X160121906Y-65848291D01*
X159764703Y-65327344D01*
X158346053Y-64700620D01*
X156795554Y-64664496D01*
X155349256Y-65224472D01*
X155195297Y-65327344D01*
X154838094Y-65848291D01*
X133662058Y-65848291D01*
X133948161Y-65159281D01*
X133948837Y-64384120D01*
X133652821Y-63667706D01*
X133105177Y-63119106D01*
X132389281Y-62821839D01*
X131614120Y-62821163D01*
X130897706Y-63117179D01*
X130349106Y-63664823D01*
X130051839Y-64380719D01*
X130051163Y-65155880D01*
X128962184Y-65155880D01*
X128962184Y-63520000D01*
X128913478Y-63261151D01*
X128760499Y-63023415D01*
X128527079Y-62863926D01*
X128250000Y-62807816D01*
X125750000Y-62807816D01*
X125491151Y-62856522D01*
X125253415Y-63009501D01*
X125093926Y-63242921D01*
X125037816Y-63520000D01*
X115725373Y-63520000D01*
X115325177Y-63119106D01*
X114609281Y-62821839D01*
X113834120Y-62821163D01*
X113117706Y-63117179D01*
X112569106Y-63664823D01*
X112271839Y-64380719D01*
X112271163Y-65155880D01*
X111182184Y-65155880D01*
X111182184Y-63520000D01*
X111133478Y-63261151D01*
X110980499Y-63023415D01*
X110747079Y-62863926D01*
X110470000Y-62807816D01*
X107970000Y-62807816D01*
X107711151Y-62856522D01*
X107473415Y-63009501D01*
X107313926Y-63242921D01*
X107257816Y-63520000D01*
X97945373Y-63520000D01*
X97545177Y-63119106D01*
X96829281Y-62821839D01*
X96054120Y-62821163D01*
X95337706Y-63117179D01*
X94789106Y-63664823D01*
X94491839Y-64380719D01*
X94491163Y-65155880D01*
X93402184Y-65155880D01*
X93402184Y-63520000D01*
X93353478Y-63261151D01*
X93200499Y-63023415D01*
X92967079Y-62863926D01*
X92690000Y-62807816D01*
X90190000Y-62807816D01*
X89931151Y-62856522D01*
X89693415Y-63009501D01*
X89533926Y-63242921D01*
X89477816Y-63520000D01*
X75658568Y-63520000D01*
X75758636Y-63478552D01*
X76173360Y-63066406D01*
X76398793Y-62526925D01*
X76252534Y-62293500D01*
X74993500Y-62293500D01*
X74866500Y-62293500D01*
X73607466Y-62293500D01*
X73461207Y-62526925D01*
X71348241Y-62526925D01*
X71348759Y-61933238D01*
X71348692Y-61933075D01*
X73461207Y-61933075D01*
X73607466Y-62166500D01*
X74866500Y-62166500D01*
X74866500Y-60907649D01*
X74993500Y-60907649D01*
X74993500Y-62166500D01*
X76252534Y-62166500D01*
X76398793Y-61933075D01*
X76173360Y-61393594D01*
X75758636Y-60981448D01*
X75226925Y-60761212D01*
X74993500Y-60907649D01*
X74866500Y-60907649D01*
X74633075Y-60761212D01*
X74101364Y-60981448D01*
X73686640Y-61393594D01*
X73461207Y-61933075D01*
X71348692Y-61933075D01*
X71121107Y-61382277D01*
X70699940Y-60960375D01*
X70149378Y-60731761D01*
X69553238Y-60731241D01*
X69002277Y-60958893D01*
X68580375Y-61380060D01*
X68351761Y-61930622D01*
X68351241Y-62526762D01*
X48458691Y-62526762D01*
X48312534Y-62293500D01*
X47053500Y-62293500D01*
X46926500Y-62293500D01*
X45667466Y-62293500D01*
X45521207Y-62526925D01*
X26148500Y-62526925D01*
X26148500Y-61933075D01*
X45521207Y-61933075D01*
X45667466Y-62166500D01*
X46926500Y-62166500D01*
X46926500Y-60907649D01*
X47053500Y-60907649D01*
X47053500Y-62166500D01*
X48312534Y-62166500D01*
X48458793Y-61933075D01*
X48233360Y-61393594D01*
X47818636Y-60981448D01*
X47286925Y-60761212D01*
X47053500Y-60907649D01*
X46926500Y-60907649D01*
X46693075Y-60761212D01*
X46161364Y-60981448D01*
X45746640Y-61393594D01*
X45521207Y-61933075D01*
X26148500Y-61933075D01*
X26148500Y-60060000D01*
X82207816Y-60060000D01*
X82207816Y-61860000D01*
X82256522Y-62118849D01*
X82409501Y-62356585D01*
X82642921Y-62516074D01*
X82920000Y-62572184D01*
X84720000Y-62572184D01*
X84978849Y-62523478D01*
X85216585Y-62370499D01*
X85376074Y-62137079D01*
X85432184Y-61860000D01*
X85432184Y-60060000D01*
X138087816Y-60060000D01*
X138087816Y-61860000D01*
X138136522Y-62118849D01*
X138289501Y-62356585D01*
X138522921Y-62516074D01*
X138800000Y-62572184D01*
X140600000Y-62572184D01*
X140858849Y-62523478D01*
X141096585Y-62370499D01*
X141256074Y-62137079D01*
X141312184Y-61860000D01*
X141312184Y-60060000D01*
X141263478Y-59801151D01*
X141110499Y-59563415D01*
X140910514Y-59426771D01*
X141028695Y-59308700D01*
X141267645Y-58732582D01*
X141122618Y-58483500D01*
X139763500Y-58483500D01*
X139763500Y-58503500D01*
X139636500Y-58503500D01*
X139636500Y-58483500D01*
X138277382Y-58483500D01*
X138132355Y-58732582D01*
X138371305Y-59308700D01*
X138491310Y-59428594D01*
X138303415Y-59549501D01*
X138143926Y-59782921D01*
X138087816Y-60060000D01*
X85432184Y-60060000D01*
X85383478Y-59801151D01*
X85230499Y-59563415D01*
X85030514Y-59426771D01*
X85148695Y-59308700D01*
X85387645Y-58732582D01*
X85242618Y-58483500D01*
X83883500Y-58483500D01*
X83883500Y-58503500D01*
X83756500Y-58503500D01*
X83756500Y-58483500D01*
X82397382Y-58483500D01*
X82252355Y-58732582D01*
X82491305Y-59308700D01*
X82611310Y-59428594D01*
X82423415Y-59549501D01*
X82263926Y-59782921D01*
X82207816Y-60060000D01*
X26148500Y-60060000D01*
X26148500Y-54848125D01*
X28906500Y-54848125D01*
X28906500Y-55623940D01*
X29012840Y-55880668D01*
X29209331Y-56077160D01*
X29466059Y-56183500D01*
X30241875Y-56183500D01*
X30416500Y-56008875D01*
X30416500Y-54673500D01*
X30543500Y-54673500D01*
X30543500Y-56008875D01*
X30718125Y-56183500D01*
X31493941Y-56183500D01*
X31548456Y-56160919D01*
X37951254Y-56160919D01*
X38166753Y-56682466D01*
X38565435Y-57081845D01*
X39086605Y-57298253D01*
X39650919Y-57298746D01*
X40172466Y-57083247D01*
X40571845Y-56684565D01*
X40788253Y-56163395D01*
X40788746Y-55599081D01*
X40573247Y-55077534D01*
X40174565Y-54678155D01*
X39653395Y-54461747D01*
X39089081Y-54461254D01*
X38567534Y-54676753D01*
X38168155Y-55075435D01*
X37951747Y-55596605D01*
X37951254Y-56160919D01*
X31548456Y-56160919D01*
X31750669Y-56077160D01*
X31947160Y-55880668D01*
X32053500Y-55623940D01*
X32053500Y-54848125D01*
X31878875Y-54673500D01*
X30543500Y-54673500D01*
X30416500Y-54673500D01*
X29081125Y-54673500D01*
X28906500Y-54848125D01*
X26148500Y-54848125D01*
X26148500Y-52421615D01*
X28906227Y-52421615D01*
X29145274Y-53000152D01*
X29264784Y-53119871D01*
X29209331Y-53142840D01*
X29012840Y-53339332D01*
X28906500Y-53596060D01*
X28906500Y-54371875D01*
X29081125Y-54546500D01*
X30416500Y-54546500D01*
X30416500Y-54526500D01*
X30543500Y-54526500D01*
X30543500Y-54546500D01*
X31878875Y-54546500D01*
X32053500Y-54371875D01*
X32053500Y-53620919D01*
X40491254Y-53620919D01*
X40706753Y-54142466D01*
X41105435Y-54541845D01*
X41626605Y-54758253D01*
X42190919Y-54758746D01*
X42712466Y-54543247D01*
X43111845Y-54144565D01*
X43328253Y-53623395D01*
X43328746Y-53059081D01*
X43113247Y-52537534D01*
X42942774Y-52366762D01*
X45491241Y-52366762D01*
X45718893Y-52917723D01*
X46140060Y-53339625D01*
X46690622Y-53568239D01*
X47286762Y-53568759D01*
X47837723Y-53341107D01*
X48259625Y-52919940D01*
X48488239Y-52369378D01*
X48488759Y-51773238D01*
X48261107Y-51222277D01*
X47839940Y-50800375D01*
X47289378Y-50571761D01*
X46693238Y-50571241D01*
X46142277Y-50798893D01*
X45720375Y-51220060D01*
X45491761Y-51770622D01*
X45491241Y-52366762D01*
X42942774Y-52366762D01*
X42714565Y-52138155D01*
X42193395Y-51921747D01*
X41629081Y-51921254D01*
X41107534Y-52136753D01*
X40708155Y-52535435D01*
X40491747Y-53056605D01*
X40491254Y-53620919D01*
X32053500Y-53620919D01*
X32053500Y-53596060D01*
X31947160Y-53339332D01*
X31750669Y-53142840D01*
X31695470Y-53119976D01*
X31813171Y-53002480D01*
X32053227Y-52424362D01*
X32053773Y-51798385D01*
X31814726Y-51219848D01*
X31676040Y-51080919D01*
X37951254Y-51080919D01*
X38166753Y-51602466D01*
X38565435Y-52001845D01*
X39086605Y-52218253D01*
X39650919Y-52218746D01*
X40172466Y-52003247D01*
X40571845Y-51604565D01*
X40788253Y-51083395D01*
X40788746Y-50519081D01*
X40573247Y-49997534D01*
X40174565Y-49598155D01*
X39653395Y-49381747D01*
X39089081Y-49381254D01*
X38567534Y-49596753D01*
X38168155Y-49995435D01*
X37951747Y-50516605D01*
X37951254Y-51080919D01*
X31676040Y-51080919D01*
X31372480Y-50776829D01*
X30794362Y-50536773D01*
X30168385Y-50536227D01*
X29589848Y-50775274D01*
X29146829Y-51217520D01*
X28906773Y-51795638D01*
X28906227Y-52421615D01*
X26148500Y-52421615D01*
X26148500Y-46960643D01*
X45491500Y-46960643D01*
X45491500Y-47019357D01*
X45605567Y-47592808D01*
X45930400Y-48078957D01*
X46416549Y-48403790D01*
X46990000Y-48517857D01*
X47563451Y-48403790D01*
X48049600Y-48078957D01*
X48374433Y-47592808D01*
X48427431Y-47326370D01*
X50371205Y-47326370D01*
X50629242Y-47950866D01*
X51106621Y-48429079D01*
X51121500Y-48435257D01*
X51121500Y-53164132D01*
X51109134Y-53169242D01*
X50630921Y-53646621D01*
X50371795Y-54270665D01*
X50371205Y-54946370D01*
X50629242Y-55570866D01*
X51106621Y-56049079D01*
X51730665Y-56308205D01*
X52406370Y-56308795D01*
X53030866Y-56050758D01*
X53509079Y-55573379D01*
X53768205Y-54949335D01*
X53768795Y-54273630D01*
X53510758Y-53649134D01*
X53033379Y-53170921D01*
X53018500Y-53164743D01*
X53018500Y-48435868D01*
X53030866Y-48430758D01*
X53509079Y-47953379D01*
X53768205Y-47329335D01*
X53768795Y-46653630D01*
X53510758Y-46029134D01*
X53033379Y-45550921D01*
X52409335Y-45291795D01*
X51733630Y-45291205D01*
X51109134Y-45549242D01*
X50630921Y-46026621D01*
X50371795Y-46650665D01*
X50371205Y-47326370D01*
X48427431Y-47326370D01*
X48488500Y-47019357D01*
X48488500Y-46960643D01*
X48374433Y-46387192D01*
X48049600Y-45901043D01*
X47563451Y-45576210D01*
X46990000Y-45462143D01*
X46416549Y-45576210D01*
X45930400Y-45901043D01*
X45605567Y-46387192D01*
X45491500Y-46960643D01*
X26148500Y-46960643D01*
X26148500Y-42305000D01*
X28892816Y-42305000D01*
X28892816Y-44055000D01*
X28941522Y-44313849D01*
X29094501Y-44551585D01*
X29327921Y-44711074D01*
X29605000Y-44767184D01*
X31355000Y-44767184D01*
X31547731Y-44730919D01*
X37951254Y-44730919D01*
X38166753Y-45252466D01*
X38565435Y-45651845D01*
X39086605Y-45868253D01*
X39650919Y-45868746D01*
X40172466Y-45653247D01*
X40571845Y-45254565D01*
X40788253Y-44733395D01*
X40788500Y-44450000D01*
X54352143Y-44450000D01*
X54466210Y-45023451D01*
X54791043Y-45509600D01*
X55105930Y-45720000D01*
X54791043Y-45930400D01*
X54466210Y-46416549D01*
X54352143Y-46990000D01*
X54466210Y-47563451D01*
X54791043Y-48049600D01*
X55105930Y-48260000D01*
X54791043Y-48470400D01*
X54466210Y-48956549D01*
X54352143Y-49530000D01*
X54466210Y-50103451D01*
X54791043Y-50589600D01*
X55105930Y-50800000D01*
X54791043Y-51010400D01*
X54466210Y-51496549D01*
X54352143Y-52070000D01*
X54466210Y-52643451D01*
X54791043Y-53129600D01*
X55105930Y-53340000D01*
X54791043Y-53550400D01*
X54466210Y-54036549D01*
X54352143Y-54610000D01*
X54466210Y-55183451D01*
X54791043Y-55669600D01*
X55105930Y-55880000D01*
X54791043Y-56090400D01*
X54466210Y-56576549D01*
X54352143Y-57150000D01*
X54466210Y-57723451D01*
X54791043Y-58209600D01*
X55277192Y-58534433D01*
X55850643Y-58648500D01*
X55909357Y-58648500D01*
X56482808Y-58534433D01*
X56968957Y-58209600D01*
X57293790Y-57723451D01*
X57407857Y-57150000D01*
X57293790Y-56576549D01*
X56968957Y-56090400D01*
X56654070Y-55880000D01*
X56968957Y-55669600D01*
X57293790Y-55183451D01*
X57407857Y-54610000D01*
X57293790Y-54036549D01*
X56968957Y-53550400D01*
X56654070Y-53340000D01*
X56968957Y-53129600D01*
X57293790Y-52643451D01*
X57407857Y-52070000D01*
X61972143Y-52070000D01*
X62086210Y-52643451D01*
X62411043Y-53129600D01*
X62725930Y-53340000D01*
X62411043Y-53550400D01*
X62086210Y-54036549D01*
X61972143Y-54610000D01*
X62086210Y-55183451D01*
X62411043Y-55669600D01*
X62725930Y-55880000D01*
X62411043Y-56090400D01*
X62086210Y-56576549D01*
X61972143Y-57150000D01*
X62086210Y-57723451D01*
X62411043Y-58209600D01*
X62897192Y-58534433D01*
X63470643Y-58648500D01*
X63529357Y-58648500D01*
X64102808Y-58534433D01*
X64588957Y-58209600D01*
X64913790Y-57723451D01*
X65027857Y-57150000D01*
X64913790Y-56576549D01*
X64588957Y-56090400D01*
X64274070Y-55880000D01*
X64320937Y-55848684D01*
X82221500Y-55848684D01*
X82221500Y-55911316D01*
X82343179Y-56523035D01*
X82689690Y-57041626D01*
X82864513Y-57158439D01*
X82491305Y-57531300D01*
X82252355Y-58107418D01*
X82397382Y-58356500D01*
X83756500Y-58356500D01*
X83756500Y-58336500D01*
X83883500Y-58336500D01*
X83883500Y-58356500D01*
X85242618Y-58356500D01*
X85387645Y-58107418D01*
X85148695Y-57531300D01*
X84775487Y-57158439D01*
X84950310Y-57041626D01*
X85296821Y-56523035D01*
X85418500Y-55911316D01*
X85418500Y-55848684D01*
X138101500Y-55848684D01*
X138101500Y-55911316D01*
X138223179Y-56523035D01*
X138569690Y-57041626D01*
X138744513Y-57158439D01*
X138371305Y-57531300D01*
X138132355Y-58107418D01*
X138277382Y-58356500D01*
X139636500Y-58356500D01*
X139636500Y-58336500D01*
X139763500Y-58336500D01*
X139763500Y-58356500D01*
X141122618Y-58356500D01*
X141267645Y-58107418D01*
X141028695Y-57531300D01*
X140655487Y-57158439D01*
X140830310Y-57041626D01*
X141176821Y-56523035D01*
X141298500Y-55911316D01*
X141298500Y-55848684D01*
X141176821Y-55236965D01*
X140830310Y-54718374D01*
X140311719Y-54371863D01*
X139700000Y-54250184D01*
X139088281Y-54371863D01*
X138569690Y-54718374D01*
X138223179Y-55236965D01*
X138101500Y-55848684D01*
X85418500Y-55848684D01*
X85296821Y-55236965D01*
X84950310Y-54718374D01*
X84431719Y-54371863D01*
X83820000Y-54250184D01*
X83208281Y-54371863D01*
X82689690Y-54718374D01*
X82343179Y-55236965D01*
X82221500Y-55848684D01*
X64320937Y-55848684D01*
X64588957Y-55669600D01*
X64913790Y-55183451D01*
X65027857Y-54610000D01*
X64913790Y-54036549D01*
X64588957Y-53550400D01*
X64274070Y-53340000D01*
X64588957Y-53129600D01*
X64913790Y-52643451D01*
X65027857Y-52070000D01*
X65022018Y-52040643D01*
X68351500Y-52040643D01*
X68351500Y-52099357D01*
X68465567Y-52672808D01*
X68790400Y-53158957D01*
X69276549Y-53483790D01*
X69850000Y-53597857D01*
X70423451Y-53483790D01*
X70909600Y-53158957D01*
X71234433Y-52672808D01*
X71295309Y-52366762D01*
X73431241Y-52366762D01*
X73658893Y-52917723D01*
X74080060Y-53339625D01*
X74630622Y-53568239D01*
X75226762Y-53568759D01*
X75777723Y-53341107D01*
X76199625Y-52919940D01*
X76428239Y-52369378D01*
X76428759Y-51773238D01*
X76201107Y-51222277D01*
X75779940Y-50800375D01*
X75229378Y-50571761D01*
X74633238Y-50571241D01*
X74082277Y-50798893D01*
X73660375Y-51220060D01*
X73431761Y-51770622D01*
X73431241Y-52366762D01*
X71295309Y-52366762D01*
X71348500Y-52099357D01*
X71348500Y-52040643D01*
X71234433Y-51467192D01*
X70909600Y-50981043D01*
X70423451Y-50656210D01*
X69850000Y-50542143D01*
X69276549Y-50656210D01*
X68790400Y-50981043D01*
X68465567Y-51467192D01*
X68351500Y-52040643D01*
X65022018Y-52040643D01*
X64913790Y-51496549D01*
X64588957Y-51010400D01*
X64273525Y-50799636D01*
X64336406Y-50773360D01*
X64748552Y-50358636D01*
X64968788Y-49826925D01*
X64822351Y-49593500D01*
X63563500Y-49593500D01*
X63563500Y-49613500D01*
X63436500Y-49613500D01*
X63436500Y-49593500D01*
X62177649Y-49593500D01*
X62031212Y-49826925D01*
X62251448Y-50358636D01*
X62663594Y-50773360D01*
X62726475Y-50799636D01*
X62411043Y-51010400D01*
X62086210Y-51496549D01*
X61972143Y-52070000D01*
X57407857Y-52070000D01*
X57293790Y-51496549D01*
X56968957Y-51010400D01*
X56654070Y-50800000D01*
X56968957Y-50589600D01*
X57293790Y-50103451D01*
X57407857Y-49530000D01*
X57293790Y-48956549D01*
X56968957Y-48470400D01*
X56654070Y-48260000D01*
X56968957Y-48049600D01*
X57293790Y-47563451D01*
X57407857Y-46990000D01*
X57293790Y-46416549D01*
X56968957Y-45930400D01*
X56654070Y-45720000D01*
X56968957Y-45509600D01*
X57293790Y-45023451D01*
X57407857Y-44450000D01*
X57293790Y-43876549D01*
X56968957Y-43390400D01*
X56941285Y-43371910D01*
X57176585Y-43220499D01*
X57336074Y-42987079D01*
X57392184Y-42710000D01*
X57392184Y-41910000D01*
X61972143Y-41910000D01*
X62086210Y-42483451D01*
X62411043Y-42969600D01*
X62725930Y-43180000D01*
X62411043Y-43390400D01*
X62086210Y-43876549D01*
X61972143Y-44450000D01*
X62086210Y-45023451D01*
X62411043Y-45509600D01*
X62725930Y-45720000D01*
X62411043Y-45930400D01*
X62086210Y-46416549D01*
X61972143Y-46990000D01*
X62086210Y-47563451D01*
X62411043Y-48049600D01*
X62726475Y-48260364D01*
X62663594Y-48286640D01*
X62251448Y-48701364D01*
X62031212Y-49233075D01*
X62177649Y-49466500D01*
X63436500Y-49466500D01*
X63436500Y-49446500D01*
X63563500Y-49446500D01*
X63563500Y-49466500D01*
X64822351Y-49466500D01*
X64968788Y-49233075D01*
X64748552Y-48701364D01*
X64336406Y-48286640D01*
X64273525Y-48260364D01*
X64588957Y-48049600D01*
X64668870Y-47930000D01*
X89127816Y-47930000D01*
X89127816Y-51130000D01*
X89176522Y-51388849D01*
X89329501Y-51626585D01*
X89562921Y-51786074D01*
X89840000Y-51842184D01*
X93040000Y-51842184D01*
X93298849Y-51793478D01*
X93536585Y-51640499D01*
X93696074Y-51407079D01*
X93752184Y-51130000D01*
X93752184Y-49530000D01*
X94176470Y-49530000D01*
X94351433Y-50409598D01*
X94849685Y-51155285D01*
X95595372Y-51653537D01*
X96474970Y-51828500D01*
X96565030Y-51828500D01*
X97444628Y-51653537D01*
X98190315Y-51155285D01*
X98688567Y-50409598D01*
X98863530Y-49530000D01*
X98797889Y-49200000D01*
X100557816Y-49200000D01*
X100557816Y-52400000D01*
X100606522Y-52658849D01*
X100759501Y-52896585D01*
X100992921Y-53056074D01*
X101270000Y-53112184D01*
X104470000Y-53112184D01*
X104728849Y-53063478D01*
X104966585Y-52910499D01*
X105126074Y-52677079D01*
X105182184Y-52400000D01*
X105182184Y-49200000D01*
X118337816Y-49200000D01*
X118337816Y-52400000D01*
X118386522Y-52658849D01*
X118539501Y-52896585D01*
X118772921Y-53056074D01*
X119050000Y-53112184D01*
X122250000Y-53112184D01*
X122508849Y-53063478D01*
X122746585Y-52910499D01*
X122906074Y-52677079D01*
X122962184Y-52400000D01*
X122962184Y-49530000D01*
X124656470Y-49530000D01*
X124831433Y-50409598D01*
X125329685Y-51155285D01*
X126075372Y-51653537D01*
X126954970Y-51828500D01*
X127045030Y-51828500D01*
X127924628Y-51653537D01*
X128670315Y-51155285D01*
X129168567Y-50409598D01*
X129343530Y-49530000D01*
X129168567Y-48650402D01*
X128687210Y-47930000D01*
X129767816Y-47930000D01*
X129767816Y-51130000D01*
X129816522Y-51388849D01*
X129969501Y-51626585D01*
X130202921Y-51786074D01*
X130480000Y-51842184D01*
X133680000Y-51842184D01*
X133938849Y-51793478D01*
X134051907Y-51720727D01*
X145139076Y-51720727D01*
X145204097Y-51992318D01*
X145755383Y-52219182D01*
X146351522Y-52217809D01*
X146895903Y-51992318D01*
X146960924Y-51720727D01*
X146050000Y-50809803D01*
X145139076Y-51720727D01*
X134051907Y-51720727D01*
X134176585Y-51640499D01*
X134336074Y-51407079D01*
X134392184Y-51130000D01*
X134392184Y-50425383D01*
X144550818Y-50425383D01*
X144552191Y-51021522D01*
X144777682Y-51565903D01*
X145049273Y-51630924D01*
X145960197Y-50720000D01*
X146139803Y-50720000D01*
X147050727Y-51630924D01*
X147322318Y-51565903D01*
X147539508Y-51038125D01*
X151721500Y-51038125D01*
X151721500Y-52188940D01*
X151827840Y-52445668D01*
X152024331Y-52642160D01*
X152281059Y-52748500D01*
X153431875Y-52748500D01*
X153606500Y-52573875D01*
X153606500Y-50863500D01*
X153733500Y-50863500D01*
X153733500Y-52573875D01*
X153908125Y-52748500D01*
X155058941Y-52748500D01*
X155315669Y-52642160D01*
X155512160Y-52445668D01*
X155618500Y-52188940D01*
X155618500Y-51038125D01*
X155443875Y-50863500D01*
X153733500Y-50863500D01*
X153606500Y-50863500D01*
X151896125Y-50863500D01*
X151721500Y-51038125D01*
X147539508Y-51038125D01*
X147549182Y-51014617D01*
X147547809Y-50418478D01*
X147322318Y-49874097D01*
X147050727Y-49809076D01*
X146139803Y-50720000D01*
X145960197Y-50720000D01*
X145049273Y-49809076D01*
X144777682Y-49874097D01*
X144550818Y-50425383D01*
X134392184Y-50425383D01*
X134392184Y-49719273D01*
X145139076Y-49719273D01*
X146050000Y-50630197D01*
X146960924Y-49719273D01*
X146895903Y-49447682D01*
X146806911Y-49411060D01*
X151721500Y-49411060D01*
X151721500Y-50561875D01*
X151896125Y-50736500D01*
X153606500Y-50736500D01*
X153606500Y-49026125D01*
X153733500Y-49026125D01*
X153733500Y-50736500D01*
X155443875Y-50736500D01*
X155618500Y-50561875D01*
X155618500Y-49411060D01*
X155512160Y-49154332D01*
X155315669Y-48957840D01*
X155058941Y-48851500D01*
X153908125Y-48851500D01*
X153733500Y-49026125D01*
X153606500Y-49026125D01*
X153431875Y-48851500D01*
X152281059Y-48851500D01*
X152024331Y-48957840D01*
X151827840Y-49154332D01*
X151721500Y-49411060D01*
X146806911Y-49411060D01*
X146344617Y-49220818D01*
X145748478Y-49222191D01*
X145204097Y-49447682D01*
X145139076Y-49719273D01*
X134392184Y-49719273D01*
X134392184Y-47930000D01*
X134343478Y-47671151D01*
X134190499Y-47433415D01*
X133957079Y-47273926D01*
X133680000Y-47217816D01*
X130480000Y-47217816D01*
X130221151Y-47266522D01*
X129983415Y-47419501D01*
X129823926Y-47652921D01*
X129767816Y-47930000D01*
X128687210Y-47930000D01*
X128670315Y-47904715D01*
X127924628Y-47406463D01*
X127045030Y-47231500D01*
X126954970Y-47231500D01*
X126075372Y-47406463D01*
X125329685Y-47904715D01*
X124831433Y-48650402D01*
X124656470Y-49530000D01*
X122962184Y-49530000D01*
X122962184Y-49200000D01*
X122913478Y-48941151D01*
X122760499Y-48703415D01*
X122527079Y-48543926D01*
X122250000Y-48487816D01*
X119050000Y-48487816D01*
X118791151Y-48536522D01*
X118553415Y-48689501D01*
X118393926Y-48922921D01*
X118337816Y-49200000D01*
X105182184Y-49200000D01*
X105133478Y-48941151D01*
X104980499Y-48703415D01*
X104747079Y-48543926D01*
X104470000Y-48487816D01*
X101270000Y-48487816D01*
X101011151Y-48536522D01*
X100773415Y-48689501D01*
X100613926Y-48922921D01*
X100557816Y-49200000D01*
X98797889Y-49200000D01*
X98688567Y-48650402D01*
X98190315Y-47904715D01*
X97444628Y-47406463D01*
X96565030Y-47231500D01*
X96474970Y-47231500D01*
X95595372Y-47406463D01*
X94849685Y-47904715D01*
X94351433Y-48650402D01*
X94176470Y-49530000D01*
X93752184Y-49530000D01*
X93752184Y-47930000D01*
X93703478Y-47671151D01*
X93550499Y-47433415D01*
X93317079Y-47273926D01*
X93040000Y-47217816D01*
X89840000Y-47217816D01*
X89581151Y-47266522D01*
X89343415Y-47419501D01*
X89183926Y-47652921D01*
X89127816Y-47930000D01*
X64668870Y-47930000D01*
X64913790Y-47563451D01*
X65027857Y-46990000D01*
X64913790Y-46416549D01*
X64588957Y-45930400D01*
X64274070Y-45720000D01*
X64341462Y-45674970D01*
X100571500Y-45674970D01*
X100571500Y-45765030D01*
X100746463Y-46644628D01*
X101244715Y-47390315D01*
X101990402Y-47888567D01*
X102870000Y-48063530D01*
X103749598Y-47888567D01*
X104495285Y-47390315D01*
X104993537Y-46644628D01*
X105168500Y-45765030D01*
X105168500Y-45674970D01*
X118351500Y-45674970D01*
X118351500Y-45765030D01*
X118526463Y-46644628D01*
X119024715Y-47390315D01*
X119770402Y-47888567D01*
X120650000Y-48063530D01*
X121529598Y-47888567D01*
X122275285Y-47390315D01*
X122773537Y-46644628D01*
X122898427Y-46016762D01*
X144551241Y-46016762D01*
X144778893Y-46567723D01*
X145200060Y-46989625D01*
X145750622Y-47218239D01*
X146346762Y-47218759D01*
X146897723Y-46991107D01*
X147319625Y-46569940D01*
X147479101Y-46185880D01*
X151721163Y-46185880D01*
X152017179Y-46902294D01*
X152564823Y-47450894D01*
X153280719Y-47748161D01*
X154055880Y-47748837D01*
X154772294Y-47452821D01*
X155320894Y-46905177D01*
X155618161Y-46189281D01*
X155618837Y-45414120D01*
X155322821Y-44697706D01*
X154775177Y-44149106D01*
X154059281Y-43851839D01*
X153284120Y-43851163D01*
X152567706Y-44147179D01*
X152019106Y-44694823D01*
X151721839Y-45410719D01*
X151721163Y-46185880D01*
X147479101Y-46185880D01*
X147548239Y-46019378D01*
X147548759Y-45423238D01*
X147321107Y-44872277D01*
X146899940Y-44450375D01*
X146349378Y-44221761D01*
X145753238Y-44221241D01*
X145202277Y-44448893D01*
X144780375Y-44870060D01*
X144551761Y-45420622D01*
X144551241Y-46016762D01*
X122898427Y-46016762D01*
X122948500Y-45765030D01*
X122948500Y-45674970D01*
X122773537Y-44795372D01*
X122275285Y-44049685D01*
X121529598Y-43551433D01*
X120650000Y-43376470D01*
X119770402Y-43551433D01*
X119024715Y-44049685D01*
X118526463Y-44795372D01*
X118351500Y-45674970D01*
X105168500Y-45674970D01*
X104993537Y-44795372D01*
X104495285Y-44049685D01*
X103749598Y-43551433D01*
X102870000Y-43376470D01*
X101990402Y-43551433D01*
X101244715Y-44049685D01*
X100746463Y-44795372D01*
X100571500Y-45674970D01*
X64341462Y-45674970D01*
X64588957Y-45509600D01*
X64913790Y-45023451D01*
X65027857Y-44450000D01*
X64913790Y-43876549D01*
X64588957Y-43390400D01*
X64274070Y-43180000D01*
X64588957Y-42969600D01*
X64913790Y-42483451D01*
X65027857Y-41910000D01*
X64913790Y-41336549D01*
X64588957Y-40850400D01*
X64102808Y-40525567D01*
X63529357Y-40411500D01*
X63470643Y-40411500D01*
X62897192Y-40525567D01*
X62411043Y-40850400D01*
X62086210Y-41336549D01*
X61972143Y-41910000D01*
X57392184Y-41910000D01*
X57392184Y-41110000D01*
X57343478Y-40851151D01*
X57190499Y-40613415D01*
X56957079Y-40453926D01*
X56680000Y-40397816D01*
X55080000Y-40397816D01*
X54821151Y-40446522D01*
X54583415Y-40599501D01*
X54423926Y-40832921D01*
X54367816Y-41110000D01*
X54367816Y-42710000D01*
X54416522Y-42968849D01*
X54569501Y-43206585D01*
X54802921Y-43366074D01*
X54821745Y-43369886D01*
X54791043Y-43390400D01*
X54466210Y-43876549D01*
X54352143Y-44450000D01*
X40788500Y-44450000D01*
X40788746Y-44169081D01*
X40573247Y-43647534D01*
X40174565Y-43248155D01*
X39653395Y-43031747D01*
X39089081Y-43031254D01*
X38567534Y-43246753D01*
X38168155Y-43645435D01*
X37951747Y-44166605D01*
X37951254Y-44730919D01*
X31547731Y-44730919D01*
X31613849Y-44718478D01*
X31851585Y-44565499D01*
X32011074Y-44332079D01*
X32067184Y-44055000D01*
X32067184Y-42305000D01*
X32045719Y-42190919D01*
X40491254Y-42190919D01*
X40706753Y-42712466D01*
X41105435Y-43111845D01*
X41626605Y-43328253D01*
X42190919Y-43328746D01*
X42712466Y-43113247D01*
X43111845Y-42714565D01*
X43328253Y-42193395D01*
X43328746Y-41629081D01*
X43113247Y-41107534D01*
X42714565Y-40708155D01*
X42193395Y-40491747D01*
X41629081Y-40491254D01*
X41107534Y-40706753D01*
X40708155Y-41105435D01*
X40491747Y-41626605D01*
X40491254Y-42190919D01*
X32045719Y-42190919D01*
X32018478Y-42046151D01*
X31865499Y-41808415D01*
X31694124Y-41691319D01*
X31813171Y-41572480D01*
X32053227Y-40994362D01*
X32053773Y-40368385D01*
X31814726Y-39789848D01*
X31676040Y-39650919D01*
X37951254Y-39650919D01*
X38166753Y-40172466D01*
X38565435Y-40571845D01*
X39086605Y-40788253D01*
X39650919Y-40788746D01*
X40172466Y-40573247D01*
X40571845Y-40174565D01*
X40788253Y-39653395D01*
X40788746Y-39089081D01*
X40573247Y-38567534D01*
X40174565Y-38168155D01*
X39653395Y-37951747D01*
X39089081Y-37951254D01*
X38567534Y-38166753D01*
X38168155Y-38565435D01*
X37951747Y-39086605D01*
X37951254Y-39650919D01*
X31676040Y-39650919D01*
X31372480Y-39346829D01*
X30794362Y-39106773D01*
X30168385Y-39106227D01*
X29589848Y-39345274D01*
X29146829Y-39787520D01*
X28906773Y-40365638D01*
X28906227Y-40991615D01*
X29145274Y-41570152D01*
X29267221Y-41692312D01*
X29108415Y-41794501D01*
X28948926Y-42027921D01*
X28892816Y-42305000D01*
X26148500Y-42305000D01*
X26148500Y-37126762D01*
X45491241Y-37126762D01*
X45718893Y-37677723D01*
X46140060Y-38099625D01*
X46690622Y-38328239D01*
X47286762Y-38328759D01*
X47837723Y-38101107D01*
X48259625Y-37679940D01*
X48488239Y-37129378D01*
X48488759Y-36533238D01*
X48261107Y-35982277D01*
X47839940Y-35560375D01*
X47289378Y-35331761D01*
X46693238Y-35331241D01*
X46142277Y-35558893D01*
X45720375Y-35980060D01*
X45491761Y-36530622D01*
X45491241Y-37126762D01*
X26148500Y-37126762D01*
X26148500Y-34626370D01*
X50371205Y-34626370D01*
X50629242Y-35250866D01*
X51106621Y-35729079D01*
X51121500Y-35735257D01*
X51121500Y-40464132D01*
X51109134Y-40469242D01*
X50630921Y-40946621D01*
X50371795Y-41570665D01*
X50371205Y-42246370D01*
X50629242Y-42870866D01*
X51106621Y-43349079D01*
X51730665Y-43608205D01*
X52406370Y-43608795D01*
X53030866Y-43350758D01*
X53509079Y-42873379D01*
X53768205Y-42249335D01*
X53768795Y-41573630D01*
X53510758Y-40949134D01*
X53033379Y-40470921D01*
X53018500Y-40464743D01*
X53018500Y-39370000D01*
X64512143Y-39370000D01*
X64626210Y-39943451D01*
X64951043Y-40429600D01*
X65437192Y-40754433D01*
X66010643Y-40868500D01*
X66069357Y-40868500D01*
X66642808Y-40754433D01*
X67128957Y-40429600D01*
X67453790Y-39943451D01*
X67508827Y-39666762D01*
X74701241Y-39666762D01*
X74928893Y-40217723D01*
X75350060Y-40639625D01*
X75900622Y-40868239D01*
X76496762Y-40868759D01*
X77047723Y-40641107D01*
X77469625Y-40219940D01*
X77698239Y-39669378D01*
X77698759Y-39073238D01*
X77471107Y-38522277D01*
X77049940Y-38100375D01*
X76499378Y-37871761D01*
X75903238Y-37871241D01*
X75352277Y-38098893D01*
X74930375Y-38520060D01*
X74701761Y-39070622D01*
X74701241Y-39666762D01*
X67508827Y-39666762D01*
X67567857Y-39370000D01*
X67453790Y-38796549D01*
X67128957Y-38310400D01*
X66642808Y-37985567D01*
X66069357Y-37871500D01*
X66010643Y-37871500D01*
X65437192Y-37985567D01*
X64951043Y-38310400D01*
X64626210Y-38796549D01*
X64512143Y-39370000D01*
X53018500Y-39370000D01*
X53018500Y-35735868D01*
X53030866Y-35730758D01*
X53509079Y-35253379D01*
X53768205Y-34629335D01*
X53768501Y-34290000D01*
X64512143Y-34290000D01*
X64626210Y-34863451D01*
X64951043Y-35349600D01*
X65437192Y-35674433D01*
X66010643Y-35788500D01*
X66069357Y-35788500D01*
X66642808Y-35674433D01*
X67128957Y-35349600D01*
X67453790Y-34863451D01*
X67508827Y-34586762D01*
X74701241Y-34586762D01*
X74928893Y-35137723D01*
X75350060Y-35559625D01*
X75900622Y-35788239D01*
X76496762Y-35788759D01*
X77047723Y-35561107D01*
X77469625Y-35139940D01*
X77698239Y-34589378D01*
X77698759Y-33993238D01*
X77471107Y-33442277D01*
X77049940Y-33020375D01*
X76499378Y-32791761D01*
X75903238Y-32791241D01*
X75352277Y-33018893D01*
X74930375Y-33440060D01*
X74701761Y-33990622D01*
X74701241Y-34586762D01*
X67508827Y-34586762D01*
X67567857Y-34290000D01*
X67453790Y-33716549D01*
X67128957Y-33230400D01*
X66642808Y-32905567D01*
X66069357Y-32791500D01*
X66010643Y-32791500D01*
X65437192Y-32905567D01*
X64951043Y-33230400D01*
X64626210Y-33716549D01*
X64512143Y-34290000D01*
X53768501Y-34290000D01*
X53768795Y-33953630D01*
X53510758Y-33329134D01*
X53033379Y-32850921D01*
X52409335Y-32591795D01*
X51733630Y-32591205D01*
X51109134Y-32849242D01*
X50630921Y-33326621D01*
X50371795Y-33950665D01*
X50371205Y-34626370D01*
X26148500Y-34626370D01*
X26148500Y-31941709D01*
X26568094Y-31941709D01*
X26925297Y-32462656D01*
X28343947Y-33089380D01*
X29894446Y-33125504D01*
X31340744Y-32565528D01*
X31494703Y-32462656D01*
X31851906Y-31941709D01*
X29210000Y-29299803D01*
X26568094Y-31941709D01*
X26148500Y-31941709D01*
X26148500Y-31625775D01*
X26478291Y-31851906D01*
X29120197Y-29210000D01*
X29299803Y-29210000D01*
X31941709Y-31851906D01*
X32462656Y-31494703D01*
X33089380Y-30076053D01*
X33125504Y-28525554D01*
X33029026Y-28276370D01*
X77041205Y-28276370D01*
X77299242Y-28900866D01*
X77776621Y-29379079D01*
X77791500Y-29385257D01*
X77791500Y-35384132D01*
X77779134Y-35389242D01*
X77300921Y-35866621D01*
X77041795Y-36490665D01*
X77041205Y-37166370D01*
X77299242Y-37790866D01*
X77776621Y-38269079D01*
X78400665Y-38528205D01*
X79076370Y-38528795D01*
X79700866Y-38270758D01*
X80179079Y-37793379D01*
X80438205Y-37169335D01*
X80438795Y-36493630D01*
X80205908Y-35930000D01*
X82207816Y-35930000D01*
X82207816Y-37730000D01*
X82256522Y-37988849D01*
X82409501Y-38226585D01*
X82593512Y-38352314D01*
X82343179Y-38726965D01*
X82221500Y-39338684D01*
X82221500Y-39401316D01*
X82343179Y-40013035D01*
X82689690Y-40531626D01*
X82851883Y-40640000D01*
X82689690Y-40748374D01*
X82343179Y-41266965D01*
X82221500Y-41878684D01*
X82221500Y-41941316D01*
X82343179Y-42553035D01*
X82689690Y-43071626D01*
X83208281Y-43418137D01*
X83820000Y-43539816D01*
X84431719Y-43418137D01*
X84950310Y-43071626D01*
X85296821Y-42553035D01*
X85418500Y-41941316D01*
X85418500Y-41878684D01*
X85296821Y-41266965D01*
X84950310Y-40748374D01*
X84788117Y-40640000D01*
X84950310Y-40531626D01*
X85296821Y-40013035D01*
X85418500Y-39401316D01*
X85418500Y-39338684D01*
X85296821Y-38726965D01*
X85045385Y-38350663D01*
X85216585Y-38240499D01*
X85376074Y-38007079D01*
X85432184Y-37730000D01*
X85432184Y-35930000D01*
X138087816Y-35930000D01*
X138087816Y-37730000D01*
X138136522Y-37988849D01*
X138289501Y-38226585D01*
X138473512Y-38352314D01*
X138223179Y-38726965D01*
X138101500Y-39338684D01*
X138101500Y-39401316D01*
X138223179Y-40013035D01*
X138569690Y-40531626D01*
X138731883Y-40640000D01*
X138569690Y-40748374D01*
X138223179Y-41266965D01*
X138101500Y-41878684D01*
X138101500Y-41941316D01*
X138223179Y-42553035D01*
X138569690Y-43071626D01*
X139088281Y-43418137D01*
X139700000Y-43539816D01*
X140311719Y-43418137D01*
X140830310Y-43071626D01*
X141176821Y-42553035D01*
X141298500Y-41941316D01*
X141298500Y-41878684D01*
X141176821Y-41266965D01*
X140830310Y-40748374D01*
X140668117Y-40640000D01*
X140830310Y-40531626D01*
X141176821Y-40013035D01*
X141298500Y-39401316D01*
X141298500Y-39338684D01*
X141176821Y-38726965D01*
X140925385Y-38350663D01*
X141096585Y-38240499D01*
X141256074Y-38007079D01*
X141312184Y-37730000D01*
X141312184Y-35930000D01*
X141263478Y-35671151D01*
X141110499Y-35433415D01*
X140877079Y-35273926D01*
X140600000Y-35217816D01*
X138800000Y-35217816D01*
X138541151Y-35266522D01*
X138303415Y-35419501D01*
X138143926Y-35652921D01*
X138087816Y-35930000D01*
X85432184Y-35930000D01*
X85383478Y-35671151D01*
X85230499Y-35433415D01*
X84997079Y-35273926D01*
X84720000Y-35217816D01*
X82920000Y-35217816D01*
X82661151Y-35266522D01*
X82423415Y-35419501D01*
X82263926Y-35652921D01*
X82207816Y-35930000D01*
X80205908Y-35930000D01*
X80180758Y-35869134D01*
X79703379Y-35390921D01*
X79688500Y-35384743D01*
X79688500Y-29385868D01*
X79700866Y-29380758D01*
X80179079Y-28903379D01*
X80188786Y-28880000D01*
X100557816Y-28880000D01*
X100557816Y-32080000D01*
X100606522Y-32338849D01*
X100759501Y-32576585D01*
X100992921Y-32736074D01*
X101270000Y-32792184D01*
X104470000Y-32792184D01*
X104728849Y-32743478D01*
X104966585Y-32590499D01*
X105126074Y-32357079D01*
X105182184Y-32080000D01*
X105182184Y-28880000D01*
X118337816Y-28880000D01*
X118337816Y-32080000D01*
X118386522Y-32338849D01*
X118539501Y-32576585D01*
X118772921Y-32736074D01*
X119050000Y-32792184D01*
X122250000Y-32792184D01*
X122508849Y-32743478D01*
X122746585Y-32590499D01*
X122906074Y-32357079D01*
X122962184Y-32080000D01*
X122962184Y-31941709D01*
X154838094Y-31941709D01*
X155195297Y-32462656D01*
X156613947Y-33089380D01*
X158164446Y-33125504D01*
X159610744Y-32565528D01*
X159764703Y-32462656D01*
X160121906Y-31941709D01*
X157480000Y-29299803D01*
X154838094Y-31941709D01*
X122962184Y-31941709D01*
X122962184Y-29894446D01*
X153564496Y-29894446D01*
X154124472Y-31340744D01*
X154227344Y-31494703D01*
X154748291Y-31851906D01*
X157390197Y-29210000D01*
X154748291Y-26568094D01*
X154227344Y-26925297D01*
X153600620Y-28343947D01*
X153564496Y-29894446D01*
X122962184Y-29894446D01*
X122962184Y-28880000D01*
X122913478Y-28621151D01*
X122760499Y-28383415D01*
X122527079Y-28223926D01*
X122250000Y-28167816D01*
X119050000Y-28167816D01*
X118791151Y-28216522D01*
X118553415Y-28369501D01*
X118393926Y-28602921D01*
X118337816Y-28880000D01*
X105182184Y-28880000D01*
X105133478Y-28621151D01*
X104980499Y-28383415D01*
X104747079Y-28223926D01*
X104470000Y-28167816D01*
X101270000Y-28167816D01*
X101011151Y-28216522D01*
X100773415Y-28369501D01*
X100613926Y-28602921D01*
X100557816Y-28880000D01*
X80188786Y-28880000D01*
X80438205Y-28279335D01*
X80438795Y-27603630D01*
X80180758Y-26979134D01*
X79703379Y-26500921D01*
X79079335Y-26241795D01*
X78403630Y-26241205D01*
X77779134Y-26499242D01*
X77300921Y-26976621D01*
X77041795Y-27600665D01*
X77041205Y-28276370D01*
X33029026Y-28276370D01*
X32565528Y-27079256D01*
X32462656Y-26925297D01*
X31941709Y-26568094D01*
X29299803Y-29210000D01*
X29120197Y-29210000D01*
X26478291Y-26568094D01*
X26148500Y-26794225D01*
X26148500Y-26148500D01*
X26794225Y-26148500D01*
X26568094Y-26478291D01*
X26568094Y-26478291D01*
G37*
X26568094Y-26478291D02*
X29210000Y-29120197D01*
X31851906Y-26478291D01*
X31625775Y-26148500D01*
X155064225Y-26148500D01*
X154838094Y-26478291D01*
X157480000Y-29120197D01*
X160121906Y-26478291D01*
X159895775Y-26148500D01*
X160541500Y-26148500D01*
X160541500Y-26794225D01*
X160211709Y-26568094D01*
X157569803Y-29210000D01*
X160211709Y-31851906D01*
X160541500Y-31625775D01*
X160541500Y-66164225D01*
X160211709Y-65938094D01*
X157569803Y-68580000D01*
X160211709Y-71221906D01*
X160541500Y-70995775D01*
X160541500Y-71641500D01*
X159895775Y-71641500D01*
X160121906Y-71311709D01*
X157480000Y-68669803D01*
X154838094Y-71311709D01*
X155064225Y-71641500D01*
X31625775Y-71641500D01*
X31851906Y-71311709D01*
X29210000Y-68669803D01*
X26568094Y-71311709D01*
X26794225Y-71641500D01*
X26148500Y-71641500D01*
X26148500Y-70995775D01*
X26478291Y-71221906D01*
X29120197Y-68580000D01*
X29299803Y-68580000D01*
X31941709Y-71221906D01*
X32462656Y-70864703D01*
X33089380Y-69446053D01*
X33093611Y-69264446D01*
X153564496Y-69264446D01*
X154124472Y-70710744D01*
X154227344Y-70864703D01*
X154748291Y-71221906D01*
X157390197Y-68580000D01*
X154748291Y-65938094D01*
X154227344Y-66295297D01*
X153600620Y-67713947D01*
X153564496Y-69264446D01*
X33093611Y-69264446D01*
X33125504Y-67895554D01*
X32565528Y-66449256D01*
X32516828Y-66376370D01*
X69421205Y-66376370D01*
X69679242Y-67000866D01*
X70156621Y-67479079D01*
X70780665Y-67738205D01*
X71456370Y-67738795D01*
X72080866Y-67480758D01*
X72559079Y-67003379D01*
X72565257Y-66988500D01*
X77294132Y-66988500D01*
X77299242Y-67000866D01*
X77776621Y-67479079D01*
X78400665Y-67738205D01*
X79076370Y-67738795D01*
X79700866Y-67480758D01*
X80179079Y-67003379D01*
X80438205Y-66379335D01*
X80438795Y-65703630D01*
X80180758Y-65079134D01*
X79703379Y-64600921D01*
X79079335Y-64341795D01*
X78403630Y-64341205D01*
X77779134Y-64599242D01*
X77300921Y-65076621D01*
X77294743Y-65091500D01*
X72565868Y-65091500D01*
X72560758Y-65079134D01*
X72083379Y-64600921D01*
X71459335Y-64341795D01*
X70783630Y-64341205D01*
X70159134Y-64599242D01*
X69680921Y-65076621D01*
X69421795Y-65700665D01*
X69421205Y-66376370D01*
X32516828Y-66376370D01*
X32462656Y-66295297D01*
X31941709Y-65938094D01*
X29299803Y-68580000D01*
X29120197Y-68580000D01*
X26478291Y-65938094D01*
X26148500Y-66164225D01*
X26148500Y-65848291D01*
X26568094Y-65848291D01*
X29210000Y-68490197D01*
X31851906Y-65848291D01*
X31494703Y-65327344D01*
X30076053Y-64700620D01*
X28525554Y-64664496D01*
X27079256Y-65224472D01*
X26925297Y-65327344D01*
X26568094Y-65848291D01*
X26148500Y-65848291D01*
X26148500Y-62526925D01*
X45521207Y-62526925D01*
X45746640Y-63066406D01*
X46161364Y-63478552D01*
X46693075Y-63698788D01*
X46926500Y-63552351D01*
X46926500Y-62293500D01*
X47053500Y-62293500D01*
X47053500Y-63552351D01*
X47286925Y-63698788D01*
X47818636Y-63478552D01*
X48233360Y-63066406D01*
X48458793Y-62526925D01*
X48458691Y-62526762D01*
X68351241Y-62526762D01*
X68578893Y-63077723D01*
X69000060Y-63499625D01*
X69550622Y-63728239D01*
X70146762Y-63728759D01*
X70697723Y-63501107D01*
X71119625Y-63079940D01*
X71348239Y-62529378D01*
X71348241Y-62526925D01*
X73461207Y-62526925D01*
X73686640Y-63066406D01*
X74101364Y-63478552D01*
X74633075Y-63698788D01*
X74866500Y-63552351D01*
X74866500Y-62293500D01*
X74993500Y-62293500D01*
X74993500Y-63552351D01*
X75226925Y-63698788D01*
X75658568Y-63520000D01*
X89477816Y-63520000D01*
X89477816Y-66020000D01*
X89526522Y-66278849D01*
X89679501Y-66516585D01*
X89912921Y-66676074D01*
X90190000Y-66732184D01*
X92690000Y-66732184D01*
X92948849Y-66683478D01*
X93186585Y-66530499D01*
X93346074Y-66297079D01*
X93402184Y-66020000D01*
X93402184Y-65155880D01*
X94491163Y-65155880D01*
X94787179Y-65872294D01*
X95334823Y-66420894D01*
X96050719Y-66718161D01*
X96825880Y-66718837D01*
X97447120Y-66462146D01*
X100610595Y-66462146D01*
X100944130Y-67294649D01*
X101570862Y-67936143D01*
X102395376Y-68288966D01*
X102447854Y-68299402D01*
X102806500Y-68162926D01*
X102806500Y-66103500D01*
X102933500Y-66103500D01*
X102933500Y-68162926D01*
X103292146Y-68299402D01*
X103344624Y-68288966D01*
X104169138Y-67936143D01*
X104795870Y-67294649D01*
X105129405Y-66462146D01*
X104993001Y-66103500D01*
X102933500Y-66103500D01*
X102806500Y-66103500D01*
X100746999Y-66103500D01*
X100610595Y-66462146D01*
X97447120Y-66462146D01*
X97542294Y-66422821D01*
X98090894Y-65875177D01*
X98197744Y-65617854D01*
X100610595Y-65617854D01*
X100746999Y-65976500D01*
X102806500Y-65976500D01*
X102806500Y-63917074D01*
X102933500Y-63917074D01*
X102933500Y-65976500D01*
X104993001Y-65976500D01*
X105129405Y-65617854D01*
X104795870Y-64785351D01*
X104169138Y-64143857D01*
X103344624Y-63791034D01*
X103292146Y-63780598D01*
X102933500Y-63917074D01*
X102806500Y-63917074D01*
X102447854Y-63780598D01*
X102395376Y-63791034D01*
X101570862Y-64143857D01*
X100944130Y-64785351D01*
X100610595Y-65617854D01*
X98197744Y-65617854D01*
X98388161Y-65159281D01*
X98388837Y-64384120D01*
X98092821Y-63667706D01*
X97945373Y-63520000D01*
X107257816Y-63520000D01*
X107257816Y-66020000D01*
X107306522Y-66278849D01*
X107459501Y-66516585D01*
X107692921Y-66676074D01*
X107970000Y-66732184D01*
X110470000Y-66732184D01*
X110728849Y-66683478D01*
X110966585Y-66530499D01*
X111126074Y-66297079D01*
X111182184Y-66020000D01*
X111182184Y-65155880D01*
X112271163Y-65155880D01*
X112567179Y-65872294D01*
X113114823Y-66420894D01*
X113830719Y-66718161D01*
X114605880Y-66718837D01*
X115227120Y-66462146D01*
X118390595Y-66462146D01*
X118724130Y-67294649D01*
X119350862Y-67936143D01*
X120175376Y-68288966D01*
X120227854Y-68299402D01*
X120586500Y-68162926D01*
X120586500Y-66103500D01*
X120713500Y-66103500D01*
X120713500Y-68162926D01*
X121072146Y-68299402D01*
X121124624Y-68288966D01*
X121949138Y-67936143D01*
X122575870Y-67294649D01*
X122909405Y-66462146D01*
X122773001Y-66103500D01*
X120713500Y-66103500D01*
X120586500Y-66103500D01*
X118526999Y-66103500D01*
X118390595Y-66462146D01*
X115227120Y-66462146D01*
X115322294Y-66422821D01*
X115870894Y-65875177D01*
X115977744Y-65617854D01*
X118390595Y-65617854D01*
X118526999Y-65976500D01*
X120586500Y-65976500D01*
X120586500Y-63917074D01*
X120713500Y-63917074D01*
X120713500Y-65976500D01*
X122773001Y-65976500D01*
X122909405Y-65617854D01*
X122575870Y-64785351D01*
X121949138Y-64143857D01*
X121124624Y-63791034D01*
X121072146Y-63780598D01*
X120713500Y-63917074D01*
X120586500Y-63917074D01*
X120227854Y-63780598D01*
X120175376Y-63791034D01*
X119350862Y-64143857D01*
X118724130Y-64785351D01*
X118390595Y-65617854D01*
X115977744Y-65617854D01*
X116168161Y-65159281D01*
X116168837Y-64384120D01*
X115872821Y-63667706D01*
X115725373Y-63520000D01*
X125037816Y-63520000D01*
X125037816Y-66020000D01*
X125086522Y-66278849D01*
X125239501Y-66516585D01*
X125472921Y-66676074D01*
X125750000Y-66732184D01*
X128250000Y-66732184D01*
X128508849Y-66683478D01*
X128746585Y-66530499D01*
X128906074Y-66297079D01*
X128962184Y-66020000D01*
X128962184Y-65155880D01*
X130051163Y-65155880D01*
X130347179Y-65872294D01*
X130894823Y-66420894D01*
X131610719Y-66718161D01*
X132385880Y-66718837D01*
X133102294Y-66422821D01*
X133650894Y-65875177D01*
X133662058Y-65848291D01*
X154838094Y-65848291D01*
X157480000Y-68490197D01*
X160121906Y-65848291D01*
X159764703Y-65327344D01*
X158346053Y-64700620D01*
X156795554Y-64664496D01*
X155349256Y-65224472D01*
X155195297Y-65327344D01*
X154838094Y-65848291D01*
X133662058Y-65848291D01*
X133948161Y-65159281D01*
X133948837Y-64384120D01*
X133652821Y-63667706D01*
X133105177Y-63119106D01*
X132389281Y-62821839D01*
X131614120Y-62821163D01*
X130897706Y-63117179D01*
X130349106Y-63664823D01*
X130051839Y-64380719D01*
X130051163Y-65155880D01*
X128962184Y-65155880D01*
X128962184Y-63520000D01*
X128913478Y-63261151D01*
X128760499Y-63023415D01*
X128527079Y-62863926D01*
X128250000Y-62807816D01*
X125750000Y-62807816D01*
X125491151Y-62856522D01*
X125253415Y-63009501D01*
X125093926Y-63242921D01*
X125037816Y-63520000D01*
X115725373Y-63520000D01*
X115325177Y-63119106D01*
X114609281Y-62821839D01*
X113834120Y-62821163D01*
X113117706Y-63117179D01*
X112569106Y-63664823D01*
X112271839Y-64380719D01*
X112271163Y-65155880D01*
X111182184Y-65155880D01*
X111182184Y-63520000D01*
X111133478Y-63261151D01*
X110980499Y-63023415D01*
X110747079Y-62863926D01*
X110470000Y-62807816D01*
X107970000Y-62807816D01*
X107711151Y-62856522D01*
X107473415Y-63009501D01*
X107313926Y-63242921D01*
X107257816Y-63520000D01*
X97945373Y-63520000D01*
X97545177Y-63119106D01*
X96829281Y-62821839D01*
X96054120Y-62821163D01*
X95337706Y-63117179D01*
X94789106Y-63664823D01*
X94491839Y-64380719D01*
X94491163Y-65155880D01*
X93402184Y-65155880D01*
X93402184Y-63520000D01*
X93353478Y-63261151D01*
X93200499Y-63023415D01*
X92967079Y-62863926D01*
X92690000Y-62807816D01*
X90190000Y-62807816D01*
X89931151Y-62856522D01*
X89693415Y-63009501D01*
X89533926Y-63242921D01*
X89477816Y-63520000D01*
X75658568Y-63520000D01*
X75758636Y-63478552D01*
X76173360Y-63066406D01*
X76398793Y-62526925D01*
X76252534Y-62293500D01*
X74993500Y-62293500D01*
X74866500Y-62293500D01*
X73607466Y-62293500D01*
X73461207Y-62526925D01*
X71348241Y-62526925D01*
X71348759Y-61933238D01*
X71348692Y-61933075D01*
X73461207Y-61933075D01*
X73607466Y-62166500D01*
X74866500Y-62166500D01*
X74866500Y-60907649D01*
X74993500Y-60907649D01*
X74993500Y-62166500D01*
X76252534Y-62166500D01*
X76398793Y-61933075D01*
X76173360Y-61393594D01*
X75758636Y-60981448D01*
X75226925Y-60761212D01*
X74993500Y-60907649D01*
X74866500Y-60907649D01*
X74633075Y-60761212D01*
X74101364Y-60981448D01*
X73686640Y-61393594D01*
X73461207Y-61933075D01*
X71348692Y-61933075D01*
X71121107Y-61382277D01*
X70699940Y-60960375D01*
X70149378Y-60731761D01*
X69553238Y-60731241D01*
X69002277Y-60958893D01*
X68580375Y-61380060D01*
X68351761Y-61930622D01*
X68351241Y-62526762D01*
X48458691Y-62526762D01*
X48312534Y-62293500D01*
X47053500Y-62293500D01*
X46926500Y-62293500D01*
X45667466Y-62293500D01*
X45521207Y-62526925D01*
X26148500Y-62526925D01*
X26148500Y-61933075D01*
X45521207Y-61933075D01*
X45667466Y-62166500D01*
X46926500Y-62166500D01*
X46926500Y-60907649D01*
X47053500Y-60907649D01*
X47053500Y-62166500D01*
X48312534Y-62166500D01*
X48458793Y-61933075D01*
X48233360Y-61393594D01*
X47818636Y-60981448D01*
X47286925Y-60761212D01*
X47053500Y-60907649D01*
X46926500Y-60907649D01*
X46693075Y-60761212D01*
X46161364Y-60981448D01*
X45746640Y-61393594D01*
X45521207Y-61933075D01*
X26148500Y-61933075D01*
X26148500Y-60060000D01*
X82207816Y-60060000D01*
X82207816Y-61860000D01*
X82256522Y-62118849D01*
X82409501Y-62356585D01*
X82642921Y-62516074D01*
X82920000Y-62572184D01*
X84720000Y-62572184D01*
X84978849Y-62523478D01*
X85216585Y-62370499D01*
X85376074Y-62137079D01*
X85432184Y-61860000D01*
X85432184Y-60060000D01*
X138087816Y-60060000D01*
X138087816Y-61860000D01*
X138136522Y-62118849D01*
X138289501Y-62356585D01*
X138522921Y-62516074D01*
X138800000Y-62572184D01*
X140600000Y-62572184D01*
X140858849Y-62523478D01*
X141096585Y-62370499D01*
X141256074Y-62137079D01*
X141312184Y-61860000D01*
X141312184Y-60060000D01*
X141263478Y-59801151D01*
X141110499Y-59563415D01*
X140910514Y-59426771D01*
X141028695Y-59308700D01*
X141267645Y-58732582D01*
X141122618Y-58483500D01*
X139763500Y-58483500D01*
X139763500Y-58503500D01*
X139636500Y-58503500D01*
X139636500Y-58483500D01*
X138277382Y-58483500D01*
X138132355Y-58732582D01*
X138371305Y-59308700D01*
X138491310Y-59428594D01*
X138303415Y-59549501D01*
X138143926Y-59782921D01*
X138087816Y-60060000D01*
X85432184Y-60060000D01*
X85383478Y-59801151D01*
X85230499Y-59563415D01*
X85030514Y-59426771D01*
X85148695Y-59308700D01*
X85387645Y-58732582D01*
X85242618Y-58483500D01*
X83883500Y-58483500D01*
X83883500Y-58503500D01*
X83756500Y-58503500D01*
X83756500Y-58483500D01*
X82397382Y-58483500D01*
X82252355Y-58732582D01*
X82491305Y-59308700D01*
X82611310Y-59428594D01*
X82423415Y-59549501D01*
X82263926Y-59782921D01*
X82207816Y-60060000D01*
X26148500Y-60060000D01*
X26148500Y-54848125D01*
X28906500Y-54848125D01*
X28906500Y-55623940D01*
X29012840Y-55880668D01*
X29209331Y-56077160D01*
X29466059Y-56183500D01*
X30241875Y-56183500D01*
X30416500Y-56008875D01*
X30416500Y-54673500D01*
X30543500Y-54673500D01*
X30543500Y-56008875D01*
X30718125Y-56183500D01*
X31493941Y-56183500D01*
X31548456Y-56160919D01*
X37951254Y-56160919D01*
X38166753Y-56682466D01*
X38565435Y-57081845D01*
X39086605Y-57298253D01*
X39650919Y-57298746D01*
X40172466Y-57083247D01*
X40571845Y-56684565D01*
X40788253Y-56163395D01*
X40788746Y-55599081D01*
X40573247Y-55077534D01*
X40174565Y-54678155D01*
X39653395Y-54461747D01*
X39089081Y-54461254D01*
X38567534Y-54676753D01*
X38168155Y-55075435D01*
X37951747Y-55596605D01*
X37951254Y-56160919D01*
X31548456Y-56160919D01*
X31750669Y-56077160D01*
X31947160Y-55880668D01*
X32053500Y-55623940D01*
X32053500Y-54848125D01*
X31878875Y-54673500D01*
X30543500Y-54673500D01*
X30416500Y-54673500D01*
X29081125Y-54673500D01*
X28906500Y-54848125D01*
X26148500Y-54848125D01*
X26148500Y-52421615D01*
X28906227Y-52421615D01*
X29145274Y-53000152D01*
X29264784Y-53119871D01*
X29209331Y-53142840D01*
X29012840Y-53339332D01*
X28906500Y-53596060D01*
X28906500Y-54371875D01*
X29081125Y-54546500D01*
X30416500Y-54546500D01*
X30416500Y-54526500D01*
X30543500Y-54526500D01*
X30543500Y-54546500D01*
X31878875Y-54546500D01*
X32053500Y-54371875D01*
X32053500Y-53620919D01*
X40491254Y-53620919D01*
X40706753Y-54142466D01*
X41105435Y-54541845D01*
X41626605Y-54758253D01*
X42190919Y-54758746D01*
X42712466Y-54543247D01*
X43111845Y-54144565D01*
X43328253Y-53623395D01*
X43328746Y-53059081D01*
X43113247Y-52537534D01*
X42942774Y-52366762D01*
X45491241Y-52366762D01*
X45718893Y-52917723D01*
X46140060Y-53339625D01*
X46690622Y-53568239D01*
X47286762Y-53568759D01*
X47837723Y-53341107D01*
X48259625Y-52919940D01*
X48488239Y-52369378D01*
X48488759Y-51773238D01*
X48261107Y-51222277D01*
X47839940Y-50800375D01*
X47289378Y-50571761D01*
X46693238Y-50571241D01*
X46142277Y-50798893D01*
X45720375Y-51220060D01*
X45491761Y-51770622D01*
X45491241Y-52366762D01*
X42942774Y-52366762D01*
X42714565Y-52138155D01*
X42193395Y-51921747D01*
X41629081Y-51921254D01*
X41107534Y-52136753D01*
X40708155Y-52535435D01*
X40491747Y-53056605D01*
X40491254Y-53620919D01*
X32053500Y-53620919D01*
X32053500Y-53596060D01*
X31947160Y-53339332D01*
X31750669Y-53142840D01*
X31695470Y-53119976D01*
X31813171Y-53002480D01*
X32053227Y-52424362D01*
X32053773Y-51798385D01*
X31814726Y-51219848D01*
X31676040Y-51080919D01*
X37951254Y-51080919D01*
X38166753Y-51602466D01*
X38565435Y-52001845D01*
X39086605Y-52218253D01*
X39650919Y-52218746D01*
X40172466Y-52003247D01*
X40571845Y-51604565D01*
X40788253Y-51083395D01*
X40788746Y-50519081D01*
X40573247Y-49997534D01*
X40174565Y-49598155D01*
X39653395Y-49381747D01*
X39089081Y-49381254D01*
X38567534Y-49596753D01*
X38168155Y-49995435D01*
X37951747Y-50516605D01*
X37951254Y-51080919D01*
X31676040Y-51080919D01*
X31372480Y-50776829D01*
X30794362Y-50536773D01*
X30168385Y-50536227D01*
X29589848Y-50775274D01*
X29146829Y-51217520D01*
X28906773Y-51795638D01*
X28906227Y-52421615D01*
X26148500Y-52421615D01*
X26148500Y-46960643D01*
X45491500Y-46960643D01*
X45491500Y-47019357D01*
X45605567Y-47592808D01*
X45930400Y-48078957D01*
X46416549Y-48403790D01*
X46990000Y-48517857D01*
X47563451Y-48403790D01*
X48049600Y-48078957D01*
X48374433Y-47592808D01*
X48427431Y-47326370D01*
X50371205Y-47326370D01*
X50629242Y-47950866D01*
X51106621Y-48429079D01*
X51121500Y-48435257D01*
X51121500Y-53164132D01*
X51109134Y-53169242D01*
X50630921Y-53646621D01*
X50371795Y-54270665D01*
X50371205Y-54946370D01*
X50629242Y-55570866D01*
X51106621Y-56049079D01*
X51730665Y-56308205D01*
X52406370Y-56308795D01*
X53030866Y-56050758D01*
X53509079Y-55573379D01*
X53768205Y-54949335D01*
X53768795Y-54273630D01*
X53510758Y-53649134D01*
X53033379Y-53170921D01*
X53018500Y-53164743D01*
X53018500Y-48435868D01*
X53030866Y-48430758D01*
X53509079Y-47953379D01*
X53768205Y-47329335D01*
X53768795Y-46653630D01*
X53510758Y-46029134D01*
X53033379Y-45550921D01*
X52409335Y-45291795D01*
X51733630Y-45291205D01*
X51109134Y-45549242D01*
X50630921Y-46026621D01*
X50371795Y-46650665D01*
X50371205Y-47326370D01*
X48427431Y-47326370D01*
X48488500Y-47019357D01*
X48488500Y-46960643D01*
X48374433Y-46387192D01*
X48049600Y-45901043D01*
X47563451Y-45576210D01*
X46990000Y-45462143D01*
X46416549Y-45576210D01*
X45930400Y-45901043D01*
X45605567Y-46387192D01*
X45491500Y-46960643D01*
X26148500Y-46960643D01*
X26148500Y-42305000D01*
X28892816Y-42305000D01*
X28892816Y-44055000D01*
X28941522Y-44313849D01*
X29094501Y-44551585D01*
X29327921Y-44711074D01*
X29605000Y-44767184D01*
X31355000Y-44767184D01*
X31547731Y-44730919D01*
X37951254Y-44730919D01*
X38166753Y-45252466D01*
X38565435Y-45651845D01*
X39086605Y-45868253D01*
X39650919Y-45868746D01*
X40172466Y-45653247D01*
X40571845Y-45254565D01*
X40788253Y-44733395D01*
X40788500Y-44450000D01*
X54352143Y-44450000D01*
X54466210Y-45023451D01*
X54791043Y-45509600D01*
X55105930Y-45720000D01*
X54791043Y-45930400D01*
X54466210Y-46416549D01*
X54352143Y-46990000D01*
X54466210Y-47563451D01*
X54791043Y-48049600D01*
X55105930Y-48260000D01*
X54791043Y-48470400D01*
X54466210Y-48956549D01*
X54352143Y-49530000D01*
X54466210Y-50103451D01*
X54791043Y-50589600D01*
X55105930Y-50800000D01*
X54791043Y-51010400D01*
X54466210Y-51496549D01*
X54352143Y-52070000D01*
X54466210Y-52643451D01*
X54791043Y-53129600D01*
X55105930Y-53340000D01*
X54791043Y-53550400D01*
X54466210Y-54036549D01*
X54352143Y-54610000D01*
X54466210Y-55183451D01*
X54791043Y-55669600D01*
X55105930Y-55880000D01*
X54791043Y-56090400D01*
X54466210Y-56576549D01*
X54352143Y-57150000D01*
X54466210Y-57723451D01*
X54791043Y-58209600D01*
X55277192Y-58534433D01*
X55850643Y-58648500D01*
X55909357Y-58648500D01*
X56482808Y-58534433D01*
X56968957Y-58209600D01*
X57293790Y-57723451D01*
X57407857Y-57150000D01*
X57293790Y-56576549D01*
X56968957Y-56090400D01*
X56654070Y-55880000D01*
X56968957Y-55669600D01*
X57293790Y-55183451D01*
X57407857Y-54610000D01*
X57293790Y-54036549D01*
X56968957Y-53550400D01*
X56654070Y-53340000D01*
X56968957Y-53129600D01*
X57293790Y-52643451D01*
X57407857Y-52070000D01*
X61972143Y-52070000D01*
X62086210Y-52643451D01*
X62411043Y-53129600D01*
X62725930Y-53340000D01*
X62411043Y-53550400D01*
X62086210Y-54036549D01*
X61972143Y-54610000D01*
X62086210Y-55183451D01*
X62411043Y-55669600D01*
X62725930Y-55880000D01*
X62411043Y-56090400D01*
X62086210Y-56576549D01*
X61972143Y-57150000D01*
X62086210Y-57723451D01*
X62411043Y-58209600D01*
X62897192Y-58534433D01*
X63470643Y-58648500D01*
X63529357Y-58648500D01*
X64102808Y-58534433D01*
X64588957Y-58209600D01*
X64913790Y-57723451D01*
X65027857Y-57150000D01*
X64913790Y-56576549D01*
X64588957Y-56090400D01*
X64274070Y-55880000D01*
X64320937Y-55848684D01*
X82221500Y-55848684D01*
X82221500Y-55911316D01*
X82343179Y-56523035D01*
X82689690Y-57041626D01*
X82864513Y-57158439D01*
X82491305Y-57531300D01*
X82252355Y-58107418D01*
X82397382Y-58356500D01*
X83756500Y-58356500D01*
X83756500Y-58336500D01*
X83883500Y-58336500D01*
X83883500Y-58356500D01*
X85242618Y-58356500D01*
X85387645Y-58107418D01*
X85148695Y-57531300D01*
X84775487Y-57158439D01*
X84950310Y-57041626D01*
X85296821Y-56523035D01*
X85418500Y-55911316D01*
X85418500Y-55848684D01*
X138101500Y-55848684D01*
X138101500Y-55911316D01*
X138223179Y-56523035D01*
X138569690Y-57041626D01*
X138744513Y-57158439D01*
X138371305Y-57531300D01*
X138132355Y-58107418D01*
X138277382Y-58356500D01*
X139636500Y-58356500D01*
X139636500Y-58336500D01*
X139763500Y-58336500D01*
X139763500Y-58356500D01*
X141122618Y-58356500D01*
X141267645Y-58107418D01*
X141028695Y-57531300D01*
X140655487Y-57158439D01*
X140830310Y-57041626D01*
X141176821Y-56523035D01*
X141298500Y-55911316D01*
X141298500Y-55848684D01*
X141176821Y-55236965D01*
X140830310Y-54718374D01*
X140311719Y-54371863D01*
X139700000Y-54250184D01*
X139088281Y-54371863D01*
X138569690Y-54718374D01*
X138223179Y-55236965D01*
X138101500Y-55848684D01*
X85418500Y-55848684D01*
X85296821Y-55236965D01*
X84950310Y-54718374D01*
X84431719Y-54371863D01*
X83820000Y-54250184D01*
X83208281Y-54371863D01*
X82689690Y-54718374D01*
X82343179Y-55236965D01*
X82221500Y-55848684D01*
X64320937Y-55848684D01*
X64588957Y-55669600D01*
X64913790Y-55183451D01*
X65027857Y-54610000D01*
X64913790Y-54036549D01*
X64588957Y-53550400D01*
X64274070Y-53340000D01*
X64588957Y-53129600D01*
X64913790Y-52643451D01*
X65027857Y-52070000D01*
X65022018Y-52040643D01*
X68351500Y-52040643D01*
X68351500Y-52099357D01*
X68465567Y-52672808D01*
X68790400Y-53158957D01*
X69276549Y-53483790D01*
X69850000Y-53597857D01*
X70423451Y-53483790D01*
X70909600Y-53158957D01*
X71234433Y-52672808D01*
X71295309Y-52366762D01*
X73431241Y-52366762D01*
X73658893Y-52917723D01*
X74080060Y-53339625D01*
X74630622Y-53568239D01*
X75226762Y-53568759D01*
X75777723Y-53341107D01*
X76199625Y-52919940D01*
X76428239Y-52369378D01*
X76428759Y-51773238D01*
X76201107Y-51222277D01*
X75779940Y-50800375D01*
X75229378Y-50571761D01*
X74633238Y-50571241D01*
X74082277Y-50798893D01*
X73660375Y-51220060D01*
X73431761Y-51770622D01*
X73431241Y-52366762D01*
X71295309Y-52366762D01*
X71348500Y-52099357D01*
X71348500Y-52040643D01*
X71234433Y-51467192D01*
X70909600Y-50981043D01*
X70423451Y-50656210D01*
X69850000Y-50542143D01*
X69276549Y-50656210D01*
X68790400Y-50981043D01*
X68465567Y-51467192D01*
X68351500Y-52040643D01*
X65022018Y-52040643D01*
X64913790Y-51496549D01*
X64588957Y-51010400D01*
X64273525Y-50799636D01*
X64336406Y-50773360D01*
X64748552Y-50358636D01*
X64968788Y-49826925D01*
X64822351Y-49593500D01*
X63563500Y-49593500D01*
X63563500Y-49613500D01*
X63436500Y-49613500D01*
X63436500Y-49593500D01*
X62177649Y-49593500D01*
X62031212Y-49826925D01*
X62251448Y-50358636D01*
X62663594Y-50773360D01*
X62726475Y-50799636D01*
X62411043Y-51010400D01*
X62086210Y-51496549D01*
X61972143Y-52070000D01*
X57407857Y-52070000D01*
X57293790Y-51496549D01*
X56968957Y-51010400D01*
X56654070Y-50800000D01*
X56968957Y-50589600D01*
X57293790Y-50103451D01*
X57407857Y-49530000D01*
X57293790Y-48956549D01*
X56968957Y-48470400D01*
X56654070Y-48260000D01*
X56968957Y-48049600D01*
X57293790Y-47563451D01*
X57407857Y-46990000D01*
X57293790Y-46416549D01*
X56968957Y-45930400D01*
X56654070Y-45720000D01*
X56968957Y-45509600D01*
X57293790Y-45023451D01*
X57407857Y-44450000D01*
X57293790Y-43876549D01*
X56968957Y-43390400D01*
X56941285Y-43371910D01*
X57176585Y-43220499D01*
X57336074Y-42987079D01*
X57392184Y-42710000D01*
X57392184Y-41910000D01*
X61972143Y-41910000D01*
X62086210Y-42483451D01*
X62411043Y-42969600D01*
X62725930Y-43180000D01*
X62411043Y-43390400D01*
X62086210Y-43876549D01*
X61972143Y-44450000D01*
X62086210Y-45023451D01*
X62411043Y-45509600D01*
X62725930Y-45720000D01*
X62411043Y-45930400D01*
X62086210Y-46416549D01*
X61972143Y-46990000D01*
X62086210Y-47563451D01*
X62411043Y-48049600D01*
X62726475Y-48260364D01*
X62663594Y-48286640D01*
X62251448Y-48701364D01*
X62031212Y-49233075D01*
X62177649Y-49466500D01*
X63436500Y-49466500D01*
X63436500Y-49446500D01*
X63563500Y-49446500D01*
X63563500Y-49466500D01*
X64822351Y-49466500D01*
X64968788Y-49233075D01*
X64748552Y-48701364D01*
X64336406Y-48286640D01*
X64273525Y-48260364D01*
X64588957Y-48049600D01*
X64668870Y-47930000D01*
X89127816Y-47930000D01*
X89127816Y-51130000D01*
X89176522Y-51388849D01*
X89329501Y-51626585D01*
X89562921Y-51786074D01*
X89840000Y-51842184D01*
X93040000Y-51842184D01*
X93298849Y-51793478D01*
X93536585Y-51640499D01*
X93696074Y-51407079D01*
X93752184Y-51130000D01*
X93752184Y-49530000D01*
X94176470Y-49530000D01*
X94351433Y-50409598D01*
X94849685Y-51155285D01*
X95595372Y-51653537D01*
X96474970Y-51828500D01*
X96565030Y-51828500D01*
X97444628Y-51653537D01*
X98190315Y-51155285D01*
X98688567Y-50409598D01*
X98863530Y-49530000D01*
X98797889Y-49200000D01*
X100557816Y-49200000D01*
X100557816Y-52400000D01*
X100606522Y-52658849D01*
X100759501Y-52896585D01*
X100992921Y-53056074D01*
X101270000Y-53112184D01*
X104470000Y-53112184D01*
X104728849Y-53063478D01*
X104966585Y-52910499D01*
X105126074Y-52677079D01*
X105182184Y-52400000D01*
X105182184Y-49200000D01*
X118337816Y-49200000D01*
X118337816Y-52400000D01*
X118386522Y-52658849D01*
X118539501Y-52896585D01*
X118772921Y-53056074D01*
X119050000Y-53112184D01*
X122250000Y-53112184D01*
X122508849Y-53063478D01*
X122746585Y-52910499D01*
X122906074Y-52677079D01*
X122962184Y-52400000D01*
X122962184Y-49530000D01*
X124656470Y-49530000D01*
X124831433Y-50409598D01*
X125329685Y-51155285D01*
X126075372Y-51653537D01*
X126954970Y-51828500D01*
X127045030Y-51828500D01*
X127924628Y-51653537D01*
X128670315Y-51155285D01*
X129168567Y-50409598D01*
X129343530Y-49530000D01*
X129168567Y-48650402D01*
X128687210Y-47930000D01*
X129767816Y-47930000D01*
X129767816Y-51130000D01*
X129816522Y-51388849D01*
X129969501Y-51626585D01*
X130202921Y-51786074D01*
X130480000Y-51842184D01*
X133680000Y-51842184D01*
X133938849Y-51793478D01*
X134051907Y-51720727D01*
X145139076Y-51720727D01*
X145204097Y-51992318D01*
X145755383Y-52219182D01*
X146351522Y-52217809D01*
X146895903Y-51992318D01*
X146960924Y-51720727D01*
X146050000Y-50809803D01*
X145139076Y-51720727D01*
X134051907Y-51720727D01*
X134176585Y-51640499D01*
X134336074Y-51407079D01*
X134392184Y-51130000D01*
X134392184Y-50425383D01*
X144550818Y-50425383D01*
X144552191Y-51021522D01*
X144777682Y-51565903D01*
X145049273Y-51630924D01*
X145960197Y-50720000D01*
X146139803Y-50720000D01*
X147050727Y-51630924D01*
X147322318Y-51565903D01*
X147539508Y-51038125D01*
X151721500Y-51038125D01*
X151721500Y-52188940D01*
X151827840Y-52445668D01*
X152024331Y-52642160D01*
X152281059Y-52748500D01*
X153431875Y-52748500D01*
X153606500Y-52573875D01*
X153606500Y-50863500D01*
X153733500Y-50863500D01*
X153733500Y-52573875D01*
X153908125Y-52748500D01*
X155058941Y-52748500D01*
X155315669Y-52642160D01*
X155512160Y-52445668D01*
X155618500Y-52188940D01*
X155618500Y-51038125D01*
X155443875Y-50863500D01*
X153733500Y-50863500D01*
X153606500Y-50863500D01*
X151896125Y-50863500D01*
X151721500Y-51038125D01*
X147539508Y-51038125D01*
X147549182Y-51014617D01*
X147547809Y-50418478D01*
X147322318Y-49874097D01*
X147050727Y-49809076D01*
X146139803Y-50720000D01*
X145960197Y-50720000D01*
X145049273Y-49809076D01*
X144777682Y-49874097D01*
X144550818Y-50425383D01*
X134392184Y-50425383D01*
X134392184Y-49719273D01*
X145139076Y-49719273D01*
X146050000Y-50630197D01*
X146960924Y-49719273D01*
X146895903Y-49447682D01*
X146806911Y-49411060D01*
X151721500Y-49411060D01*
X151721500Y-50561875D01*
X151896125Y-50736500D01*
X153606500Y-50736500D01*
X153606500Y-49026125D01*
X153733500Y-49026125D01*
X153733500Y-50736500D01*
X155443875Y-50736500D01*
X155618500Y-50561875D01*
X155618500Y-49411060D01*
X155512160Y-49154332D01*
X155315669Y-48957840D01*
X155058941Y-48851500D01*
X153908125Y-48851500D01*
X153733500Y-49026125D01*
X153606500Y-49026125D01*
X153431875Y-48851500D01*
X152281059Y-48851500D01*
X152024331Y-48957840D01*
X151827840Y-49154332D01*
X151721500Y-49411060D01*
X146806911Y-49411060D01*
X146344617Y-49220818D01*
X145748478Y-49222191D01*
X145204097Y-49447682D01*
X145139076Y-49719273D01*
X134392184Y-49719273D01*
X134392184Y-47930000D01*
X134343478Y-47671151D01*
X134190499Y-47433415D01*
X133957079Y-47273926D01*
X133680000Y-47217816D01*
X130480000Y-47217816D01*
X130221151Y-47266522D01*
X129983415Y-47419501D01*
X129823926Y-47652921D01*
X129767816Y-47930000D01*
X128687210Y-47930000D01*
X128670315Y-47904715D01*
X127924628Y-47406463D01*
X127045030Y-47231500D01*
X126954970Y-47231500D01*
X126075372Y-47406463D01*
X125329685Y-47904715D01*
X124831433Y-48650402D01*
X124656470Y-49530000D01*
X122962184Y-49530000D01*
X122962184Y-49200000D01*
X122913478Y-48941151D01*
X122760499Y-48703415D01*
X122527079Y-48543926D01*
X122250000Y-48487816D01*
X119050000Y-48487816D01*
X118791151Y-48536522D01*
X118553415Y-48689501D01*
X118393926Y-48922921D01*
X118337816Y-49200000D01*
X105182184Y-49200000D01*
X105133478Y-48941151D01*
X104980499Y-48703415D01*
X104747079Y-48543926D01*
X104470000Y-48487816D01*
X101270000Y-48487816D01*
X101011151Y-48536522D01*
X100773415Y-48689501D01*
X100613926Y-48922921D01*
X100557816Y-49200000D01*
X98797889Y-49200000D01*
X98688567Y-48650402D01*
X98190315Y-47904715D01*
X97444628Y-47406463D01*
X96565030Y-47231500D01*
X96474970Y-47231500D01*
X95595372Y-47406463D01*
X94849685Y-47904715D01*
X94351433Y-48650402D01*
X94176470Y-49530000D01*
X93752184Y-49530000D01*
X93752184Y-47930000D01*
X93703478Y-47671151D01*
X93550499Y-47433415D01*
X93317079Y-47273926D01*
X93040000Y-47217816D01*
X89840000Y-47217816D01*
X89581151Y-47266522D01*
X89343415Y-47419501D01*
X89183926Y-47652921D01*
X89127816Y-47930000D01*
X64668870Y-47930000D01*
X64913790Y-47563451D01*
X65027857Y-46990000D01*
X64913790Y-46416549D01*
X64588957Y-45930400D01*
X64274070Y-45720000D01*
X64341462Y-45674970D01*
X100571500Y-45674970D01*
X100571500Y-45765030D01*
X100746463Y-46644628D01*
X101244715Y-47390315D01*
X101990402Y-47888567D01*
X102870000Y-48063530D01*
X103749598Y-47888567D01*
X104495285Y-47390315D01*
X104993537Y-46644628D01*
X105168500Y-45765030D01*
X105168500Y-45674970D01*
X118351500Y-45674970D01*
X118351500Y-45765030D01*
X118526463Y-46644628D01*
X119024715Y-47390315D01*
X119770402Y-47888567D01*
X120650000Y-48063530D01*
X121529598Y-47888567D01*
X122275285Y-47390315D01*
X122773537Y-46644628D01*
X122898427Y-46016762D01*
X144551241Y-46016762D01*
X144778893Y-46567723D01*
X145200060Y-46989625D01*
X145750622Y-47218239D01*
X146346762Y-47218759D01*
X146897723Y-46991107D01*
X147319625Y-46569940D01*
X147479101Y-46185880D01*
X151721163Y-46185880D01*
X152017179Y-46902294D01*
X152564823Y-47450894D01*
X153280719Y-47748161D01*
X154055880Y-47748837D01*
X154772294Y-47452821D01*
X155320894Y-46905177D01*
X155618161Y-46189281D01*
X155618837Y-45414120D01*
X155322821Y-44697706D01*
X154775177Y-44149106D01*
X154059281Y-43851839D01*
X153284120Y-43851163D01*
X152567706Y-44147179D01*
X152019106Y-44694823D01*
X151721839Y-45410719D01*
X151721163Y-46185880D01*
X147479101Y-46185880D01*
X147548239Y-46019378D01*
X147548759Y-45423238D01*
X147321107Y-44872277D01*
X146899940Y-44450375D01*
X146349378Y-44221761D01*
X145753238Y-44221241D01*
X145202277Y-44448893D01*
X144780375Y-44870060D01*
X144551761Y-45420622D01*
X144551241Y-46016762D01*
X122898427Y-46016762D01*
X122948500Y-45765030D01*
X122948500Y-45674970D01*
X122773537Y-44795372D01*
X122275285Y-44049685D01*
X121529598Y-43551433D01*
X120650000Y-43376470D01*
X119770402Y-43551433D01*
X119024715Y-44049685D01*
X118526463Y-44795372D01*
X118351500Y-45674970D01*
X105168500Y-45674970D01*
X104993537Y-44795372D01*
X104495285Y-44049685D01*
X103749598Y-43551433D01*
X102870000Y-43376470D01*
X101990402Y-43551433D01*
X101244715Y-44049685D01*
X100746463Y-44795372D01*
X100571500Y-45674970D01*
X64341462Y-45674970D01*
X64588957Y-45509600D01*
X64913790Y-45023451D01*
X65027857Y-44450000D01*
X64913790Y-43876549D01*
X64588957Y-43390400D01*
X64274070Y-43180000D01*
X64588957Y-42969600D01*
X64913790Y-42483451D01*
X65027857Y-41910000D01*
X64913790Y-41336549D01*
X64588957Y-40850400D01*
X64102808Y-40525567D01*
X63529357Y-40411500D01*
X63470643Y-40411500D01*
X62897192Y-40525567D01*
X62411043Y-40850400D01*
X62086210Y-41336549D01*
X61972143Y-41910000D01*
X57392184Y-41910000D01*
X57392184Y-41110000D01*
X57343478Y-40851151D01*
X57190499Y-40613415D01*
X56957079Y-40453926D01*
X56680000Y-40397816D01*
X55080000Y-40397816D01*
X54821151Y-40446522D01*
X54583415Y-40599501D01*
X54423926Y-40832921D01*
X54367816Y-41110000D01*
X54367816Y-42710000D01*
X54416522Y-42968849D01*
X54569501Y-43206585D01*
X54802921Y-43366074D01*
X54821745Y-43369886D01*
X54791043Y-43390400D01*
X54466210Y-43876549D01*
X54352143Y-44450000D01*
X40788500Y-44450000D01*
X40788746Y-44169081D01*
X40573247Y-43647534D01*
X40174565Y-43248155D01*
X39653395Y-43031747D01*
X39089081Y-43031254D01*
X38567534Y-43246753D01*
X38168155Y-43645435D01*
X37951747Y-44166605D01*
X37951254Y-44730919D01*
X31547731Y-44730919D01*
X31613849Y-44718478D01*
X31851585Y-44565499D01*
X32011074Y-44332079D01*
X32067184Y-44055000D01*
X32067184Y-42305000D01*
X32045719Y-42190919D01*
X40491254Y-42190919D01*
X40706753Y-42712466D01*
X41105435Y-43111845D01*
X41626605Y-43328253D01*
X42190919Y-43328746D01*
X42712466Y-43113247D01*
X43111845Y-42714565D01*
X43328253Y-42193395D01*
X43328746Y-41629081D01*
X43113247Y-41107534D01*
X42714565Y-40708155D01*
X42193395Y-40491747D01*
X41629081Y-40491254D01*
X41107534Y-40706753D01*
X40708155Y-41105435D01*
X40491747Y-41626605D01*
X40491254Y-42190919D01*
X32045719Y-42190919D01*
X32018478Y-42046151D01*
X31865499Y-41808415D01*
X31694124Y-41691319D01*
X31813171Y-41572480D01*
X32053227Y-40994362D01*
X32053773Y-40368385D01*
X31814726Y-39789848D01*
X31676040Y-39650919D01*
X37951254Y-39650919D01*
X38166753Y-40172466D01*
X38565435Y-40571845D01*
X39086605Y-40788253D01*
X39650919Y-40788746D01*
X40172466Y-40573247D01*
X40571845Y-40174565D01*
X40788253Y-39653395D01*
X40788746Y-39089081D01*
X40573247Y-38567534D01*
X40174565Y-38168155D01*
X39653395Y-37951747D01*
X39089081Y-37951254D01*
X38567534Y-38166753D01*
X38168155Y-38565435D01*
X37951747Y-39086605D01*
X37951254Y-39650919D01*
X31676040Y-39650919D01*
X31372480Y-39346829D01*
X30794362Y-39106773D01*
X30168385Y-39106227D01*
X29589848Y-39345274D01*
X29146829Y-39787520D01*
X28906773Y-40365638D01*
X28906227Y-40991615D01*
X29145274Y-41570152D01*
X29267221Y-41692312D01*
X29108415Y-41794501D01*
X28948926Y-42027921D01*
X28892816Y-42305000D01*
X26148500Y-42305000D01*
X26148500Y-37126762D01*
X45491241Y-37126762D01*
X45718893Y-37677723D01*
X46140060Y-38099625D01*
X46690622Y-38328239D01*
X47286762Y-38328759D01*
X47837723Y-38101107D01*
X48259625Y-37679940D01*
X48488239Y-37129378D01*
X48488759Y-36533238D01*
X48261107Y-35982277D01*
X47839940Y-35560375D01*
X47289378Y-35331761D01*
X46693238Y-35331241D01*
X46142277Y-35558893D01*
X45720375Y-35980060D01*
X45491761Y-36530622D01*
X45491241Y-37126762D01*
X26148500Y-37126762D01*
X26148500Y-34626370D01*
X50371205Y-34626370D01*
X50629242Y-35250866D01*
X51106621Y-35729079D01*
X51121500Y-35735257D01*
X51121500Y-40464132D01*
X51109134Y-40469242D01*
X50630921Y-40946621D01*
X50371795Y-41570665D01*
X50371205Y-42246370D01*
X50629242Y-42870866D01*
X51106621Y-43349079D01*
X51730665Y-43608205D01*
X52406370Y-43608795D01*
X53030866Y-43350758D01*
X53509079Y-42873379D01*
X53768205Y-42249335D01*
X53768795Y-41573630D01*
X53510758Y-40949134D01*
X53033379Y-40470921D01*
X53018500Y-40464743D01*
X53018500Y-39370000D01*
X64512143Y-39370000D01*
X64626210Y-39943451D01*
X64951043Y-40429600D01*
X65437192Y-40754433D01*
X66010643Y-40868500D01*
X66069357Y-40868500D01*
X66642808Y-40754433D01*
X67128957Y-40429600D01*
X67453790Y-39943451D01*
X67508827Y-39666762D01*
X74701241Y-39666762D01*
X74928893Y-40217723D01*
X75350060Y-40639625D01*
X75900622Y-40868239D01*
X76496762Y-40868759D01*
X77047723Y-40641107D01*
X77469625Y-40219940D01*
X77698239Y-39669378D01*
X77698759Y-39073238D01*
X77471107Y-38522277D01*
X77049940Y-38100375D01*
X76499378Y-37871761D01*
X75903238Y-37871241D01*
X75352277Y-38098893D01*
X74930375Y-38520060D01*
X74701761Y-39070622D01*
X74701241Y-39666762D01*
X67508827Y-39666762D01*
X67567857Y-39370000D01*
X67453790Y-38796549D01*
X67128957Y-38310400D01*
X66642808Y-37985567D01*
X66069357Y-37871500D01*
X66010643Y-37871500D01*
X65437192Y-37985567D01*
X64951043Y-38310400D01*
X64626210Y-38796549D01*
X64512143Y-39370000D01*
X53018500Y-39370000D01*
X53018500Y-35735868D01*
X53030866Y-35730758D01*
X53509079Y-35253379D01*
X53768205Y-34629335D01*
X53768501Y-34290000D01*
X64512143Y-34290000D01*
X64626210Y-34863451D01*
X64951043Y-35349600D01*
X65437192Y-35674433D01*
X66010643Y-35788500D01*
X66069357Y-35788500D01*
X66642808Y-35674433D01*
X67128957Y-35349600D01*
X67453790Y-34863451D01*
X67508827Y-34586762D01*
X74701241Y-34586762D01*
X74928893Y-35137723D01*
X75350060Y-35559625D01*
X75900622Y-35788239D01*
X76496762Y-35788759D01*
X77047723Y-35561107D01*
X77469625Y-35139940D01*
X77698239Y-34589378D01*
X77698759Y-33993238D01*
X77471107Y-33442277D01*
X77049940Y-33020375D01*
X76499378Y-32791761D01*
X75903238Y-32791241D01*
X75352277Y-33018893D01*
X74930375Y-33440060D01*
X74701761Y-33990622D01*
X74701241Y-34586762D01*
X67508827Y-34586762D01*
X67567857Y-34290000D01*
X67453790Y-33716549D01*
X67128957Y-33230400D01*
X66642808Y-32905567D01*
X66069357Y-32791500D01*
X66010643Y-32791500D01*
X65437192Y-32905567D01*
X64951043Y-33230400D01*
X64626210Y-33716549D01*
X64512143Y-34290000D01*
X53768501Y-34290000D01*
X53768795Y-33953630D01*
X53510758Y-33329134D01*
X53033379Y-32850921D01*
X52409335Y-32591795D01*
X51733630Y-32591205D01*
X51109134Y-32849242D01*
X50630921Y-33326621D01*
X50371795Y-33950665D01*
X50371205Y-34626370D01*
X26148500Y-34626370D01*
X26148500Y-31941709D01*
X26568094Y-31941709D01*
X26925297Y-32462656D01*
X28343947Y-33089380D01*
X29894446Y-33125504D01*
X31340744Y-32565528D01*
X31494703Y-32462656D01*
X31851906Y-31941709D01*
X29210000Y-29299803D01*
X26568094Y-31941709D01*
X26148500Y-31941709D01*
X26148500Y-31625775D01*
X26478291Y-31851906D01*
X29120197Y-29210000D01*
X29299803Y-29210000D01*
X31941709Y-31851906D01*
X32462656Y-31494703D01*
X33089380Y-30076053D01*
X33125504Y-28525554D01*
X33029026Y-28276370D01*
X77041205Y-28276370D01*
X77299242Y-28900866D01*
X77776621Y-29379079D01*
X77791500Y-29385257D01*
X77791500Y-35384132D01*
X77779134Y-35389242D01*
X77300921Y-35866621D01*
X77041795Y-36490665D01*
X77041205Y-37166370D01*
X77299242Y-37790866D01*
X77776621Y-38269079D01*
X78400665Y-38528205D01*
X79076370Y-38528795D01*
X79700866Y-38270758D01*
X80179079Y-37793379D01*
X80438205Y-37169335D01*
X80438795Y-36493630D01*
X80205908Y-35930000D01*
X82207816Y-35930000D01*
X82207816Y-37730000D01*
X82256522Y-37988849D01*
X82409501Y-38226585D01*
X82593512Y-38352314D01*
X82343179Y-38726965D01*
X82221500Y-39338684D01*
X82221500Y-39401316D01*
X82343179Y-40013035D01*
X82689690Y-40531626D01*
X82851883Y-40640000D01*
X82689690Y-40748374D01*
X82343179Y-41266965D01*
X82221500Y-41878684D01*
X82221500Y-41941316D01*
X82343179Y-42553035D01*
X82689690Y-43071626D01*
X83208281Y-43418137D01*
X83820000Y-43539816D01*
X84431719Y-43418137D01*
X84950310Y-43071626D01*
X85296821Y-42553035D01*
X85418500Y-41941316D01*
X85418500Y-41878684D01*
X85296821Y-41266965D01*
X84950310Y-40748374D01*
X84788117Y-40640000D01*
X84950310Y-40531626D01*
X85296821Y-40013035D01*
X85418500Y-39401316D01*
X85418500Y-39338684D01*
X85296821Y-38726965D01*
X85045385Y-38350663D01*
X85216585Y-38240499D01*
X85376074Y-38007079D01*
X85432184Y-37730000D01*
X85432184Y-35930000D01*
X138087816Y-35930000D01*
X138087816Y-37730000D01*
X138136522Y-37988849D01*
X138289501Y-38226585D01*
X138473512Y-38352314D01*
X138223179Y-38726965D01*
X138101500Y-39338684D01*
X138101500Y-39401316D01*
X138223179Y-40013035D01*
X138569690Y-40531626D01*
X138731883Y-40640000D01*
X138569690Y-40748374D01*
X138223179Y-41266965D01*
X138101500Y-41878684D01*
X138101500Y-41941316D01*
X138223179Y-42553035D01*
X138569690Y-43071626D01*
X139088281Y-43418137D01*
X139700000Y-43539816D01*
X140311719Y-43418137D01*
X140830310Y-43071626D01*
X141176821Y-42553035D01*
X141298500Y-41941316D01*
X141298500Y-41878684D01*
X141176821Y-41266965D01*
X140830310Y-40748374D01*
X140668117Y-40640000D01*
X140830310Y-40531626D01*
X141176821Y-40013035D01*
X141298500Y-39401316D01*
X141298500Y-39338684D01*
X141176821Y-38726965D01*
X140925385Y-38350663D01*
X141096585Y-38240499D01*
X141256074Y-38007079D01*
X141312184Y-37730000D01*
X141312184Y-35930000D01*
X141263478Y-35671151D01*
X141110499Y-35433415D01*
X140877079Y-35273926D01*
X140600000Y-35217816D01*
X138800000Y-35217816D01*
X138541151Y-35266522D01*
X138303415Y-35419501D01*
X138143926Y-35652921D01*
X138087816Y-35930000D01*
X85432184Y-35930000D01*
X85383478Y-35671151D01*
X85230499Y-35433415D01*
X84997079Y-35273926D01*
X84720000Y-35217816D01*
X82920000Y-35217816D01*
X82661151Y-35266522D01*
X82423415Y-35419501D01*
X82263926Y-35652921D01*
X82207816Y-35930000D01*
X80205908Y-35930000D01*
X80180758Y-35869134D01*
X79703379Y-35390921D01*
X79688500Y-35384743D01*
X79688500Y-29385868D01*
X79700866Y-29380758D01*
X80179079Y-28903379D01*
X80188786Y-28880000D01*
X100557816Y-28880000D01*
X100557816Y-32080000D01*
X100606522Y-32338849D01*
X100759501Y-32576585D01*
X100992921Y-32736074D01*
X101270000Y-32792184D01*
X104470000Y-32792184D01*
X104728849Y-32743478D01*
X104966585Y-32590499D01*
X105126074Y-32357079D01*
X105182184Y-32080000D01*
X105182184Y-28880000D01*
X118337816Y-28880000D01*
X118337816Y-32080000D01*
X118386522Y-32338849D01*
X118539501Y-32576585D01*
X118772921Y-32736074D01*
X119050000Y-32792184D01*
X122250000Y-32792184D01*
X122508849Y-32743478D01*
X122746585Y-32590499D01*
X122906074Y-32357079D01*
X122962184Y-32080000D01*
X122962184Y-31941709D01*
X154838094Y-31941709D01*
X155195297Y-32462656D01*
X156613947Y-33089380D01*
X158164446Y-33125504D01*
X159610744Y-32565528D01*
X159764703Y-32462656D01*
X160121906Y-31941709D01*
X157480000Y-29299803D01*
X154838094Y-31941709D01*
X122962184Y-31941709D01*
X122962184Y-29894446D01*
X153564496Y-29894446D01*
X154124472Y-31340744D01*
X154227344Y-31494703D01*
X154748291Y-31851906D01*
X157390197Y-29210000D01*
X154748291Y-26568094D01*
X154227344Y-26925297D01*
X153600620Y-28343947D01*
X153564496Y-29894446D01*
X122962184Y-29894446D01*
X122962184Y-28880000D01*
X122913478Y-28621151D01*
X122760499Y-28383415D01*
X122527079Y-28223926D01*
X122250000Y-28167816D01*
X119050000Y-28167816D01*
X118791151Y-28216522D01*
X118553415Y-28369501D01*
X118393926Y-28602921D01*
X118337816Y-28880000D01*
X105182184Y-28880000D01*
X105133478Y-28621151D01*
X104980499Y-28383415D01*
X104747079Y-28223926D01*
X104470000Y-28167816D01*
X101270000Y-28167816D01*
X101011151Y-28216522D01*
X100773415Y-28369501D01*
X100613926Y-28602921D01*
X100557816Y-28880000D01*
X80188786Y-28880000D01*
X80438205Y-28279335D01*
X80438795Y-27603630D01*
X80180758Y-26979134D01*
X79703379Y-26500921D01*
X79079335Y-26241795D01*
X78403630Y-26241205D01*
X77779134Y-26499242D01*
X77300921Y-26976621D01*
X77041795Y-27600665D01*
X77041205Y-28276370D01*
X33029026Y-28276370D01*
X32565528Y-27079256D01*
X32462656Y-26925297D01*
X31941709Y-26568094D01*
X29299803Y-29210000D01*
X29120197Y-29210000D01*
X26478291Y-26568094D01*
X26148500Y-26794225D01*
X26148500Y-26148500D01*
X26794225Y-26148500D01*
X26568094Y-26478291D01*
M02*
