M48
;DRILL file {KiCad 4.0.7+dfsg1-1} date Mon May 14 00:45:54 2018
;FORMAT={3:3/ absolute / metric / suppress leading zeros}
FMAT,2
METRIC,TZ
T1C0.800
T2C1.000
T3C1.050
T4C1.300
T5C1.600
T6C3.200
%
G90
G05
M71
T1
X39370Y-39370
X39370Y-44450
X39370Y-50800
X39370Y-55880
X41910Y-41910
X41910Y-53340
X46990Y-36830
X46990Y-46990
X46990Y-52070
X46990Y-62230
X55880Y-41910
X55880Y-44450
X55880Y-46990
X55880Y-49530
X55880Y-52070
X55880Y-54610
X55880Y-57150
X63500Y-41910
X63500Y-44450
X63500Y-46990
X63500Y-49530
X63500Y-52070
X63500Y-54610
X63500Y-57150
X66040Y-34290
X66040Y-39370
X69850Y-52070
X69850Y-62230
X74930Y-52070
X74930Y-62230
X76200Y-34290
X76200Y-39370
X146050Y-45720
X146050Y-50720
T2
X52070Y-34290
X52070Y-41910
X52070Y-46990
X52070Y-54610
X71120Y-66040
X78740Y-27940
X78740Y-36830
X78740Y-66040
X83820Y-36830
X83820Y-39370
X83820Y-41910
X83820Y-55880
X83820Y-58420
X83820Y-60960
X139700Y-36830
X139700Y-39370
X139700Y-41910
X139700Y-55880
X139700Y-58420
X139700Y-60960
T3
X30480Y-40680
X30480Y-43180
X30480Y-52110
X30480Y-54610
T4
X91440Y-64770
X96440Y-64770
X109220Y-64770
X114220Y-64770
X127000Y-64770
X132000Y-64770
X153670Y-45800
X153670Y-50800
T5
X91440Y-49530
X96520Y-49530
X102870Y-30480
X102870Y-45720
X102870Y-50800
X102870Y-66040
X120650Y-30480
X120650Y-45720
X120650Y-50800
X120650Y-66040
X127000Y-49530
X132080Y-49530
T6
X29210Y-29210
X29210Y-68580
X157480Y-29210
X157480Y-68580
T0
M30
