G04 #@! TF.FileFunction,Soldermask,Bot*
%FSLAX46Y46*%
G04 Gerber Fmt 4.6, Leading zero omitted, Abs format (unit mm)*
G04 Created by KiCad (PCBNEW 4.0.7+dfsg1-1) date Mon May 14 00:45:41 2018*
%MOMM*%
%LPD*%
G01*
G04 APERTURE LIST*
%ADD10C,0.100000*%
%ADD11R,2.500000X2.500000*%
%ADD12C,2.500000*%
%ADD13R,1.600000X1.600000*%
%ADD14O,1.600000X1.600000*%
%ADD15C,1.600000*%
%ADD16R,1.800000X1.800000*%
%ADD17O,1.800000X1.800000*%
%ADD18C,1.440000*%
%ADD19R,1.750000X1.750000*%
%ADD20C,1.750000*%
%ADD21R,3.200000X3.200000*%
%ADD22O,3.200000X3.200000*%
%ADD23C,6.400000*%
G04 APERTURE END LIST*
D10*
D11*
X127000000Y-64770000D03*
D12*
X132000000Y-64770000D03*
D13*
X55880000Y-41910000D03*
D14*
X63500000Y-57150000D03*
X55880000Y-44450000D03*
X63500000Y-54610000D03*
X55880000Y-46990000D03*
X63500000Y-52070000D03*
X55880000Y-49530000D03*
X63500000Y-49530000D03*
X55880000Y-52070000D03*
X63500000Y-46990000D03*
X55880000Y-54610000D03*
X63500000Y-44450000D03*
X55880000Y-57150000D03*
X63500000Y-41910000D03*
D11*
X153670000Y-50800000D03*
D12*
X153670000Y-45800000D03*
D15*
X146050000Y-45720000D03*
X146050000Y-50720000D03*
D11*
X109220000Y-64770000D03*
D12*
X114220000Y-64770000D03*
D16*
X83820000Y-36830000D03*
D17*
X83820000Y-39370000D03*
X83820000Y-41910000D03*
D16*
X139700000Y-36830000D03*
D17*
X139700000Y-39370000D03*
X139700000Y-41910000D03*
D16*
X83820000Y-60960000D03*
D17*
X83820000Y-58420000D03*
X83820000Y-55880000D03*
D16*
X139700000Y-60960000D03*
D17*
X139700000Y-58420000D03*
X139700000Y-55880000D03*
D15*
X46990000Y-36830000D03*
D14*
X46990000Y-46990000D03*
D15*
X46990000Y-52070000D03*
D14*
X46990000Y-62230000D03*
D15*
X69850000Y-62230000D03*
D14*
X69850000Y-52070000D03*
D15*
X74930000Y-52070000D03*
D14*
X74930000Y-62230000D03*
D18*
X39370000Y-39370000D03*
X41910000Y-41910000D03*
X39370000Y-44450000D03*
X39370000Y-50800000D03*
X41910000Y-53340000D03*
X39370000Y-55880000D03*
D11*
X91440000Y-64770000D03*
D12*
X96440000Y-64770000D03*
D19*
X30480000Y-43180000D03*
D20*
X30480000Y-40680000D03*
D19*
X30480000Y-54610000D03*
D20*
X30480000Y-52110000D03*
D21*
X91440000Y-49530000D03*
D22*
X96520000Y-49530000D03*
D21*
X132080000Y-49530000D03*
D22*
X127000000Y-49530000D03*
D21*
X102870000Y-30480000D03*
D22*
X102870000Y-45720000D03*
D21*
X120650000Y-30480000D03*
D22*
X120650000Y-45720000D03*
D21*
X102870000Y-50800000D03*
D22*
X102870000Y-66040000D03*
D21*
X120650000Y-50800000D03*
D22*
X120650000Y-66040000D03*
D23*
X29210000Y-29210000D03*
X157480000Y-29210000D03*
X29210000Y-68580000D03*
X157480000Y-68580000D03*
D15*
X76200000Y-34290000D03*
D14*
X66040000Y-34290000D03*
D15*
X76200000Y-39370000D03*
D14*
X66040000Y-39370000D03*
M02*
