G04 #@! TF.FileFunction,Copper,L1,Top,Signal*
%FSLAX46Y46*%
G04 Gerber Fmt 4.6, Leading zero omitted, Abs format (unit mm)*
G04 Created by KiCad (PCBNEW 4.0.7+dfsg1-1) date Sat Dec  2 04:05:33 2017*
%MOMM*%
%LPD*%
G01*
G04 APERTURE LIST*
%ADD10C,0.100000*%
%ADD11R,2.500000X2.500000*%
%ADD12C,2.500000*%
%ADD13R,1.600000X1.600000*%
%ADD14O,1.600000X1.600000*%
%ADD15C,1.600000*%
%ADD16R,1.800000X1.800000*%
%ADD17O,1.800000X1.800000*%
%ADD18C,1.440000*%
%ADD19R,1.750000X1.750000*%
%ADD20C,1.750000*%
%ADD21R,3.200000X3.200000*%
%ADD22O,3.200000X3.200000*%
%ADD23C,6.400000*%
%ADD24C,2.000000*%
%ADD25C,0.500000*%
%ADD26C,0.254000*%
G04 APERTURE END LIST*
D10*
D11*
X127000000Y-64770000D03*
D12*
X132000000Y-64770000D03*
D13*
X55880000Y-41910000D03*
D14*
X63500000Y-57150000D03*
X55880000Y-44450000D03*
X63500000Y-54610000D03*
X55880000Y-46990000D03*
X63500000Y-52070000D03*
X55880000Y-49530000D03*
X63500000Y-49530000D03*
X55880000Y-52070000D03*
X63500000Y-46990000D03*
X55880000Y-54610000D03*
X63500000Y-44450000D03*
X55880000Y-57150000D03*
X63500000Y-41910000D03*
D11*
X153670000Y-50800000D03*
D12*
X153670000Y-45800000D03*
D15*
X146050000Y-45720000D03*
X146050000Y-50720000D03*
D13*
X72390000Y-44450000D03*
D15*
X72390000Y-47950000D03*
D11*
X109220000Y-64770000D03*
D12*
X114220000Y-64770000D03*
D16*
X83820000Y-36830000D03*
D17*
X83820000Y-39370000D03*
X83820000Y-41910000D03*
D16*
X139700000Y-36830000D03*
D17*
X139700000Y-39370000D03*
X139700000Y-41910000D03*
D16*
X83820000Y-60960000D03*
D17*
X83820000Y-58420000D03*
X83820000Y-55880000D03*
D16*
X139700000Y-60960000D03*
D17*
X139700000Y-58420000D03*
X139700000Y-55880000D03*
D15*
X46990000Y-36830000D03*
D14*
X46990000Y-46990000D03*
D15*
X46990000Y-52070000D03*
D14*
X46990000Y-62230000D03*
D15*
X69850000Y-62230000D03*
D14*
X69850000Y-52070000D03*
D15*
X74930000Y-52070000D03*
D14*
X74930000Y-62230000D03*
D18*
X39370000Y-39370000D03*
X41910000Y-41910000D03*
X39370000Y-44450000D03*
X39370000Y-50800000D03*
X41910000Y-53340000D03*
X39370000Y-55880000D03*
D11*
X91440000Y-64770000D03*
D12*
X96440000Y-64770000D03*
D19*
X30480000Y-43180000D03*
D20*
X30480000Y-40680000D03*
D19*
X30480000Y-54610000D03*
D20*
X30480000Y-52110000D03*
D21*
X91440000Y-49530000D03*
D22*
X96520000Y-49530000D03*
D21*
X132080000Y-49530000D03*
D22*
X127000000Y-49530000D03*
D21*
X102870000Y-30480000D03*
D22*
X102870000Y-45720000D03*
D21*
X120650000Y-30480000D03*
D22*
X120650000Y-45720000D03*
D21*
X102870000Y-50800000D03*
D22*
X102870000Y-66040000D03*
D21*
X120650000Y-50800000D03*
D22*
X120650000Y-66040000D03*
D23*
X29210000Y-29210000D03*
X157480000Y-29210000D03*
X29210000Y-68580000D03*
X157480000Y-68580000D03*
D24*
X52070000Y-34290000D03*
X52070000Y-41910000D03*
X72390000Y-64770000D03*
X78740000Y-64770000D03*
X78740000Y-36830000D03*
X78740000Y-27940000D03*
X52070000Y-46990000D03*
X52070000Y-54610000D03*
D25*
X52070000Y-34290000D02*
X52070000Y-41910000D01*
X72390000Y-64770000D02*
X78740000Y-64770000D01*
X78740000Y-27940000D02*
X78740000Y-36830000D01*
X52070000Y-46990000D02*
X52070000Y-54610000D01*
D26*
G36*
X154260827Y-26170435D02*
X154462500Y-26372108D01*
X153824430Y-26711054D01*
X153146389Y-28300200D01*
X153128101Y-30027856D01*
X153772349Y-31631001D01*
X153824430Y-31708946D01*
X154462502Y-32047893D01*
X157300395Y-29210000D01*
X157286253Y-29195858D01*
X157465858Y-29016253D01*
X157480000Y-29030395D01*
X157494143Y-29016253D01*
X157673748Y-29195858D01*
X157659605Y-29210000D01*
X157673748Y-29224143D01*
X157494143Y-29403748D01*
X157480000Y-29389605D01*
X154642107Y-32227498D01*
X154981054Y-32865570D01*
X156570200Y-33543611D01*
X158297856Y-33561899D01*
X159901001Y-32917651D01*
X159978946Y-32865570D01*
X160317892Y-32227500D01*
X160519565Y-32429173D01*
X160605000Y-32343738D01*
X160605000Y-65446262D01*
X160519565Y-65360827D01*
X160317892Y-65562500D01*
X159978946Y-64924430D01*
X158389800Y-64246389D01*
X156662144Y-64228101D01*
X155058999Y-64872349D01*
X154981054Y-64924430D01*
X154642107Y-65562502D01*
X157480000Y-68400395D01*
X157494143Y-68386253D01*
X157673748Y-68565858D01*
X157659605Y-68580000D01*
X157673748Y-68594143D01*
X157494143Y-68773748D01*
X157480000Y-68759605D01*
X157465858Y-68773748D01*
X157286253Y-68594143D01*
X157300395Y-68580000D01*
X154462502Y-65742107D01*
X153824430Y-66081054D01*
X153146389Y-67670200D01*
X153128101Y-69397856D01*
X153772349Y-71001001D01*
X153824430Y-71078946D01*
X154462500Y-71417892D01*
X154260827Y-71619565D01*
X154346262Y-71705000D01*
X32343738Y-71705000D01*
X32429173Y-71619565D01*
X32227500Y-71417892D01*
X32865570Y-71078946D01*
X33543611Y-69489800D01*
X33561899Y-67762144D01*
X32917651Y-66158999D01*
X32865570Y-66081054D01*
X32227498Y-65742107D01*
X29389605Y-68580000D01*
X29403748Y-68594143D01*
X29224143Y-68773748D01*
X29210000Y-68759605D01*
X29195858Y-68773748D01*
X29016253Y-68594143D01*
X29030395Y-68580000D01*
X29016253Y-68565858D01*
X29195858Y-68386253D01*
X29210000Y-68400395D01*
X32047893Y-65562502D01*
X31798914Y-65093795D01*
X70754716Y-65093795D01*
X71003106Y-65694943D01*
X71462637Y-66155278D01*
X72063352Y-66404716D01*
X72713795Y-66405284D01*
X73314943Y-66156894D01*
X73775278Y-65697363D01*
X73792869Y-65655000D01*
X77336602Y-65655000D01*
X77353106Y-65694943D01*
X77812637Y-66155278D01*
X78413352Y-66404716D01*
X79063795Y-66405284D01*
X79664943Y-66156894D01*
X80125278Y-65697363D01*
X80374716Y-65096648D01*
X80375284Y-64446205D01*
X80126894Y-63845057D01*
X79802405Y-63520000D01*
X89542560Y-63520000D01*
X89542560Y-66020000D01*
X89586838Y-66255317D01*
X89725910Y-66471441D01*
X89938110Y-66616431D01*
X90190000Y-66667440D01*
X92690000Y-66667440D01*
X92925317Y-66623162D01*
X93141441Y-66484090D01*
X93286431Y-66271890D01*
X93337440Y-66020000D01*
X93337440Y-65143305D01*
X94554674Y-65143305D01*
X94841043Y-65836372D01*
X95370839Y-66367093D01*
X96063405Y-66654672D01*
X96813305Y-66655326D01*
X96961539Y-66594077D01*
X100183538Y-66594077D01*
X100600069Y-67579965D01*
X101362176Y-68331407D01*
X102315924Y-68726456D01*
X102743000Y-68493966D01*
X102743000Y-66167000D01*
X102997000Y-66167000D01*
X102997000Y-68493966D01*
X103424076Y-68726456D01*
X104377824Y-68331407D01*
X105139931Y-67579965D01*
X105556462Y-66594077D01*
X105324314Y-66167000D01*
X102997000Y-66167000D01*
X102743000Y-66167000D01*
X100415686Y-66167000D01*
X100183538Y-66594077D01*
X96961539Y-66594077D01*
X97506372Y-66368957D01*
X98037093Y-65839161D01*
X98183770Y-65485923D01*
X100183538Y-65485923D01*
X100415686Y-65913000D01*
X102743000Y-65913000D01*
X102743000Y-63586034D01*
X102997000Y-63586034D01*
X102997000Y-65913000D01*
X105324314Y-65913000D01*
X105556462Y-65485923D01*
X105139931Y-64500035D01*
X104377824Y-63748593D01*
X103825943Y-63520000D01*
X107322560Y-63520000D01*
X107322560Y-66020000D01*
X107366838Y-66255317D01*
X107505910Y-66471441D01*
X107718110Y-66616431D01*
X107970000Y-66667440D01*
X110470000Y-66667440D01*
X110705317Y-66623162D01*
X110921441Y-66484090D01*
X111066431Y-66271890D01*
X111117440Y-66020000D01*
X111117440Y-65143305D01*
X112334674Y-65143305D01*
X112621043Y-65836372D01*
X113150839Y-66367093D01*
X113843405Y-66654672D01*
X114593305Y-66655326D01*
X114741539Y-66594077D01*
X117963538Y-66594077D01*
X118380069Y-67579965D01*
X119142176Y-68331407D01*
X120095924Y-68726456D01*
X120523000Y-68493966D01*
X120523000Y-66167000D01*
X120777000Y-66167000D01*
X120777000Y-68493966D01*
X121204076Y-68726456D01*
X122157824Y-68331407D01*
X122919931Y-67579965D01*
X123336462Y-66594077D01*
X123104314Y-66167000D01*
X120777000Y-66167000D01*
X120523000Y-66167000D01*
X118195686Y-66167000D01*
X117963538Y-66594077D01*
X114741539Y-66594077D01*
X115286372Y-66368957D01*
X115817093Y-65839161D01*
X115963770Y-65485923D01*
X117963538Y-65485923D01*
X118195686Y-65913000D01*
X120523000Y-65913000D01*
X120523000Y-63586034D01*
X120777000Y-63586034D01*
X120777000Y-65913000D01*
X123104314Y-65913000D01*
X123336462Y-65485923D01*
X122919931Y-64500035D01*
X122157824Y-63748593D01*
X121605943Y-63520000D01*
X125102560Y-63520000D01*
X125102560Y-66020000D01*
X125146838Y-66255317D01*
X125285910Y-66471441D01*
X125498110Y-66616431D01*
X125750000Y-66667440D01*
X128250000Y-66667440D01*
X128485317Y-66623162D01*
X128701441Y-66484090D01*
X128846431Y-66271890D01*
X128897440Y-66020000D01*
X128897440Y-65143305D01*
X130114674Y-65143305D01*
X130401043Y-65836372D01*
X130930839Y-66367093D01*
X131623405Y-66654672D01*
X132373305Y-66655326D01*
X133066372Y-66368957D01*
X133597093Y-65839161D01*
X133884672Y-65146595D01*
X133885326Y-64396695D01*
X133598957Y-63703628D01*
X133069161Y-63172907D01*
X132376595Y-62885328D01*
X131626695Y-62884674D01*
X130933628Y-63171043D01*
X130402907Y-63700839D01*
X130115328Y-64393405D01*
X130114674Y-65143305D01*
X128897440Y-65143305D01*
X128897440Y-63520000D01*
X128853162Y-63284683D01*
X128714090Y-63068559D01*
X128501890Y-62923569D01*
X128250000Y-62872560D01*
X125750000Y-62872560D01*
X125514683Y-62916838D01*
X125298559Y-63055910D01*
X125153569Y-63268110D01*
X125102560Y-63520000D01*
X121605943Y-63520000D01*
X121204076Y-63353544D01*
X120777000Y-63586034D01*
X120523000Y-63586034D01*
X120095924Y-63353544D01*
X119142176Y-63748593D01*
X118380069Y-64500035D01*
X117963538Y-65485923D01*
X115963770Y-65485923D01*
X116104672Y-65146595D01*
X116105326Y-64396695D01*
X115818957Y-63703628D01*
X115289161Y-63172907D01*
X114596595Y-62885328D01*
X113846695Y-62884674D01*
X113153628Y-63171043D01*
X112622907Y-63700839D01*
X112335328Y-64393405D01*
X112334674Y-65143305D01*
X111117440Y-65143305D01*
X111117440Y-63520000D01*
X111073162Y-63284683D01*
X110934090Y-63068559D01*
X110721890Y-62923569D01*
X110470000Y-62872560D01*
X107970000Y-62872560D01*
X107734683Y-62916838D01*
X107518559Y-63055910D01*
X107373569Y-63268110D01*
X107322560Y-63520000D01*
X103825943Y-63520000D01*
X103424076Y-63353544D01*
X102997000Y-63586034D01*
X102743000Y-63586034D01*
X102315924Y-63353544D01*
X101362176Y-63748593D01*
X100600069Y-64500035D01*
X100183538Y-65485923D01*
X98183770Y-65485923D01*
X98324672Y-65146595D01*
X98325326Y-64396695D01*
X98038957Y-63703628D01*
X97509161Y-63172907D01*
X96816595Y-62885328D01*
X96066695Y-62884674D01*
X95373628Y-63171043D01*
X94842907Y-63700839D01*
X94555328Y-64393405D01*
X94554674Y-65143305D01*
X93337440Y-65143305D01*
X93337440Y-63520000D01*
X93293162Y-63284683D01*
X93154090Y-63068559D01*
X92941890Y-62923569D01*
X92690000Y-62872560D01*
X90190000Y-62872560D01*
X89954683Y-62916838D01*
X89738559Y-63055910D01*
X89593569Y-63268110D01*
X89542560Y-63520000D01*
X79802405Y-63520000D01*
X79667363Y-63384722D01*
X79066648Y-63135284D01*
X78416205Y-63134716D01*
X77815057Y-63383106D01*
X77354722Y-63842637D01*
X77337131Y-63885000D01*
X75938426Y-63885000D01*
X75966883Y-63873213D01*
X76516785Y-63351333D01*
X76825114Y-62658740D01*
X76583102Y-62357000D01*
X75057000Y-62357000D01*
X75057000Y-62377000D01*
X74803000Y-62377000D01*
X74803000Y-62357000D01*
X73276898Y-62357000D01*
X73034886Y-62658740D01*
X73343215Y-63351333D01*
X73893117Y-63873213D01*
X73921574Y-63885000D01*
X73793398Y-63885000D01*
X73776894Y-63845057D01*
X73317363Y-63384722D01*
X72716648Y-63135284D01*
X72066205Y-63134716D01*
X71465057Y-63383106D01*
X71004722Y-63842637D01*
X70755284Y-64443352D01*
X70754716Y-65093795D01*
X31798914Y-65093795D01*
X31708946Y-64924430D01*
X30119800Y-64246389D01*
X28392144Y-64228101D01*
X26788999Y-64872349D01*
X26711054Y-64924430D01*
X26372108Y-65562500D01*
X26170435Y-65360827D01*
X26085000Y-65446262D01*
X26085000Y-62658740D01*
X45094886Y-62658740D01*
X45403215Y-63351333D01*
X45953117Y-63873213D01*
X46561261Y-64125107D01*
X46863000Y-63882377D01*
X46863000Y-62357000D01*
X47117000Y-62357000D01*
X47117000Y-63882377D01*
X47418739Y-64125107D01*
X48026883Y-63873213D01*
X48576785Y-63351333D01*
X48885114Y-62658740D01*
X48769175Y-62514187D01*
X68414752Y-62514187D01*
X68632757Y-63041800D01*
X69036077Y-63445824D01*
X69563309Y-63664750D01*
X70134187Y-63665248D01*
X70661800Y-63447243D01*
X71065824Y-63043923D01*
X71284750Y-62516691D01*
X71285248Y-61945813D01*
X71225520Y-61801260D01*
X73034886Y-61801260D01*
X73276898Y-62103000D01*
X74803000Y-62103000D01*
X74803000Y-60577623D01*
X75057000Y-60577623D01*
X75057000Y-62103000D01*
X76583102Y-62103000D01*
X76825114Y-61801260D01*
X76516785Y-61108667D01*
X75966883Y-60586787D01*
X75358739Y-60334893D01*
X75057000Y-60577623D01*
X74803000Y-60577623D01*
X74501261Y-60334893D01*
X73893117Y-60586787D01*
X73343215Y-61108667D01*
X73034886Y-61801260D01*
X71225520Y-61801260D01*
X71067243Y-61418200D01*
X70663923Y-61014176D01*
X70136691Y-60795250D01*
X69565813Y-60794752D01*
X69038200Y-61012757D01*
X68634176Y-61416077D01*
X68415250Y-61943309D01*
X68414752Y-62514187D01*
X48769175Y-62514187D01*
X48643102Y-62357000D01*
X47117000Y-62357000D01*
X46863000Y-62357000D01*
X45336898Y-62357000D01*
X45094886Y-62658740D01*
X26085000Y-62658740D01*
X26085000Y-61801260D01*
X45094886Y-61801260D01*
X45336898Y-62103000D01*
X46863000Y-62103000D01*
X46863000Y-60577623D01*
X47117000Y-60577623D01*
X47117000Y-62103000D01*
X48643102Y-62103000D01*
X48885114Y-61801260D01*
X48576785Y-61108667D01*
X48026883Y-60586787D01*
X47418739Y-60334893D01*
X47117000Y-60577623D01*
X46863000Y-60577623D01*
X46561261Y-60334893D01*
X45953117Y-60586787D01*
X45403215Y-61108667D01*
X45094886Y-61801260D01*
X26085000Y-61801260D01*
X26085000Y-58864415D01*
X81825915Y-58864415D01*
X82147776Y-59593689D01*
X82342799Y-59779966D01*
X82323569Y-59808110D01*
X82272560Y-60060000D01*
X82272560Y-61860000D01*
X82316838Y-62095317D01*
X82455910Y-62311441D01*
X82668110Y-62456431D01*
X82920000Y-62507440D01*
X84720000Y-62507440D01*
X84955317Y-62463162D01*
X85171441Y-62324090D01*
X85316431Y-62111890D01*
X85367440Y-61860000D01*
X85367440Y-60060000D01*
X85323162Y-59824683D01*
X85295458Y-59781630D01*
X85492224Y-59593689D01*
X85814085Y-58864415D01*
X137705915Y-58864415D01*
X138027776Y-59593689D01*
X138222799Y-59779966D01*
X138203569Y-59808110D01*
X138152560Y-60060000D01*
X138152560Y-61860000D01*
X138196838Y-62095317D01*
X138335910Y-62311441D01*
X138548110Y-62456431D01*
X138800000Y-62507440D01*
X140600000Y-62507440D01*
X140835317Y-62463162D01*
X141051441Y-62324090D01*
X141196431Y-62111890D01*
X141247440Y-61860000D01*
X141247440Y-60060000D01*
X141203162Y-59824683D01*
X141175458Y-59781630D01*
X141372224Y-59593689D01*
X141694085Y-58864415D01*
X141453306Y-58547000D01*
X139827000Y-58547000D01*
X139827000Y-58567000D01*
X139573000Y-58567000D01*
X139573000Y-58547000D01*
X137946694Y-58547000D01*
X137705915Y-58864415D01*
X85814085Y-58864415D01*
X85573306Y-58547000D01*
X83947000Y-58547000D01*
X83947000Y-58567000D01*
X83693000Y-58567000D01*
X83693000Y-58547000D01*
X82066694Y-58547000D01*
X81825915Y-58864415D01*
X26085000Y-58864415D01*
X26085000Y-55022750D01*
X28462000Y-55022750D01*
X28462000Y-55712357D01*
X28636011Y-56132458D01*
X28957543Y-56453989D01*
X29377643Y-56628000D01*
X30067250Y-56628000D01*
X30353000Y-56342250D01*
X30353000Y-54737000D01*
X30607000Y-54737000D01*
X30607000Y-56342250D01*
X30892750Y-56628000D01*
X31582357Y-56628000D01*
X32002457Y-56453989D01*
X32308102Y-56148344D01*
X38014765Y-56148344D01*
X38220617Y-56646543D01*
X38601452Y-57028043D01*
X39099291Y-57234764D01*
X39638344Y-57235235D01*
X40136543Y-57029383D01*
X40518043Y-56648548D01*
X40724764Y-56150709D01*
X40725235Y-55611656D01*
X40519383Y-55113457D01*
X40138548Y-54731957D01*
X39640709Y-54525236D01*
X39101656Y-54524765D01*
X38603457Y-54730617D01*
X38221957Y-55111452D01*
X38015236Y-55609291D01*
X38014765Y-56148344D01*
X32308102Y-56148344D01*
X32323989Y-56132458D01*
X32498000Y-55712357D01*
X32498000Y-55022750D01*
X32212250Y-54737000D01*
X30607000Y-54737000D01*
X30353000Y-54737000D01*
X28747750Y-54737000D01*
X28462000Y-55022750D01*
X26085000Y-55022750D01*
X26085000Y-53507643D01*
X28462000Y-53507643D01*
X28462000Y-54197250D01*
X28747750Y-54483000D01*
X30353000Y-54483000D01*
X30353000Y-54463000D01*
X30607000Y-54463000D01*
X30607000Y-54483000D01*
X32212250Y-54483000D01*
X32498000Y-54197250D01*
X32498000Y-53608344D01*
X40554765Y-53608344D01*
X40760617Y-54106543D01*
X41141452Y-54488043D01*
X41639291Y-54694764D01*
X42178344Y-54695235D01*
X42676543Y-54489383D01*
X43058043Y-54108548D01*
X43264764Y-53610709D01*
X43265235Y-53071656D01*
X43059383Y-52573457D01*
X42840496Y-52354187D01*
X45554752Y-52354187D01*
X45772757Y-52881800D01*
X46176077Y-53285824D01*
X46703309Y-53504750D01*
X47274187Y-53505248D01*
X47801800Y-53287243D01*
X48205824Y-52883923D01*
X48424750Y-52356691D01*
X48425248Y-51785813D01*
X48207243Y-51258200D01*
X47803923Y-50854176D01*
X47276691Y-50635250D01*
X46705813Y-50634752D01*
X46178200Y-50852757D01*
X45774176Y-51256077D01*
X45555250Y-51783309D01*
X45554752Y-52354187D01*
X42840496Y-52354187D01*
X42678548Y-52191957D01*
X42180709Y-51985236D01*
X41641656Y-51984765D01*
X41143457Y-52190617D01*
X40761957Y-52571452D01*
X40555236Y-53069291D01*
X40554765Y-53608344D01*
X32498000Y-53608344D01*
X32498000Y-53507643D01*
X32323989Y-53087542D01*
X32002457Y-52766011D01*
X31866064Y-52709515D01*
X31989738Y-52411675D01*
X31990262Y-51810960D01*
X31760862Y-51255771D01*
X31573763Y-51068344D01*
X38014765Y-51068344D01*
X38220617Y-51566543D01*
X38601452Y-51948043D01*
X39099291Y-52154764D01*
X39638344Y-52155235D01*
X40136543Y-51949383D01*
X40518043Y-51568548D01*
X40724764Y-51070709D01*
X40725235Y-50531656D01*
X40519383Y-50033457D01*
X40138548Y-49651957D01*
X39640709Y-49445236D01*
X39101656Y-49444765D01*
X38603457Y-49650617D01*
X38221957Y-50031452D01*
X38015236Y-50529291D01*
X38014765Y-51068344D01*
X31573763Y-51068344D01*
X31336463Y-50830630D01*
X30781675Y-50600262D01*
X30180960Y-50599738D01*
X29625771Y-50829138D01*
X29200630Y-51253537D01*
X28970262Y-51808325D01*
X28969738Y-52409040D01*
X29093899Y-52709531D01*
X28957543Y-52766011D01*
X28636011Y-53087542D01*
X28462000Y-53507643D01*
X26085000Y-53507643D01*
X26085000Y-46961887D01*
X45555000Y-46961887D01*
X45555000Y-47018113D01*
X45664233Y-47567264D01*
X45975302Y-48032811D01*
X46440849Y-48343880D01*
X46990000Y-48453113D01*
X47539151Y-48343880D01*
X48004698Y-48032811D01*
X48315767Y-47567264D01*
X48366185Y-47313795D01*
X50434716Y-47313795D01*
X50683106Y-47914943D01*
X51142637Y-48375278D01*
X51185000Y-48392869D01*
X51185000Y-53206602D01*
X51145057Y-53223106D01*
X50684722Y-53682637D01*
X50435284Y-54283352D01*
X50434716Y-54933795D01*
X50683106Y-55534943D01*
X51142637Y-55995278D01*
X51743352Y-56244716D01*
X52393795Y-56245284D01*
X52994943Y-55996894D01*
X53455278Y-55537363D01*
X53704716Y-54936648D01*
X53705284Y-54286205D01*
X53456894Y-53685057D01*
X52997363Y-53224722D01*
X52955000Y-53207131D01*
X52955000Y-48393398D01*
X52994943Y-48376894D01*
X53455278Y-47917363D01*
X53704716Y-47316648D01*
X53705284Y-46666205D01*
X53456894Y-46065057D01*
X52997363Y-45604722D01*
X52396648Y-45355284D01*
X51746205Y-45354716D01*
X51145057Y-45603106D01*
X50684722Y-46062637D01*
X50435284Y-46663352D01*
X50434716Y-47313795D01*
X48366185Y-47313795D01*
X48425000Y-47018113D01*
X48425000Y-46961887D01*
X48315767Y-46412736D01*
X48004698Y-45947189D01*
X47539151Y-45636120D01*
X46990000Y-45526887D01*
X46440849Y-45636120D01*
X45975302Y-45947189D01*
X45664233Y-46412736D01*
X45555000Y-46961887D01*
X26085000Y-46961887D01*
X26085000Y-44718344D01*
X38014765Y-44718344D01*
X38220617Y-45216543D01*
X38601452Y-45598043D01*
X39099291Y-45804764D01*
X39638344Y-45805235D01*
X40136543Y-45599383D01*
X40518043Y-45218548D01*
X40724764Y-44720709D01*
X40725000Y-44450000D01*
X54416887Y-44450000D01*
X54526120Y-44999151D01*
X54837189Y-45464698D01*
X55219275Y-45720000D01*
X54837189Y-45975302D01*
X54526120Y-46440849D01*
X54416887Y-46990000D01*
X54526120Y-47539151D01*
X54837189Y-48004698D01*
X55219275Y-48260000D01*
X54837189Y-48515302D01*
X54526120Y-48980849D01*
X54416887Y-49530000D01*
X54526120Y-50079151D01*
X54837189Y-50544698D01*
X55219275Y-50800000D01*
X54837189Y-51055302D01*
X54526120Y-51520849D01*
X54416887Y-52070000D01*
X54526120Y-52619151D01*
X54837189Y-53084698D01*
X55219275Y-53340000D01*
X54837189Y-53595302D01*
X54526120Y-54060849D01*
X54416887Y-54610000D01*
X54526120Y-55159151D01*
X54837189Y-55624698D01*
X55219275Y-55880000D01*
X54837189Y-56135302D01*
X54526120Y-56600849D01*
X54416887Y-57150000D01*
X54526120Y-57699151D01*
X54837189Y-58164698D01*
X55302736Y-58475767D01*
X55851887Y-58585000D01*
X55908113Y-58585000D01*
X56457264Y-58475767D01*
X56922811Y-58164698D01*
X57233880Y-57699151D01*
X57343113Y-57150000D01*
X57233880Y-56600849D01*
X56922811Y-56135302D01*
X56540725Y-55880000D01*
X56922811Y-55624698D01*
X57233880Y-55159151D01*
X57343113Y-54610000D01*
X57233880Y-54060849D01*
X56922811Y-53595302D01*
X56540725Y-53340000D01*
X56922811Y-53084698D01*
X57233880Y-52619151D01*
X57343113Y-52070000D01*
X57233880Y-51520849D01*
X56922811Y-51055302D01*
X56540725Y-50800000D01*
X56922811Y-50544698D01*
X57233880Y-50079151D01*
X57257831Y-49958739D01*
X61604893Y-49958739D01*
X61856787Y-50566883D01*
X62378667Y-51116785D01*
X62407524Y-51129631D01*
X62146120Y-51520849D01*
X62036887Y-52070000D01*
X62146120Y-52619151D01*
X62457189Y-53084698D01*
X62839275Y-53340000D01*
X62457189Y-53595302D01*
X62146120Y-54060849D01*
X62036887Y-54610000D01*
X62146120Y-55159151D01*
X62457189Y-55624698D01*
X62839275Y-55880000D01*
X62457189Y-56135302D01*
X62146120Y-56600849D01*
X62036887Y-57150000D01*
X62146120Y-57699151D01*
X62457189Y-58164698D01*
X62922736Y-58475767D01*
X63471887Y-58585000D01*
X63528113Y-58585000D01*
X64077264Y-58475767D01*
X64542811Y-58164698D01*
X64669172Y-57975585D01*
X81825915Y-57975585D01*
X82066694Y-58293000D01*
X83693000Y-58293000D01*
X83693000Y-58273000D01*
X83947000Y-58273000D01*
X83947000Y-58293000D01*
X85573306Y-58293000D01*
X85814085Y-57975585D01*
X137705915Y-57975585D01*
X137946694Y-58293000D01*
X139573000Y-58293000D01*
X139573000Y-58273000D01*
X139827000Y-58273000D01*
X139827000Y-58293000D01*
X141453306Y-58293000D01*
X141694085Y-57975585D01*
X141372224Y-57246311D01*
X140911714Y-56806453D01*
X141118155Y-56497491D01*
X141235000Y-55910072D01*
X141235000Y-55849928D01*
X141118155Y-55262509D01*
X140785409Y-54764519D01*
X140287419Y-54431773D01*
X139700000Y-54314928D01*
X139112581Y-54431773D01*
X138614591Y-54764519D01*
X138281845Y-55262509D01*
X138165000Y-55849928D01*
X138165000Y-55910072D01*
X138281845Y-56497491D01*
X138488286Y-56806453D01*
X138027776Y-57246311D01*
X137705915Y-57975585D01*
X85814085Y-57975585D01*
X85492224Y-57246311D01*
X85031714Y-56806453D01*
X85238155Y-56497491D01*
X85355000Y-55910072D01*
X85355000Y-55849928D01*
X85238155Y-55262509D01*
X84905409Y-54764519D01*
X84407419Y-54431773D01*
X83820000Y-54314928D01*
X83232581Y-54431773D01*
X82734591Y-54764519D01*
X82401845Y-55262509D01*
X82285000Y-55849928D01*
X82285000Y-55910072D01*
X82401845Y-56497491D01*
X82608286Y-56806453D01*
X82147776Y-57246311D01*
X81825915Y-57975585D01*
X64669172Y-57975585D01*
X64853880Y-57699151D01*
X64963113Y-57150000D01*
X64853880Y-56600849D01*
X64542811Y-56135302D01*
X64160725Y-55880000D01*
X64542811Y-55624698D01*
X64853880Y-55159151D01*
X64963113Y-54610000D01*
X64853880Y-54060849D01*
X64542811Y-53595302D01*
X64160725Y-53340000D01*
X64542811Y-53084698D01*
X64853880Y-52619151D01*
X64963113Y-52070000D01*
X64957521Y-52041887D01*
X68415000Y-52041887D01*
X68415000Y-52098113D01*
X68524233Y-52647264D01*
X68835302Y-53112811D01*
X69300849Y-53423880D01*
X69850000Y-53533113D01*
X70399151Y-53423880D01*
X70864698Y-53112811D01*
X71175767Y-52647264D01*
X71234063Y-52354187D01*
X73494752Y-52354187D01*
X73712757Y-52881800D01*
X74116077Y-53285824D01*
X74643309Y-53504750D01*
X75214187Y-53505248D01*
X75741800Y-53287243D01*
X76145824Y-52883923D01*
X76364750Y-52356691D01*
X76365248Y-51785813D01*
X76147243Y-51258200D01*
X75743923Y-50854176D01*
X75216691Y-50635250D01*
X74645813Y-50634752D01*
X74118200Y-50852757D01*
X73714176Y-51256077D01*
X73495250Y-51783309D01*
X73494752Y-52354187D01*
X71234063Y-52354187D01*
X71285000Y-52098113D01*
X71285000Y-52041887D01*
X71175767Y-51492736D01*
X70864698Y-51027189D01*
X70399151Y-50716120D01*
X69850000Y-50606887D01*
X69300849Y-50716120D01*
X68835302Y-51027189D01*
X68524233Y-51492736D01*
X68415000Y-52041887D01*
X64957521Y-52041887D01*
X64853880Y-51520849D01*
X64592476Y-51129631D01*
X64621333Y-51116785D01*
X65143213Y-50566883D01*
X65395107Y-49958739D01*
X65152377Y-49657000D01*
X63627000Y-49657000D01*
X63627000Y-49677000D01*
X63373000Y-49677000D01*
X63373000Y-49657000D01*
X61847623Y-49657000D01*
X61604893Y-49958739D01*
X57257831Y-49958739D01*
X57343113Y-49530000D01*
X57257832Y-49101261D01*
X61604893Y-49101261D01*
X61847623Y-49403000D01*
X63373000Y-49403000D01*
X63373000Y-49383000D01*
X63627000Y-49383000D01*
X63627000Y-49403000D01*
X65152377Y-49403000D01*
X65287359Y-49235203D01*
X71284402Y-49235203D01*
X71330699Y-49624068D01*
X72051971Y-49902014D01*
X72824706Y-49882784D01*
X73449301Y-49624068D01*
X73495598Y-49235203D01*
X72390000Y-48129605D01*
X71284402Y-49235203D01*
X65287359Y-49235203D01*
X65395107Y-49101261D01*
X65143213Y-48493117D01*
X64621333Y-47943215D01*
X64592476Y-47930369D01*
X64805223Y-47611971D01*
X70437986Y-47611971D01*
X70457216Y-48384706D01*
X70715932Y-49009301D01*
X71104797Y-49055598D01*
X72210395Y-47950000D01*
X72569605Y-47950000D01*
X73675203Y-49055598D01*
X74064068Y-49009301D01*
X74342014Y-48288029D01*
X74333105Y-47930000D01*
X89192560Y-47930000D01*
X89192560Y-51130000D01*
X89236838Y-51365317D01*
X89375910Y-51581441D01*
X89588110Y-51726431D01*
X89840000Y-51777440D01*
X93040000Y-51777440D01*
X93275317Y-51733162D01*
X93491441Y-51594090D01*
X93636431Y-51381890D01*
X93687440Y-51130000D01*
X93687440Y-49530000D01*
X94241214Y-49530000D01*
X94411343Y-50385297D01*
X94895830Y-51110384D01*
X95620917Y-51594871D01*
X96476214Y-51765000D01*
X96563786Y-51765000D01*
X97419083Y-51594871D01*
X98144170Y-51110384D01*
X98628657Y-50385297D01*
X98798786Y-49530000D01*
X98733145Y-49200000D01*
X100622560Y-49200000D01*
X100622560Y-52400000D01*
X100666838Y-52635317D01*
X100805910Y-52851441D01*
X101018110Y-52996431D01*
X101270000Y-53047440D01*
X104470000Y-53047440D01*
X104705317Y-53003162D01*
X104921441Y-52864090D01*
X105066431Y-52651890D01*
X105117440Y-52400000D01*
X105117440Y-49200000D01*
X118402560Y-49200000D01*
X118402560Y-52400000D01*
X118446838Y-52635317D01*
X118585910Y-52851441D01*
X118798110Y-52996431D01*
X119050000Y-53047440D01*
X122250000Y-53047440D01*
X122485317Y-53003162D01*
X122701441Y-52864090D01*
X122846431Y-52651890D01*
X122897440Y-52400000D01*
X122897440Y-52005203D01*
X144944402Y-52005203D01*
X144990699Y-52394068D01*
X145711971Y-52672014D01*
X146484706Y-52652784D01*
X147109301Y-52394068D01*
X147155598Y-52005203D01*
X146050000Y-50899605D01*
X144944402Y-52005203D01*
X122897440Y-52005203D01*
X122897440Y-49530000D01*
X124721214Y-49530000D01*
X124891343Y-50385297D01*
X125375830Y-51110384D01*
X126100917Y-51594871D01*
X126956214Y-51765000D01*
X127043786Y-51765000D01*
X127899083Y-51594871D01*
X128624170Y-51110384D01*
X129108657Y-50385297D01*
X129278786Y-49530000D01*
X129108657Y-48674703D01*
X128624170Y-47949616D01*
X128594813Y-47930000D01*
X129832560Y-47930000D01*
X129832560Y-51130000D01*
X129876838Y-51365317D01*
X130015910Y-51581441D01*
X130228110Y-51726431D01*
X130480000Y-51777440D01*
X133680000Y-51777440D01*
X133915317Y-51733162D01*
X134131441Y-51594090D01*
X134276431Y-51381890D01*
X134327440Y-51130000D01*
X134327440Y-50381971D01*
X144097986Y-50381971D01*
X144117216Y-51154706D01*
X144375932Y-51779301D01*
X144764797Y-51825598D01*
X145870395Y-50720000D01*
X146229605Y-50720000D01*
X147335203Y-51825598D01*
X147724068Y-51779301D01*
X147942391Y-51212750D01*
X151277000Y-51212750D01*
X151277000Y-52277357D01*
X151451011Y-52697458D01*
X151772543Y-53018989D01*
X152192643Y-53193000D01*
X153257250Y-53193000D01*
X153543000Y-52907250D01*
X153543000Y-50927000D01*
X153797000Y-50927000D01*
X153797000Y-52907250D01*
X154082750Y-53193000D01*
X155147357Y-53193000D01*
X155567457Y-53018989D01*
X155888989Y-52697458D01*
X156063000Y-52277357D01*
X156063000Y-51212750D01*
X155777250Y-50927000D01*
X153797000Y-50927000D01*
X153543000Y-50927000D01*
X151562750Y-50927000D01*
X151277000Y-51212750D01*
X147942391Y-51212750D01*
X148002014Y-51058029D01*
X147982784Y-50285294D01*
X147724068Y-49660699D01*
X147335203Y-49614402D01*
X146229605Y-50720000D01*
X145870395Y-50720000D01*
X144764797Y-49614402D01*
X144375932Y-49660699D01*
X144097986Y-50381971D01*
X134327440Y-50381971D01*
X134327440Y-49434797D01*
X144944402Y-49434797D01*
X146050000Y-50540395D01*
X147155598Y-49434797D01*
X147142246Y-49322643D01*
X151277000Y-49322643D01*
X151277000Y-50387250D01*
X151562750Y-50673000D01*
X153543000Y-50673000D01*
X153543000Y-48692750D01*
X153797000Y-48692750D01*
X153797000Y-50673000D01*
X155777250Y-50673000D01*
X156063000Y-50387250D01*
X156063000Y-49322643D01*
X155888989Y-48902542D01*
X155567457Y-48581011D01*
X155147357Y-48407000D01*
X154082750Y-48407000D01*
X153797000Y-48692750D01*
X153543000Y-48692750D01*
X153257250Y-48407000D01*
X152192643Y-48407000D01*
X151772543Y-48581011D01*
X151451011Y-48902542D01*
X151277000Y-49322643D01*
X147142246Y-49322643D01*
X147109301Y-49045932D01*
X146388029Y-48767986D01*
X145615294Y-48787216D01*
X144990699Y-49045932D01*
X144944402Y-49434797D01*
X134327440Y-49434797D01*
X134327440Y-47930000D01*
X134283162Y-47694683D01*
X134144090Y-47478559D01*
X133931890Y-47333569D01*
X133680000Y-47282560D01*
X130480000Y-47282560D01*
X130244683Y-47326838D01*
X130028559Y-47465910D01*
X129883569Y-47678110D01*
X129832560Y-47930000D01*
X128594813Y-47930000D01*
X127899083Y-47465129D01*
X127043786Y-47295000D01*
X126956214Y-47295000D01*
X126100917Y-47465129D01*
X125375830Y-47949616D01*
X124891343Y-48674703D01*
X124721214Y-49530000D01*
X122897440Y-49530000D01*
X122897440Y-49200000D01*
X122853162Y-48964683D01*
X122714090Y-48748559D01*
X122501890Y-48603569D01*
X122250000Y-48552560D01*
X119050000Y-48552560D01*
X118814683Y-48596838D01*
X118598559Y-48735910D01*
X118453569Y-48948110D01*
X118402560Y-49200000D01*
X105117440Y-49200000D01*
X105073162Y-48964683D01*
X104934090Y-48748559D01*
X104721890Y-48603569D01*
X104470000Y-48552560D01*
X101270000Y-48552560D01*
X101034683Y-48596838D01*
X100818559Y-48735910D01*
X100673569Y-48948110D01*
X100622560Y-49200000D01*
X98733145Y-49200000D01*
X98628657Y-48674703D01*
X98144170Y-47949616D01*
X97419083Y-47465129D01*
X96563786Y-47295000D01*
X96476214Y-47295000D01*
X95620917Y-47465129D01*
X94895830Y-47949616D01*
X94411343Y-48674703D01*
X94241214Y-49530000D01*
X93687440Y-49530000D01*
X93687440Y-47930000D01*
X93643162Y-47694683D01*
X93504090Y-47478559D01*
X93291890Y-47333569D01*
X93040000Y-47282560D01*
X89840000Y-47282560D01*
X89604683Y-47326838D01*
X89388559Y-47465910D01*
X89243569Y-47678110D01*
X89192560Y-47930000D01*
X74333105Y-47930000D01*
X74322784Y-47515294D01*
X74064068Y-46890699D01*
X73675203Y-46844402D01*
X72569605Y-47950000D01*
X72210395Y-47950000D01*
X71104797Y-46844402D01*
X70715932Y-46890699D01*
X70437986Y-47611971D01*
X64805223Y-47611971D01*
X64853880Y-47539151D01*
X64963113Y-46990000D01*
X64898427Y-46664797D01*
X71284402Y-46664797D01*
X72390000Y-47770395D01*
X73495598Y-46664797D01*
X73449301Y-46275932D01*
X72728029Y-45997986D01*
X71955294Y-46017216D01*
X71330699Y-46275932D01*
X71284402Y-46664797D01*
X64898427Y-46664797D01*
X64853880Y-46440849D01*
X64542811Y-45975302D01*
X64160725Y-45720000D01*
X64542811Y-45464698D01*
X64853880Y-44999151D01*
X64963113Y-44450000D01*
X64853880Y-43900849D01*
X64686268Y-43650000D01*
X70942560Y-43650000D01*
X70942560Y-45250000D01*
X70986838Y-45485317D01*
X71125910Y-45701441D01*
X71338110Y-45846431D01*
X71590000Y-45897440D01*
X73190000Y-45897440D01*
X73425317Y-45853162D01*
X73641441Y-45714090D01*
X73667320Y-45676214D01*
X100635000Y-45676214D01*
X100635000Y-45763786D01*
X100805129Y-46619083D01*
X101289616Y-47344170D01*
X102014703Y-47828657D01*
X102870000Y-47998786D01*
X103725297Y-47828657D01*
X104450384Y-47344170D01*
X104934871Y-46619083D01*
X105105000Y-45763786D01*
X105105000Y-45676214D01*
X118415000Y-45676214D01*
X118415000Y-45763786D01*
X118585129Y-46619083D01*
X119069616Y-47344170D01*
X119794703Y-47828657D01*
X120650000Y-47998786D01*
X121505297Y-47828657D01*
X122230384Y-47344170D01*
X122714871Y-46619083D01*
X122837181Y-46004187D01*
X144614752Y-46004187D01*
X144832757Y-46531800D01*
X145236077Y-46935824D01*
X145763309Y-47154750D01*
X146334187Y-47155248D01*
X146861800Y-46937243D01*
X147265824Y-46533923D01*
X147415565Y-46173305D01*
X151784674Y-46173305D01*
X152071043Y-46866372D01*
X152600839Y-47397093D01*
X153293405Y-47684672D01*
X154043305Y-47685326D01*
X154736372Y-47398957D01*
X155267093Y-46869161D01*
X155554672Y-46176595D01*
X155555326Y-45426695D01*
X155268957Y-44733628D01*
X154739161Y-44202907D01*
X154046595Y-43915328D01*
X153296695Y-43914674D01*
X152603628Y-44201043D01*
X152072907Y-44730839D01*
X151785328Y-45423405D01*
X151784674Y-46173305D01*
X147415565Y-46173305D01*
X147484750Y-46006691D01*
X147485248Y-45435813D01*
X147267243Y-44908200D01*
X146863923Y-44504176D01*
X146336691Y-44285250D01*
X145765813Y-44284752D01*
X145238200Y-44502757D01*
X144834176Y-44906077D01*
X144615250Y-45433309D01*
X144614752Y-46004187D01*
X122837181Y-46004187D01*
X122885000Y-45763786D01*
X122885000Y-45676214D01*
X122714871Y-44820917D01*
X122230384Y-44095830D01*
X121505297Y-43611343D01*
X120650000Y-43441214D01*
X119794703Y-43611343D01*
X119069616Y-44095830D01*
X118585129Y-44820917D01*
X118415000Y-45676214D01*
X105105000Y-45676214D01*
X104934871Y-44820917D01*
X104450384Y-44095830D01*
X103725297Y-43611343D01*
X102870000Y-43441214D01*
X102014703Y-43611343D01*
X101289616Y-44095830D01*
X100805129Y-44820917D01*
X100635000Y-45676214D01*
X73667320Y-45676214D01*
X73786431Y-45501890D01*
X73837440Y-45250000D01*
X73837440Y-43650000D01*
X73793162Y-43414683D01*
X73654090Y-43198559D01*
X73441890Y-43053569D01*
X73190000Y-43002560D01*
X71590000Y-43002560D01*
X71354683Y-43046838D01*
X71138559Y-43185910D01*
X70993569Y-43398110D01*
X70942560Y-43650000D01*
X64686268Y-43650000D01*
X64542811Y-43435302D01*
X64160725Y-43180000D01*
X64542811Y-42924698D01*
X64853880Y-42459151D01*
X64963113Y-41910000D01*
X64853880Y-41360849D01*
X64542811Y-40895302D01*
X64077264Y-40584233D01*
X63528113Y-40475000D01*
X63471887Y-40475000D01*
X62922736Y-40584233D01*
X62457189Y-40895302D01*
X62146120Y-41360849D01*
X62036887Y-41910000D01*
X62146120Y-42459151D01*
X62457189Y-42924698D01*
X62839275Y-43180000D01*
X62457189Y-43435302D01*
X62146120Y-43900849D01*
X62036887Y-44450000D01*
X62146120Y-44999151D01*
X62457189Y-45464698D01*
X62839275Y-45720000D01*
X62457189Y-45975302D01*
X62146120Y-46440849D01*
X62036887Y-46990000D01*
X62146120Y-47539151D01*
X62407524Y-47930369D01*
X62378667Y-47943215D01*
X61856787Y-48493117D01*
X61604893Y-49101261D01*
X57257832Y-49101261D01*
X57233880Y-48980849D01*
X56922811Y-48515302D01*
X56540725Y-48260000D01*
X56922811Y-48004698D01*
X57233880Y-47539151D01*
X57343113Y-46990000D01*
X57233880Y-46440849D01*
X56922811Y-45975302D01*
X56540725Y-45720000D01*
X56922811Y-45464698D01*
X57233880Y-44999151D01*
X57343113Y-44450000D01*
X57233880Y-43900849D01*
X56922811Y-43435302D01*
X56778535Y-43338899D01*
X56915317Y-43313162D01*
X57131441Y-43174090D01*
X57276431Y-42961890D01*
X57327440Y-42710000D01*
X57327440Y-41110000D01*
X57283162Y-40874683D01*
X57144090Y-40658559D01*
X56931890Y-40513569D01*
X56680000Y-40462560D01*
X55080000Y-40462560D01*
X54844683Y-40506838D01*
X54628559Y-40645910D01*
X54483569Y-40858110D01*
X54432560Y-41110000D01*
X54432560Y-42710000D01*
X54476838Y-42945317D01*
X54615910Y-43161441D01*
X54828110Y-43306431D01*
X54983089Y-43337815D01*
X54837189Y-43435302D01*
X54526120Y-43900849D01*
X54416887Y-44450000D01*
X40725000Y-44450000D01*
X40725235Y-44181656D01*
X40519383Y-43683457D01*
X40138548Y-43301957D01*
X39640709Y-43095236D01*
X39101656Y-43094765D01*
X38603457Y-43300617D01*
X38221957Y-43681452D01*
X38015236Y-44179291D01*
X38014765Y-44718344D01*
X26085000Y-44718344D01*
X26085000Y-42305000D01*
X28957560Y-42305000D01*
X28957560Y-44055000D01*
X29001838Y-44290317D01*
X29140910Y-44506441D01*
X29353110Y-44651431D01*
X29605000Y-44702440D01*
X31355000Y-44702440D01*
X31590317Y-44658162D01*
X31806441Y-44519090D01*
X31951431Y-44306890D01*
X32002440Y-44055000D01*
X32002440Y-42305000D01*
X31978609Y-42178344D01*
X40554765Y-42178344D01*
X40760617Y-42676543D01*
X41141452Y-43058043D01*
X41639291Y-43264764D01*
X42178344Y-43265235D01*
X42676543Y-43059383D01*
X43058043Y-42678548D01*
X43264764Y-42180709D01*
X43265235Y-41641656D01*
X43059383Y-41143457D01*
X42678548Y-40761957D01*
X42180709Y-40555236D01*
X41641656Y-40554765D01*
X41143457Y-40760617D01*
X40761957Y-41141452D01*
X40555236Y-41639291D01*
X40554765Y-42178344D01*
X31978609Y-42178344D01*
X31958162Y-42069683D01*
X31819090Y-41853559D01*
X31606890Y-41708569D01*
X31590324Y-41705214D01*
X31759370Y-41536463D01*
X31989738Y-40981675D01*
X31990262Y-40380960D01*
X31760862Y-39825771D01*
X31573763Y-39638344D01*
X38014765Y-39638344D01*
X38220617Y-40136543D01*
X38601452Y-40518043D01*
X39099291Y-40724764D01*
X39638344Y-40725235D01*
X40136543Y-40519383D01*
X40518043Y-40138548D01*
X40724764Y-39640709D01*
X40725235Y-39101656D01*
X40519383Y-38603457D01*
X40138548Y-38221957D01*
X39640709Y-38015236D01*
X39101656Y-38014765D01*
X38603457Y-38220617D01*
X38221957Y-38601452D01*
X38015236Y-39099291D01*
X38014765Y-39638344D01*
X31573763Y-39638344D01*
X31336463Y-39400630D01*
X30781675Y-39170262D01*
X30180960Y-39169738D01*
X29625771Y-39399138D01*
X29200630Y-39823537D01*
X28970262Y-40378325D01*
X28969738Y-40979040D01*
X29199138Y-41534229D01*
X29367717Y-41703103D01*
X29153559Y-41840910D01*
X29008569Y-42053110D01*
X28957560Y-42305000D01*
X26085000Y-42305000D01*
X26085000Y-37114187D01*
X45554752Y-37114187D01*
X45772757Y-37641800D01*
X46176077Y-38045824D01*
X46703309Y-38264750D01*
X47274187Y-38265248D01*
X47801800Y-38047243D01*
X48205824Y-37643923D01*
X48424750Y-37116691D01*
X48425248Y-36545813D01*
X48207243Y-36018200D01*
X47803923Y-35614176D01*
X47276691Y-35395250D01*
X46705813Y-35394752D01*
X46178200Y-35612757D01*
X45774176Y-36016077D01*
X45555250Y-36543309D01*
X45554752Y-37114187D01*
X26085000Y-37114187D01*
X26085000Y-34613795D01*
X50434716Y-34613795D01*
X50683106Y-35214943D01*
X51142637Y-35675278D01*
X51185000Y-35692869D01*
X51185000Y-40506602D01*
X51145057Y-40523106D01*
X50684722Y-40982637D01*
X50435284Y-41583352D01*
X50434716Y-42233795D01*
X50683106Y-42834943D01*
X51142637Y-43295278D01*
X51743352Y-43544716D01*
X52393795Y-43545284D01*
X52994943Y-43296894D01*
X53455278Y-42837363D01*
X53704716Y-42236648D01*
X53705284Y-41586205D01*
X53456894Y-40985057D01*
X52997363Y-40524722D01*
X52955000Y-40507131D01*
X52955000Y-35693398D01*
X52994943Y-35676894D01*
X53455278Y-35217363D01*
X53704716Y-34616648D01*
X53705284Y-33966205D01*
X53456894Y-33365057D01*
X52997363Y-32904722D01*
X52396648Y-32655284D01*
X51746205Y-32654716D01*
X51145057Y-32903106D01*
X50684722Y-33362637D01*
X50435284Y-33963352D01*
X50434716Y-34613795D01*
X26085000Y-34613795D01*
X26085000Y-32343738D01*
X26170435Y-32429173D01*
X26372108Y-32227500D01*
X26711054Y-32865570D01*
X28300200Y-33543611D01*
X30027856Y-33561899D01*
X31631001Y-32917651D01*
X31708946Y-32865570D01*
X32047893Y-32227498D01*
X29210000Y-29389605D01*
X29195858Y-29403748D01*
X29016253Y-29224143D01*
X29030395Y-29210000D01*
X29016253Y-29195858D01*
X29195858Y-29016253D01*
X29210000Y-29030395D01*
X29224143Y-29016253D01*
X29403748Y-29195858D01*
X29389605Y-29210000D01*
X32227498Y-32047893D01*
X32865570Y-31708946D01*
X33543611Y-30119800D01*
X33561899Y-28392144D01*
X33510321Y-28263795D01*
X77104716Y-28263795D01*
X77353106Y-28864943D01*
X77812637Y-29325278D01*
X77855000Y-29342869D01*
X77855000Y-35426602D01*
X77815057Y-35443106D01*
X77354722Y-35902637D01*
X77105284Y-36503352D01*
X77104716Y-37153795D01*
X77353106Y-37754943D01*
X77812637Y-38215278D01*
X78413352Y-38464716D01*
X79063795Y-38465284D01*
X79664943Y-38216894D01*
X80125278Y-37757363D01*
X80374716Y-37156648D01*
X80375284Y-36506205D01*
X80137201Y-35930000D01*
X82272560Y-35930000D01*
X82272560Y-37730000D01*
X82316838Y-37965317D01*
X82455910Y-38181441D01*
X82668110Y-38326431D01*
X82684344Y-38329719D01*
X82401845Y-38752509D01*
X82285000Y-39339928D01*
X82285000Y-39400072D01*
X82401845Y-39987491D01*
X82734591Y-40485481D01*
X82965845Y-40640000D01*
X82734591Y-40794519D01*
X82401845Y-41292509D01*
X82285000Y-41879928D01*
X82285000Y-41940072D01*
X82401845Y-42527491D01*
X82734591Y-43025481D01*
X83232581Y-43358227D01*
X83820000Y-43475072D01*
X84407419Y-43358227D01*
X84905409Y-43025481D01*
X85238155Y-42527491D01*
X85355000Y-41940072D01*
X85355000Y-41879928D01*
X85238155Y-41292509D01*
X84905409Y-40794519D01*
X84674155Y-40640000D01*
X84905409Y-40485481D01*
X85238155Y-39987491D01*
X85355000Y-39400072D01*
X85355000Y-39339928D01*
X85238155Y-38752509D01*
X84957163Y-38331974D01*
X85171441Y-38194090D01*
X85316431Y-37981890D01*
X85367440Y-37730000D01*
X85367440Y-35930000D01*
X138152560Y-35930000D01*
X138152560Y-37730000D01*
X138196838Y-37965317D01*
X138335910Y-38181441D01*
X138548110Y-38326431D01*
X138564344Y-38329719D01*
X138281845Y-38752509D01*
X138165000Y-39339928D01*
X138165000Y-39400072D01*
X138281845Y-39987491D01*
X138614591Y-40485481D01*
X138845845Y-40640000D01*
X138614591Y-40794519D01*
X138281845Y-41292509D01*
X138165000Y-41879928D01*
X138165000Y-41940072D01*
X138281845Y-42527491D01*
X138614591Y-43025481D01*
X139112581Y-43358227D01*
X139700000Y-43475072D01*
X140287419Y-43358227D01*
X140785409Y-43025481D01*
X141118155Y-42527491D01*
X141235000Y-41940072D01*
X141235000Y-41879928D01*
X141118155Y-41292509D01*
X140785409Y-40794519D01*
X140554155Y-40640000D01*
X140785409Y-40485481D01*
X141118155Y-39987491D01*
X141235000Y-39400072D01*
X141235000Y-39339928D01*
X141118155Y-38752509D01*
X140837163Y-38331974D01*
X141051441Y-38194090D01*
X141196431Y-37981890D01*
X141247440Y-37730000D01*
X141247440Y-35930000D01*
X141203162Y-35694683D01*
X141064090Y-35478559D01*
X140851890Y-35333569D01*
X140600000Y-35282560D01*
X138800000Y-35282560D01*
X138564683Y-35326838D01*
X138348559Y-35465910D01*
X138203569Y-35678110D01*
X138152560Y-35930000D01*
X85367440Y-35930000D01*
X85323162Y-35694683D01*
X85184090Y-35478559D01*
X84971890Y-35333569D01*
X84720000Y-35282560D01*
X82920000Y-35282560D01*
X82684683Y-35326838D01*
X82468559Y-35465910D01*
X82323569Y-35678110D01*
X82272560Y-35930000D01*
X80137201Y-35930000D01*
X80126894Y-35905057D01*
X79667363Y-35444722D01*
X79625000Y-35427131D01*
X79625000Y-29343398D01*
X79664943Y-29326894D01*
X80112618Y-28880000D01*
X100622560Y-28880000D01*
X100622560Y-32080000D01*
X100666838Y-32315317D01*
X100805910Y-32531441D01*
X101018110Y-32676431D01*
X101270000Y-32727440D01*
X104470000Y-32727440D01*
X104705317Y-32683162D01*
X104921441Y-32544090D01*
X105066431Y-32331890D01*
X105117440Y-32080000D01*
X105117440Y-28880000D01*
X118402560Y-28880000D01*
X118402560Y-32080000D01*
X118446838Y-32315317D01*
X118585910Y-32531441D01*
X118798110Y-32676431D01*
X119050000Y-32727440D01*
X122250000Y-32727440D01*
X122485317Y-32683162D01*
X122701441Y-32544090D01*
X122846431Y-32331890D01*
X122897440Y-32080000D01*
X122897440Y-28880000D01*
X122853162Y-28644683D01*
X122714090Y-28428559D01*
X122501890Y-28283569D01*
X122250000Y-28232560D01*
X119050000Y-28232560D01*
X118814683Y-28276838D01*
X118598559Y-28415910D01*
X118453569Y-28628110D01*
X118402560Y-28880000D01*
X105117440Y-28880000D01*
X105073162Y-28644683D01*
X104934090Y-28428559D01*
X104721890Y-28283569D01*
X104470000Y-28232560D01*
X101270000Y-28232560D01*
X101034683Y-28276838D01*
X100818559Y-28415910D01*
X100673569Y-28628110D01*
X100622560Y-28880000D01*
X80112618Y-28880000D01*
X80125278Y-28867363D01*
X80374716Y-28266648D01*
X80375284Y-27616205D01*
X80126894Y-27015057D01*
X79667363Y-26554722D01*
X79066648Y-26305284D01*
X78416205Y-26304716D01*
X77815057Y-26553106D01*
X77354722Y-27012637D01*
X77105284Y-27613352D01*
X77104716Y-28263795D01*
X33510321Y-28263795D01*
X32917651Y-26788999D01*
X32865570Y-26711054D01*
X32227500Y-26372108D01*
X32429173Y-26170435D01*
X32343738Y-26085000D01*
X154346262Y-26085000D01*
X154260827Y-26170435D01*
X154260827Y-26170435D01*
G37*
X154260827Y-26170435D02*
X154462500Y-26372108D01*
X153824430Y-26711054D01*
X153146389Y-28300200D01*
X153128101Y-30027856D01*
X153772349Y-31631001D01*
X153824430Y-31708946D01*
X154462502Y-32047893D01*
X157300395Y-29210000D01*
X157286253Y-29195858D01*
X157465858Y-29016253D01*
X157480000Y-29030395D01*
X157494143Y-29016253D01*
X157673748Y-29195858D01*
X157659605Y-29210000D01*
X157673748Y-29224143D01*
X157494143Y-29403748D01*
X157480000Y-29389605D01*
X154642107Y-32227498D01*
X154981054Y-32865570D01*
X156570200Y-33543611D01*
X158297856Y-33561899D01*
X159901001Y-32917651D01*
X159978946Y-32865570D01*
X160317892Y-32227500D01*
X160519565Y-32429173D01*
X160605000Y-32343738D01*
X160605000Y-65446262D01*
X160519565Y-65360827D01*
X160317892Y-65562500D01*
X159978946Y-64924430D01*
X158389800Y-64246389D01*
X156662144Y-64228101D01*
X155058999Y-64872349D01*
X154981054Y-64924430D01*
X154642107Y-65562502D01*
X157480000Y-68400395D01*
X157494143Y-68386253D01*
X157673748Y-68565858D01*
X157659605Y-68580000D01*
X157673748Y-68594143D01*
X157494143Y-68773748D01*
X157480000Y-68759605D01*
X157465858Y-68773748D01*
X157286253Y-68594143D01*
X157300395Y-68580000D01*
X154462502Y-65742107D01*
X153824430Y-66081054D01*
X153146389Y-67670200D01*
X153128101Y-69397856D01*
X153772349Y-71001001D01*
X153824430Y-71078946D01*
X154462500Y-71417892D01*
X154260827Y-71619565D01*
X154346262Y-71705000D01*
X32343738Y-71705000D01*
X32429173Y-71619565D01*
X32227500Y-71417892D01*
X32865570Y-71078946D01*
X33543611Y-69489800D01*
X33561899Y-67762144D01*
X32917651Y-66158999D01*
X32865570Y-66081054D01*
X32227498Y-65742107D01*
X29389605Y-68580000D01*
X29403748Y-68594143D01*
X29224143Y-68773748D01*
X29210000Y-68759605D01*
X29195858Y-68773748D01*
X29016253Y-68594143D01*
X29030395Y-68580000D01*
X29016253Y-68565858D01*
X29195858Y-68386253D01*
X29210000Y-68400395D01*
X32047893Y-65562502D01*
X31798914Y-65093795D01*
X70754716Y-65093795D01*
X71003106Y-65694943D01*
X71462637Y-66155278D01*
X72063352Y-66404716D01*
X72713795Y-66405284D01*
X73314943Y-66156894D01*
X73775278Y-65697363D01*
X73792869Y-65655000D01*
X77336602Y-65655000D01*
X77353106Y-65694943D01*
X77812637Y-66155278D01*
X78413352Y-66404716D01*
X79063795Y-66405284D01*
X79664943Y-66156894D01*
X80125278Y-65697363D01*
X80374716Y-65096648D01*
X80375284Y-64446205D01*
X80126894Y-63845057D01*
X79802405Y-63520000D01*
X89542560Y-63520000D01*
X89542560Y-66020000D01*
X89586838Y-66255317D01*
X89725910Y-66471441D01*
X89938110Y-66616431D01*
X90190000Y-66667440D01*
X92690000Y-66667440D01*
X92925317Y-66623162D01*
X93141441Y-66484090D01*
X93286431Y-66271890D01*
X93337440Y-66020000D01*
X93337440Y-65143305D01*
X94554674Y-65143305D01*
X94841043Y-65836372D01*
X95370839Y-66367093D01*
X96063405Y-66654672D01*
X96813305Y-66655326D01*
X96961539Y-66594077D01*
X100183538Y-66594077D01*
X100600069Y-67579965D01*
X101362176Y-68331407D01*
X102315924Y-68726456D01*
X102743000Y-68493966D01*
X102743000Y-66167000D01*
X102997000Y-66167000D01*
X102997000Y-68493966D01*
X103424076Y-68726456D01*
X104377824Y-68331407D01*
X105139931Y-67579965D01*
X105556462Y-66594077D01*
X105324314Y-66167000D01*
X102997000Y-66167000D01*
X102743000Y-66167000D01*
X100415686Y-66167000D01*
X100183538Y-66594077D01*
X96961539Y-66594077D01*
X97506372Y-66368957D01*
X98037093Y-65839161D01*
X98183770Y-65485923D01*
X100183538Y-65485923D01*
X100415686Y-65913000D01*
X102743000Y-65913000D01*
X102743000Y-63586034D01*
X102997000Y-63586034D01*
X102997000Y-65913000D01*
X105324314Y-65913000D01*
X105556462Y-65485923D01*
X105139931Y-64500035D01*
X104377824Y-63748593D01*
X103825943Y-63520000D01*
X107322560Y-63520000D01*
X107322560Y-66020000D01*
X107366838Y-66255317D01*
X107505910Y-66471441D01*
X107718110Y-66616431D01*
X107970000Y-66667440D01*
X110470000Y-66667440D01*
X110705317Y-66623162D01*
X110921441Y-66484090D01*
X111066431Y-66271890D01*
X111117440Y-66020000D01*
X111117440Y-65143305D01*
X112334674Y-65143305D01*
X112621043Y-65836372D01*
X113150839Y-66367093D01*
X113843405Y-66654672D01*
X114593305Y-66655326D01*
X114741539Y-66594077D01*
X117963538Y-66594077D01*
X118380069Y-67579965D01*
X119142176Y-68331407D01*
X120095924Y-68726456D01*
X120523000Y-68493966D01*
X120523000Y-66167000D01*
X120777000Y-66167000D01*
X120777000Y-68493966D01*
X121204076Y-68726456D01*
X122157824Y-68331407D01*
X122919931Y-67579965D01*
X123336462Y-66594077D01*
X123104314Y-66167000D01*
X120777000Y-66167000D01*
X120523000Y-66167000D01*
X118195686Y-66167000D01*
X117963538Y-66594077D01*
X114741539Y-66594077D01*
X115286372Y-66368957D01*
X115817093Y-65839161D01*
X115963770Y-65485923D01*
X117963538Y-65485923D01*
X118195686Y-65913000D01*
X120523000Y-65913000D01*
X120523000Y-63586034D01*
X120777000Y-63586034D01*
X120777000Y-65913000D01*
X123104314Y-65913000D01*
X123336462Y-65485923D01*
X122919931Y-64500035D01*
X122157824Y-63748593D01*
X121605943Y-63520000D01*
X125102560Y-63520000D01*
X125102560Y-66020000D01*
X125146838Y-66255317D01*
X125285910Y-66471441D01*
X125498110Y-66616431D01*
X125750000Y-66667440D01*
X128250000Y-66667440D01*
X128485317Y-66623162D01*
X128701441Y-66484090D01*
X128846431Y-66271890D01*
X128897440Y-66020000D01*
X128897440Y-65143305D01*
X130114674Y-65143305D01*
X130401043Y-65836372D01*
X130930839Y-66367093D01*
X131623405Y-66654672D01*
X132373305Y-66655326D01*
X133066372Y-66368957D01*
X133597093Y-65839161D01*
X133884672Y-65146595D01*
X133885326Y-64396695D01*
X133598957Y-63703628D01*
X133069161Y-63172907D01*
X132376595Y-62885328D01*
X131626695Y-62884674D01*
X130933628Y-63171043D01*
X130402907Y-63700839D01*
X130115328Y-64393405D01*
X130114674Y-65143305D01*
X128897440Y-65143305D01*
X128897440Y-63520000D01*
X128853162Y-63284683D01*
X128714090Y-63068559D01*
X128501890Y-62923569D01*
X128250000Y-62872560D01*
X125750000Y-62872560D01*
X125514683Y-62916838D01*
X125298559Y-63055910D01*
X125153569Y-63268110D01*
X125102560Y-63520000D01*
X121605943Y-63520000D01*
X121204076Y-63353544D01*
X120777000Y-63586034D01*
X120523000Y-63586034D01*
X120095924Y-63353544D01*
X119142176Y-63748593D01*
X118380069Y-64500035D01*
X117963538Y-65485923D01*
X115963770Y-65485923D01*
X116104672Y-65146595D01*
X116105326Y-64396695D01*
X115818957Y-63703628D01*
X115289161Y-63172907D01*
X114596595Y-62885328D01*
X113846695Y-62884674D01*
X113153628Y-63171043D01*
X112622907Y-63700839D01*
X112335328Y-64393405D01*
X112334674Y-65143305D01*
X111117440Y-65143305D01*
X111117440Y-63520000D01*
X111073162Y-63284683D01*
X110934090Y-63068559D01*
X110721890Y-62923569D01*
X110470000Y-62872560D01*
X107970000Y-62872560D01*
X107734683Y-62916838D01*
X107518559Y-63055910D01*
X107373569Y-63268110D01*
X107322560Y-63520000D01*
X103825943Y-63520000D01*
X103424076Y-63353544D01*
X102997000Y-63586034D01*
X102743000Y-63586034D01*
X102315924Y-63353544D01*
X101362176Y-63748593D01*
X100600069Y-64500035D01*
X100183538Y-65485923D01*
X98183770Y-65485923D01*
X98324672Y-65146595D01*
X98325326Y-64396695D01*
X98038957Y-63703628D01*
X97509161Y-63172907D01*
X96816595Y-62885328D01*
X96066695Y-62884674D01*
X95373628Y-63171043D01*
X94842907Y-63700839D01*
X94555328Y-64393405D01*
X94554674Y-65143305D01*
X93337440Y-65143305D01*
X93337440Y-63520000D01*
X93293162Y-63284683D01*
X93154090Y-63068559D01*
X92941890Y-62923569D01*
X92690000Y-62872560D01*
X90190000Y-62872560D01*
X89954683Y-62916838D01*
X89738559Y-63055910D01*
X89593569Y-63268110D01*
X89542560Y-63520000D01*
X79802405Y-63520000D01*
X79667363Y-63384722D01*
X79066648Y-63135284D01*
X78416205Y-63134716D01*
X77815057Y-63383106D01*
X77354722Y-63842637D01*
X77337131Y-63885000D01*
X75938426Y-63885000D01*
X75966883Y-63873213D01*
X76516785Y-63351333D01*
X76825114Y-62658740D01*
X76583102Y-62357000D01*
X75057000Y-62357000D01*
X75057000Y-62377000D01*
X74803000Y-62377000D01*
X74803000Y-62357000D01*
X73276898Y-62357000D01*
X73034886Y-62658740D01*
X73343215Y-63351333D01*
X73893117Y-63873213D01*
X73921574Y-63885000D01*
X73793398Y-63885000D01*
X73776894Y-63845057D01*
X73317363Y-63384722D01*
X72716648Y-63135284D01*
X72066205Y-63134716D01*
X71465057Y-63383106D01*
X71004722Y-63842637D01*
X70755284Y-64443352D01*
X70754716Y-65093795D01*
X31798914Y-65093795D01*
X31708946Y-64924430D01*
X30119800Y-64246389D01*
X28392144Y-64228101D01*
X26788999Y-64872349D01*
X26711054Y-64924430D01*
X26372108Y-65562500D01*
X26170435Y-65360827D01*
X26085000Y-65446262D01*
X26085000Y-62658740D01*
X45094886Y-62658740D01*
X45403215Y-63351333D01*
X45953117Y-63873213D01*
X46561261Y-64125107D01*
X46863000Y-63882377D01*
X46863000Y-62357000D01*
X47117000Y-62357000D01*
X47117000Y-63882377D01*
X47418739Y-64125107D01*
X48026883Y-63873213D01*
X48576785Y-63351333D01*
X48885114Y-62658740D01*
X48769175Y-62514187D01*
X68414752Y-62514187D01*
X68632757Y-63041800D01*
X69036077Y-63445824D01*
X69563309Y-63664750D01*
X70134187Y-63665248D01*
X70661800Y-63447243D01*
X71065824Y-63043923D01*
X71284750Y-62516691D01*
X71285248Y-61945813D01*
X71225520Y-61801260D01*
X73034886Y-61801260D01*
X73276898Y-62103000D01*
X74803000Y-62103000D01*
X74803000Y-60577623D01*
X75057000Y-60577623D01*
X75057000Y-62103000D01*
X76583102Y-62103000D01*
X76825114Y-61801260D01*
X76516785Y-61108667D01*
X75966883Y-60586787D01*
X75358739Y-60334893D01*
X75057000Y-60577623D01*
X74803000Y-60577623D01*
X74501261Y-60334893D01*
X73893117Y-60586787D01*
X73343215Y-61108667D01*
X73034886Y-61801260D01*
X71225520Y-61801260D01*
X71067243Y-61418200D01*
X70663923Y-61014176D01*
X70136691Y-60795250D01*
X69565813Y-60794752D01*
X69038200Y-61012757D01*
X68634176Y-61416077D01*
X68415250Y-61943309D01*
X68414752Y-62514187D01*
X48769175Y-62514187D01*
X48643102Y-62357000D01*
X47117000Y-62357000D01*
X46863000Y-62357000D01*
X45336898Y-62357000D01*
X45094886Y-62658740D01*
X26085000Y-62658740D01*
X26085000Y-61801260D01*
X45094886Y-61801260D01*
X45336898Y-62103000D01*
X46863000Y-62103000D01*
X46863000Y-60577623D01*
X47117000Y-60577623D01*
X47117000Y-62103000D01*
X48643102Y-62103000D01*
X48885114Y-61801260D01*
X48576785Y-61108667D01*
X48026883Y-60586787D01*
X47418739Y-60334893D01*
X47117000Y-60577623D01*
X46863000Y-60577623D01*
X46561261Y-60334893D01*
X45953117Y-60586787D01*
X45403215Y-61108667D01*
X45094886Y-61801260D01*
X26085000Y-61801260D01*
X26085000Y-58864415D01*
X81825915Y-58864415D01*
X82147776Y-59593689D01*
X82342799Y-59779966D01*
X82323569Y-59808110D01*
X82272560Y-60060000D01*
X82272560Y-61860000D01*
X82316838Y-62095317D01*
X82455910Y-62311441D01*
X82668110Y-62456431D01*
X82920000Y-62507440D01*
X84720000Y-62507440D01*
X84955317Y-62463162D01*
X85171441Y-62324090D01*
X85316431Y-62111890D01*
X85367440Y-61860000D01*
X85367440Y-60060000D01*
X85323162Y-59824683D01*
X85295458Y-59781630D01*
X85492224Y-59593689D01*
X85814085Y-58864415D01*
X137705915Y-58864415D01*
X138027776Y-59593689D01*
X138222799Y-59779966D01*
X138203569Y-59808110D01*
X138152560Y-60060000D01*
X138152560Y-61860000D01*
X138196838Y-62095317D01*
X138335910Y-62311441D01*
X138548110Y-62456431D01*
X138800000Y-62507440D01*
X140600000Y-62507440D01*
X140835317Y-62463162D01*
X141051441Y-62324090D01*
X141196431Y-62111890D01*
X141247440Y-61860000D01*
X141247440Y-60060000D01*
X141203162Y-59824683D01*
X141175458Y-59781630D01*
X141372224Y-59593689D01*
X141694085Y-58864415D01*
X141453306Y-58547000D01*
X139827000Y-58547000D01*
X139827000Y-58567000D01*
X139573000Y-58567000D01*
X139573000Y-58547000D01*
X137946694Y-58547000D01*
X137705915Y-58864415D01*
X85814085Y-58864415D01*
X85573306Y-58547000D01*
X83947000Y-58547000D01*
X83947000Y-58567000D01*
X83693000Y-58567000D01*
X83693000Y-58547000D01*
X82066694Y-58547000D01*
X81825915Y-58864415D01*
X26085000Y-58864415D01*
X26085000Y-55022750D01*
X28462000Y-55022750D01*
X28462000Y-55712357D01*
X28636011Y-56132458D01*
X28957543Y-56453989D01*
X29377643Y-56628000D01*
X30067250Y-56628000D01*
X30353000Y-56342250D01*
X30353000Y-54737000D01*
X30607000Y-54737000D01*
X30607000Y-56342250D01*
X30892750Y-56628000D01*
X31582357Y-56628000D01*
X32002457Y-56453989D01*
X32308102Y-56148344D01*
X38014765Y-56148344D01*
X38220617Y-56646543D01*
X38601452Y-57028043D01*
X39099291Y-57234764D01*
X39638344Y-57235235D01*
X40136543Y-57029383D01*
X40518043Y-56648548D01*
X40724764Y-56150709D01*
X40725235Y-55611656D01*
X40519383Y-55113457D01*
X40138548Y-54731957D01*
X39640709Y-54525236D01*
X39101656Y-54524765D01*
X38603457Y-54730617D01*
X38221957Y-55111452D01*
X38015236Y-55609291D01*
X38014765Y-56148344D01*
X32308102Y-56148344D01*
X32323989Y-56132458D01*
X32498000Y-55712357D01*
X32498000Y-55022750D01*
X32212250Y-54737000D01*
X30607000Y-54737000D01*
X30353000Y-54737000D01*
X28747750Y-54737000D01*
X28462000Y-55022750D01*
X26085000Y-55022750D01*
X26085000Y-53507643D01*
X28462000Y-53507643D01*
X28462000Y-54197250D01*
X28747750Y-54483000D01*
X30353000Y-54483000D01*
X30353000Y-54463000D01*
X30607000Y-54463000D01*
X30607000Y-54483000D01*
X32212250Y-54483000D01*
X32498000Y-54197250D01*
X32498000Y-53608344D01*
X40554765Y-53608344D01*
X40760617Y-54106543D01*
X41141452Y-54488043D01*
X41639291Y-54694764D01*
X42178344Y-54695235D01*
X42676543Y-54489383D01*
X43058043Y-54108548D01*
X43264764Y-53610709D01*
X43265235Y-53071656D01*
X43059383Y-52573457D01*
X42840496Y-52354187D01*
X45554752Y-52354187D01*
X45772757Y-52881800D01*
X46176077Y-53285824D01*
X46703309Y-53504750D01*
X47274187Y-53505248D01*
X47801800Y-53287243D01*
X48205824Y-52883923D01*
X48424750Y-52356691D01*
X48425248Y-51785813D01*
X48207243Y-51258200D01*
X47803923Y-50854176D01*
X47276691Y-50635250D01*
X46705813Y-50634752D01*
X46178200Y-50852757D01*
X45774176Y-51256077D01*
X45555250Y-51783309D01*
X45554752Y-52354187D01*
X42840496Y-52354187D01*
X42678548Y-52191957D01*
X42180709Y-51985236D01*
X41641656Y-51984765D01*
X41143457Y-52190617D01*
X40761957Y-52571452D01*
X40555236Y-53069291D01*
X40554765Y-53608344D01*
X32498000Y-53608344D01*
X32498000Y-53507643D01*
X32323989Y-53087542D01*
X32002457Y-52766011D01*
X31866064Y-52709515D01*
X31989738Y-52411675D01*
X31990262Y-51810960D01*
X31760862Y-51255771D01*
X31573763Y-51068344D01*
X38014765Y-51068344D01*
X38220617Y-51566543D01*
X38601452Y-51948043D01*
X39099291Y-52154764D01*
X39638344Y-52155235D01*
X40136543Y-51949383D01*
X40518043Y-51568548D01*
X40724764Y-51070709D01*
X40725235Y-50531656D01*
X40519383Y-50033457D01*
X40138548Y-49651957D01*
X39640709Y-49445236D01*
X39101656Y-49444765D01*
X38603457Y-49650617D01*
X38221957Y-50031452D01*
X38015236Y-50529291D01*
X38014765Y-51068344D01*
X31573763Y-51068344D01*
X31336463Y-50830630D01*
X30781675Y-50600262D01*
X30180960Y-50599738D01*
X29625771Y-50829138D01*
X29200630Y-51253537D01*
X28970262Y-51808325D01*
X28969738Y-52409040D01*
X29093899Y-52709531D01*
X28957543Y-52766011D01*
X28636011Y-53087542D01*
X28462000Y-53507643D01*
X26085000Y-53507643D01*
X26085000Y-46961887D01*
X45555000Y-46961887D01*
X45555000Y-47018113D01*
X45664233Y-47567264D01*
X45975302Y-48032811D01*
X46440849Y-48343880D01*
X46990000Y-48453113D01*
X47539151Y-48343880D01*
X48004698Y-48032811D01*
X48315767Y-47567264D01*
X48366185Y-47313795D01*
X50434716Y-47313795D01*
X50683106Y-47914943D01*
X51142637Y-48375278D01*
X51185000Y-48392869D01*
X51185000Y-53206602D01*
X51145057Y-53223106D01*
X50684722Y-53682637D01*
X50435284Y-54283352D01*
X50434716Y-54933795D01*
X50683106Y-55534943D01*
X51142637Y-55995278D01*
X51743352Y-56244716D01*
X52393795Y-56245284D01*
X52994943Y-55996894D01*
X53455278Y-55537363D01*
X53704716Y-54936648D01*
X53705284Y-54286205D01*
X53456894Y-53685057D01*
X52997363Y-53224722D01*
X52955000Y-53207131D01*
X52955000Y-48393398D01*
X52994943Y-48376894D01*
X53455278Y-47917363D01*
X53704716Y-47316648D01*
X53705284Y-46666205D01*
X53456894Y-46065057D01*
X52997363Y-45604722D01*
X52396648Y-45355284D01*
X51746205Y-45354716D01*
X51145057Y-45603106D01*
X50684722Y-46062637D01*
X50435284Y-46663352D01*
X50434716Y-47313795D01*
X48366185Y-47313795D01*
X48425000Y-47018113D01*
X48425000Y-46961887D01*
X48315767Y-46412736D01*
X48004698Y-45947189D01*
X47539151Y-45636120D01*
X46990000Y-45526887D01*
X46440849Y-45636120D01*
X45975302Y-45947189D01*
X45664233Y-46412736D01*
X45555000Y-46961887D01*
X26085000Y-46961887D01*
X26085000Y-44718344D01*
X38014765Y-44718344D01*
X38220617Y-45216543D01*
X38601452Y-45598043D01*
X39099291Y-45804764D01*
X39638344Y-45805235D01*
X40136543Y-45599383D01*
X40518043Y-45218548D01*
X40724764Y-44720709D01*
X40725000Y-44450000D01*
X54416887Y-44450000D01*
X54526120Y-44999151D01*
X54837189Y-45464698D01*
X55219275Y-45720000D01*
X54837189Y-45975302D01*
X54526120Y-46440849D01*
X54416887Y-46990000D01*
X54526120Y-47539151D01*
X54837189Y-48004698D01*
X55219275Y-48260000D01*
X54837189Y-48515302D01*
X54526120Y-48980849D01*
X54416887Y-49530000D01*
X54526120Y-50079151D01*
X54837189Y-50544698D01*
X55219275Y-50800000D01*
X54837189Y-51055302D01*
X54526120Y-51520849D01*
X54416887Y-52070000D01*
X54526120Y-52619151D01*
X54837189Y-53084698D01*
X55219275Y-53340000D01*
X54837189Y-53595302D01*
X54526120Y-54060849D01*
X54416887Y-54610000D01*
X54526120Y-55159151D01*
X54837189Y-55624698D01*
X55219275Y-55880000D01*
X54837189Y-56135302D01*
X54526120Y-56600849D01*
X54416887Y-57150000D01*
X54526120Y-57699151D01*
X54837189Y-58164698D01*
X55302736Y-58475767D01*
X55851887Y-58585000D01*
X55908113Y-58585000D01*
X56457264Y-58475767D01*
X56922811Y-58164698D01*
X57233880Y-57699151D01*
X57343113Y-57150000D01*
X57233880Y-56600849D01*
X56922811Y-56135302D01*
X56540725Y-55880000D01*
X56922811Y-55624698D01*
X57233880Y-55159151D01*
X57343113Y-54610000D01*
X57233880Y-54060849D01*
X56922811Y-53595302D01*
X56540725Y-53340000D01*
X56922811Y-53084698D01*
X57233880Y-52619151D01*
X57343113Y-52070000D01*
X57233880Y-51520849D01*
X56922811Y-51055302D01*
X56540725Y-50800000D01*
X56922811Y-50544698D01*
X57233880Y-50079151D01*
X57257831Y-49958739D01*
X61604893Y-49958739D01*
X61856787Y-50566883D01*
X62378667Y-51116785D01*
X62407524Y-51129631D01*
X62146120Y-51520849D01*
X62036887Y-52070000D01*
X62146120Y-52619151D01*
X62457189Y-53084698D01*
X62839275Y-53340000D01*
X62457189Y-53595302D01*
X62146120Y-54060849D01*
X62036887Y-54610000D01*
X62146120Y-55159151D01*
X62457189Y-55624698D01*
X62839275Y-55880000D01*
X62457189Y-56135302D01*
X62146120Y-56600849D01*
X62036887Y-57150000D01*
X62146120Y-57699151D01*
X62457189Y-58164698D01*
X62922736Y-58475767D01*
X63471887Y-58585000D01*
X63528113Y-58585000D01*
X64077264Y-58475767D01*
X64542811Y-58164698D01*
X64669172Y-57975585D01*
X81825915Y-57975585D01*
X82066694Y-58293000D01*
X83693000Y-58293000D01*
X83693000Y-58273000D01*
X83947000Y-58273000D01*
X83947000Y-58293000D01*
X85573306Y-58293000D01*
X85814085Y-57975585D01*
X137705915Y-57975585D01*
X137946694Y-58293000D01*
X139573000Y-58293000D01*
X139573000Y-58273000D01*
X139827000Y-58273000D01*
X139827000Y-58293000D01*
X141453306Y-58293000D01*
X141694085Y-57975585D01*
X141372224Y-57246311D01*
X140911714Y-56806453D01*
X141118155Y-56497491D01*
X141235000Y-55910072D01*
X141235000Y-55849928D01*
X141118155Y-55262509D01*
X140785409Y-54764519D01*
X140287419Y-54431773D01*
X139700000Y-54314928D01*
X139112581Y-54431773D01*
X138614591Y-54764519D01*
X138281845Y-55262509D01*
X138165000Y-55849928D01*
X138165000Y-55910072D01*
X138281845Y-56497491D01*
X138488286Y-56806453D01*
X138027776Y-57246311D01*
X137705915Y-57975585D01*
X85814085Y-57975585D01*
X85492224Y-57246311D01*
X85031714Y-56806453D01*
X85238155Y-56497491D01*
X85355000Y-55910072D01*
X85355000Y-55849928D01*
X85238155Y-55262509D01*
X84905409Y-54764519D01*
X84407419Y-54431773D01*
X83820000Y-54314928D01*
X83232581Y-54431773D01*
X82734591Y-54764519D01*
X82401845Y-55262509D01*
X82285000Y-55849928D01*
X82285000Y-55910072D01*
X82401845Y-56497491D01*
X82608286Y-56806453D01*
X82147776Y-57246311D01*
X81825915Y-57975585D01*
X64669172Y-57975585D01*
X64853880Y-57699151D01*
X64963113Y-57150000D01*
X64853880Y-56600849D01*
X64542811Y-56135302D01*
X64160725Y-55880000D01*
X64542811Y-55624698D01*
X64853880Y-55159151D01*
X64963113Y-54610000D01*
X64853880Y-54060849D01*
X64542811Y-53595302D01*
X64160725Y-53340000D01*
X64542811Y-53084698D01*
X64853880Y-52619151D01*
X64963113Y-52070000D01*
X64957521Y-52041887D01*
X68415000Y-52041887D01*
X68415000Y-52098113D01*
X68524233Y-52647264D01*
X68835302Y-53112811D01*
X69300849Y-53423880D01*
X69850000Y-53533113D01*
X70399151Y-53423880D01*
X70864698Y-53112811D01*
X71175767Y-52647264D01*
X71234063Y-52354187D01*
X73494752Y-52354187D01*
X73712757Y-52881800D01*
X74116077Y-53285824D01*
X74643309Y-53504750D01*
X75214187Y-53505248D01*
X75741800Y-53287243D01*
X76145824Y-52883923D01*
X76364750Y-52356691D01*
X76365248Y-51785813D01*
X76147243Y-51258200D01*
X75743923Y-50854176D01*
X75216691Y-50635250D01*
X74645813Y-50634752D01*
X74118200Y-50852757D01*
X73714176Y-51256077D01*
X73495250Y-51783309D01*
X73494752Y-52354187D01*
X71234063Y-52354187D01*
X71285000Y-52098113D01*
X71285000Y-52041887D01*
X71175767Y-51492736D01*
X70864698Y-51027189D01*
X70399151Y-50716120D01*
X69850000Y-50606887D01*
X69300849Y-50716120D01*
X68835302Y-51027189D01*
X68524233Y-51492736D01*
X68415000Y-52041887D01*
X64957521Y-52041887D01*
X64853880Y-51520849D01*
X64592476Y-51129631D01*
X64621333Y-51116785D01*
X65143213Y-50566883D01*
X65395107Y-49958739D01*
X65152377Y-49657000D01*
X63627000Y-49657000D01*
X63627000Y-49677000D01*
X63373000Y-49677000D01*
X63373000Y-49657000D01*
X61847623Y-49657000D01*
X61604893Y-49958739D01*
X57257831Y-49958739D01*
X57343113Y-49530000D01*
X57257832Y-49101261D01*
X61604893Y-49101261D01*
X61847623Y-49403000D01*
X63373000Y-49403000D01*
X63373000Y-49383000D01*
X63627000Y-49383000D01*
X63627000Y-49403000D01*
X65152377Y-49403000D01*
X65287359Y-49235203D01*
X71284402Y-49235203D01*
X71330699Y-49624068D01*
X72051971Y-49902014D01*
X72824706Y-49882784D01*
X73449301Y-49624068D01*
X73495598Y-49235203D01*
X72390000Y-48129605D01*
X71284402Y-49235203D01*
X65287359Y-49235203D01*
X65395107Y-49101261D01*
X65143213Y-48493117D01*
X64621333Y-47943215D01*
X64592476Y-47930369D01*
X64805223Y-47611971D01*
X70437986Y-47611971D01*
X70457216Y-48384706D01*
X70715932Y-49009301D01*
X71104797Y-49055598D01*
X72210395Y-47950000D01*
X72569605Y-47950000D01*
X73675203Y-49055598D01*
X74064068Y-49009301D01*
X74342014Y-48288029D01*
X74333105Y-47930000D01*
X89192560Y-47930000D01*
X89192560Y-51130000D01*
X89236838Y-51365317D01*
X89375910Y-51581441D01*
X89588110Y-51726431D01*
X89840000Y-51777440D01*
X93040000Y-51777440D01*
X93275317Y-51733162D01*
X93491441Y-51594090D01*
X93636431Y-51381890D01*
X93687440Y-51130000D01*
X93687440Y-49530000D01*
X94241214Y-49530000D01*
X94411343Y-50385297D01*
X94895830Y-51110384D01*
X95620917Y-51594871D01*
X96476214Y-51765000D01*
X96563786Y-51765000D01*
X97419083Y-51594871D01*
X98144170Y-51110384D01*
X98628657Y-50385297D01*
X98798786Y-49530000D01*
X98733145Y-49200000D01*
X100622560Y-49200000D01*
X100622560Y-52400000D01*
X100666838Y-52635317D01*
X100805910Y-52851441D01*
X101018110Y-52996431D01*
X101270000Y-53047440D01*
X104470000Y-53047440D01*
X104705317Y-53003162D01*
X104921441Y-52864090D01*
X105066431Y-52651890D01*
X105117440Y-52400000D01*
X105117440Y-49200000D01*
X118402560Y-49200000D01*
X118402560Y-52400000D01*
X118446838Y-52635317D01*
X118585910Y-52851441D01*
X118798110Y-52996431D01*
X119050000Y-53047440D01*
X122250000Y-53047440D01*
X122485317Y-53003162D01*
X122701441Y-52864090D01*
X122846431Y-52651890D01*
X122897440Y-52400000D01*
X122897440Y-52005203D01*
X144944402Y-52005203D01*
X144990699Y-52394068D01*
X145711971Y-52672014D01*
X146484706Y-52652784D01*
X147109301Y-52394068D01*
X147155598Y-52005203D01*
X146050000Y-50899605D01*
X144944402Y-52005203D01*
X122897440Y-52005203D01*
X122897440Y-49530000D01*
X124721214Y-49530000D01*
X124891343Y-50385297D01*
X125375830Y-51110384D01*
X126100917Y-51594871D01*
X126956214Y-51765000D01*
X127043786Y-51765000D01*
X127899083Y-51594871D01*
X128624170Y-51110384D01*
X129108657Y-50385297D01*
X129278786Y-49530000D01*
X129108657Y-48674703D01*
X128624170Y-47949616D01*
X128594813Y-47930000D01*
X129832560Y-47930000D01*
X129832560Y-51130000D01*
X129876838Y-51365317D01*
X130015910Y-51581441D01*
X130228110Y-51726431D01*
X130480000Y-51777440D01*
X133680000Y-51777440D01*
X133915317Y-51733162D01*
X134131441Y-51594090D01*
X134276431Y-51381890D01*
X134327440Y-51130000D01*
X134327440Y-50381971D01*
X144097986Y-50381971D01*
X144117216Y-51154706D01*
X144375932Y-51779301D01*
X144764797Y-51825598D01*
X145870395Y-50720000D01*
X146229605Y-50720000D01*
X147335203Y-51825598D01*
X147724068Y-51779301D01*
X147942391Y-51212750D01*
X151277000Y-51212750D01*
X151277000Y-52277357D01*
X151451011Y-52697458D01*
X151772543Y-53018989D01*
X152192643Y-53193000D01*
X153257250Y-53193000D01*
X153543000Y-52907250D01*
X153543000Y-50927000D01*
X153797000Y-50927000D01*
X153797000Y-52907250D01*
X154082750Y-53193000D01*
X155147357Y-53193000D01*
X155567457Y-53018989D01*
X155888989Y-52697458D01*
X156063000Y-52277357D01*
X156063000Y-51212750D01*
X155777250Y-50927000D01*
X153797000Y-50927000D01*
X153543000Y-50927000D01*
X151562750Y-50927000D01*
X151277000Y-51212750D01*
X147942391Y-51212750D01*
X148002014Y-51058029D01*
X147982784Y-50285294D01*
X147724068Y-49660699D01*
X147335203Y-49614402D01*
X146229605Y-50720000D01*
X145870395Y-50720000D01*
X144764797Y-49614402D01*
X144375932Y-49660699D01*
X144097986Y-50381971D01*
X134327440Y-50381971D01*
X134327440Y-49434797D01*
X144944402Y-49434797D01*
X146050000Y-50540395D01*
X147155598Y-49434797D01*
X147142246Y-49322643D01*
X151277000Y-49322643D01*
X151277000Y-50387250D01*
X151562750Y-50673000D01*
X153543000Y-50673000D01*
X153543000Y-48692750D01*
X153797000Y-48692750D01*
X153797000Y-50673000D01*
X155777250Y-50673000D01*
X156063000Y-50387250D01*
X156063000Y-49322643D01*
X155888989Y-48902542D01*
X155567457Y-48581011D01*
X155147357Y-48407000D01*
X154082750Y-48407000D01*
X153797000Y-48692750D01*
X153543000Y-48692750D01*
X153257250Y-48407000D01*
X152192643Y-48407000D01*
X151772543Y-48581011D01*
X151451011Y-48902542D01*
X151277000Y-49322643D01*
X147142246Y-49322643D01*
X147109301Y-49045932D01*
X146388029Y-48767986D01*
X145615294Y-48787216D01*
X144990699Y-49045932D01*
X144944402Y-49434797D01*
X134327440Y-49434797D01*
X134327440Y-47930000D01*
X134283162Y-47694683D01*
X134144090Y-47478559D01*
X133931890Y-47333569D01*
X133680000Y-47282560D01*
X130480000Y-47282560D01*
X130244683Y-47326838D01*
X130028559Y-47465910D01*
X129883569Y-47678110D01*
X129832560Y-47930000D01*
X128594813Y-47930000D01*
X127899083Y-47465129D01*
X127043786Y-47295000D01*
X126956214Y-47295000D01*
X126100917Y-47465129D01*
X125375830Y-47949616D01*
X124891343Y-48674703D01*
X124721214Y-49530000D01*
X122897440Y-49530000D01*
X122897440Y-49200000D01*
X122853162Y-48964683D01*
X122714090Y-48748559D01*
X122501890Y-48603569D01*
X122250000Y-48552560D01*
X119050000Y-48552560D01*
X118814683Y-48596838D01*
X118598559Y-48735910D01*
X118453569Y-48948110D01*
X118402560Y-49200000D01*
X105117440Y-49200000D01*
X105073162Y-48964683D01*
X104934090Y-48748559D01*
X104721890Y-48603569D01*
X104470000Y-48552560D01*
X101270000Y-48552560D01*
X101034683Y-48596838D01*
X100818559Y-48735910D01*
X100673569Y-48948110D01*
X100622560Y-49200000D01*
X98733145Y-49200000D01*
X98628657Y-48674703D01*
X98144170Y-47949616D01*
X97419083Y-47465129D01*
X96563786Y-47295000D01*
X96476214Y-47295000D01*
X95620917Y-47465129D01*
X94895830Y-47949616D01*
X94411343Y-48674703D01*
X94241214Y-49530000D01*
X93687440Y-49530000D01*
X93687440Y-47930000D01*
X93643162Y-47694683D01*
X93504090Y-47478559D01*
X93291890Y-47333569D01*
X93040000Y-47282560D01*
X89840000Y-47282560D01*
X89604683Y-47326838D01*
X89388559Y-47465910D01*
X89243569Y-47678110D01*
X89192560Y-47930000D01*
X74333105Y-47930000D01*
X74322784Y-47515294D01*
X74064068Y-46890699D01*
X73675203Y-46844402D01*
X72569605Y-47950000D01*
X72210395Y-47950000D01*
X71104797Y-46844402D01*
X70715932Y-46890699D01*
X70437986Y-47611971D01*
X64805223Y-47611971D01*
X64853880Y-47539151D01*
X64963113Y-46990000D01*
X64898427Y-46664797D01*
X71284402Y-46664797D01*
X72390000Y-47770395D01*
X73495598Y-46664797D01*
X73449301Y-46275932D01*
X72728029Y-45997986D01*
X71955294Y-46017216D01*
X71330699Y-46275932D01*
X71284402Y-46664797D01*
X64898427Y-46664797D01*
X64853880Y-46440849D01*
X64542811Y-45975302D01*
X64160725Y-45720000D01*
X64542811Y-45464698D01*
X64853880Y-44999151D01*
X64963113Y-44450000D01*
X64853880Y-43900849D01*
X64686268Y-43650000D01*
X70942560Y-43650000D01*
X70942560Y-45250000D01*
X70986838Y-45485317D01*
X71125910Y-45701441D01*
X71338110Y-45846431D01*
X71590000Y-45897440D01*
X73190000Y-45897440D01*
X73425317Y-45853162D01*
X73641441Y-45714090D01*
X73667320Y-45676214D01*
X100635000Y-45676214D01*
X100635000Y-45763786D01*
X100805129Y-46619083D01*
X101289616Y-47344170D01*
X102014703Y-47828657D01*
X102870000Y-47998786D01*
X103725297Y-47828657D01*
X104450384Y-47344170D01*
X104934871Y-46619083D01*
X105105000Y-45763786D01*
X105105000Y-45676214D01*
X118415000Y-45676214D01*
X118415000Y-45763786D01*
X118585129Y-46619083D01*
X119069616Y-47344170D01*
X119794703Y-47828657D01*
X120650000Y-47998786D01*
X121505297Y-47828657D01*
X122230384Y-47344170D01*
X122714871Y-46619083D01*
X122837181Y-46004187D01*
X144614752Y-46004187D01*
X144832757Y-46531800D01*
X145236077Y-46935824D01*
X145763309Y-47154750D01*
X146334187Y-47155248D01*
X146861800Y-46937243D01*
X147265824Y-46533923D01*
X147415565Y-46173305D01*
X151784674Y-46173305D01*
X152071043Y-46866372D01*
X152600839Y-47397093D01*
X153293405Y-47684672D01*
X154043305Y-47685326D01*
X154736372Y-47398957D01*
X155267093Y-46869161D01*
X155554672Y-46176595D01*
X155555326Y-45426695D01*
X155268957Y-44733628D01*
X154739161Y-44202907D01*
X154046595Y-43915328D01*
X153296695Y-43914674D01*
X152603628Y-44201043D01*
X152072907Y-44730839D01*
X151785328Y-45423405D01*
X151784674Y-46173305D01*
X147415565Y-46173305D01*
X147484750Y-46006691D01*
X147485248Y-45435813D01*
X147267243Y-44908200D01*
X146863923Y-44504176D01*
X146336691Y-44285250D01*
X145765813Y-44284752D01*
X145238200Y-44502757D01*
X144834176Y-44906077D01*
X144615250Y-45433309D01*
X144614752Y-46004187D01*
X122837181Y-46004187D01*
X122885000Y-45763786D01*
X122885000Y-45676214D01*
X122714871Y-44820917D01*
X122230384Y-44095830D01*
X121505297Y-43611343D01*
X120650000Y-43441214D01*
X119794703Y-43611343D01*
X119069616Y-44095830D01*
X118585129Y-44820917D01*
X118415000Y-45676214D01*
X105105000Y-45676214D01*
X104934871Y-44820917D01*
X104450384Y-44095830D01*
X103725297Y-43611343D01*
X102870000Y-43441214D01*
X102014703Y-43611343D01*
X101289616Y-44095830D01*
X100805129Y-44820917D01*
X100635000Y-45676214D01*
X73667320Y-45676214D01*
X73786431Y-45501890D01*
X73837440Y-45250000D01*
X73837440Y-43650000D01*
X73793162Y-43414683D01*
X73654090Y-43198559D01*
X73441890Y-43053569D01*
X73190000Y-43002560D01*
X71590000Y-43002560D01*
X71354683Y-43046838D01*
X71138559Y-43185910D01*
X70993569Y-43398110D01*
X70942560Y-43650000D01*
X64686268Y-43650000D01*
X64542811Y-43435302D01*
X64160725Y-43180000D01*
X64542811Y-42924698D01*
X64853880Y-42459151D01*
X64963113Y-41910000D01*
X64853880Y-41360849D01*
X64542811Y-40895302D01*
X64077264Y-40584233D01*
X63528113Y-40475000D01*
X63471887Y-40475000D01*
X62922736Y-40584233D01*
X62457189Y-40895302D01*
X62146120Y-41360849D01*
X62036887Y-41910000D01*
X62146120Y-42459151D01*
X62457189Y-42924698D01*
X62839275Y-43180000D01*
X62457189Y-43435302D01*
X62146120Y-43900849D01*
X62036887Y-44450000D01*
X62146120Y-44999151D01*
X62457189Y-45464698D01*
X62839275Y-45720000D01*
X62457189Y-45975302D01*
X62146120Y-46440849D01*
X62036887Y-46990000D01*
X62146120Y-47539151D01*
X62407524Y-47930369D01*
X62378667Y-47943215D01*
X61856787Y-48493117D01*
X61604893Y-49101261D01*
X57257832Y-49101261D01*
X57233880Y-48980849D01*
X56922811Y-48515302D01*
X56540725Y-48260000D01*
X56922811Y-48004698D01*
X57233880Y-47539151D01*
X57343113Y-46990000D01*
X57233880Y-46440849D01*
X56922811Y-45975302D01*
X56540725Y-45720000D01*
X56922811Y-45464698D01*
X57233880Y-44999151D01*
X57343113Y-44450000D01*
X57233880Y-43900849D01*
X56922811Y-43435302D01*
X56778535Y-43338899D01*
X56915317Y-43313162D01*
X57131441Y-43174090D01*
X57276431Y-42961890D01*
X57327440Y-42710000D01*
X57327440Y-41110000D01*
X57283162Y-40874683D01*
X57144090Y-40658559D01*
X56931890Y-40513569D01*
X56680000Y-40462560D01*
X55080000Y-40462560D01*
X54844683Y-40506838D01*
X54628559Y-40645910D01*
X54483569Y-40858110D01*
X54432560Y-41110000D01*
X54432560Y-42710000D01*
X54476838Y-42945317D01*
X54615910Y-43161441D01*
X54828110Y-43306431D01*
X54983089Y-43337815D01*
X54837189Y-43435302D01*
X54526120Y-43900849D01*
X54416887Y-44450000D01*
X40725000Y-44450000D01*
X40725235Y-44181656D01*
X40519383Y-43683457D01*
X40138548Y-43301957D01*
X39640709Y-43095236D01*
X39101656Y-43094765D01*
X38603457Y-43300617D01*
X38221957Y-43681452D01*
X38015236Y-44179291D01*
X38014765Y-44718344D01*
X26085000Y-44718344D01*
X26085000Y-42305000D01*
X28957560Y-42305000D01*
X28957560Y-44055000D01*
X29001838Y-44290317D01*
X29140910Y-44506441D01*
X29353110Y-44651431D01*
X29605000Y-44702440D01*
X31355000Y-44702440D01*
X31590317Y-44658162D01*
X31806441Y-44519090D01*
X31951431Y-44306890D01*
X32002440Y-44055000D01*
X32002440Y-42305000D01*
X31978609Y-42178344D01*
X40554765Y-42178344D01*
X40760617Y-42676543D01*
X41141452Y-43058043D01*
X41639291Y-43264764D01*
X42178344Y-43265235D01*
X42676543Y-43059383D01*
X43058043Y-42678548D01*
X43264764Y-42180709D01*
X43265235Y-41641656D01*
X43059383Y-41143457D01*
X42678548Y-40761957D01*
X42180709Y-40555236D01*
X41641656Y-40554765D01*
X41143457Y-40760617D01*
X40761957Y-41141452D01*
X40555236Y-41639291D01*
X40554765Y-42178344D01*
X31978609Y-42178344D01*
X31958162Y-42069683D01*
X31819090Y-41853559D01*
X31606890Y-41708569D01*
X31590324Y-41705214D01*
X31759370Y-41536463D01*
X31989738Y-40981675D01*
X31990262Y-40380960D01*
X31760862Y-39825771D01*
X31573763Y-39638344D01*
X38014765Y-39638344D01*
X38220617Y-40136543D01*
X38601452Y-40518043D01*
X39099291Y-40724764D01*
X39638344Y-40725235D01*
X40136543Y-40519383D01*
X40518043Y-40138548D01*
X40724764Y-39640709D01*
X40725235Y-39101656D01*
X40519383Y-38603457D01*
X40138548Y-38221957D01*
X39640709Y-38015236D01*
X39101656Y-38014765D01*
X38603457Y-38220617D01*
X38221957Y-38601452D01*
X38015236Y-39099291D01*
X38014765Y-39638344D01*
X31573763Y-39638344D01*
X31336463Y-39400630D01*
X30781675Y-39170262D01*
X30180960Y-39169738D01*
X29625771Y-39399138D01*
X29200630Y-39823537D01*
X28970262Y-40378325D01*
X28969738Y-40979040D01*
X29199138Y-41534229D01*
X29367717Y-41703103D01*
X29153559Y-41840910D01*
X29008569Y-42053110D01*
X28957560Y-42305000D01*
X26085000Y-42305000D01*
X26085000Y-37114187D01*
X45554752Y-37114187D01*
X45772757Y-37641800D01*
X46176077Y-38045824D01*
X46703309Y-38264750D01*
X47274187Y-38265248D01*
X47801800Y-38047243D01*
X48205824Y-37643923D01*
X48424750Y-37116691D01*
X48425248Y-36545813D01*
X48207243Y-36018200D01*
X47803923Y-35614176D01*
X47276691Y-35395250D01*
X46705813Y-35394752D01*
X46178200Y-35612757D01*
X45774176Y-36016077D01*
X45555250Y-36543309D01*
X45554752Y-37114187D01*
X26085000Y-37114187D01*
X26085000Y-34613795D01*
X50434716Y-34613795D01*
X50683106Y-35214943D01*
X51142637Y-35675278D01*
X51185000Y-35692869D01*
X51185000Y-40506602D01*
X51145057Y-40523106D01*
X50684722Y-40982637D01*
X50435284Y-41583352D01*
X50434716Y-42233795D01*
X50683106Y-42834943D01*
X51142637Y-43295278D01*
X51743352Y-43544716D01*
X52393795Y-43545284D01*
X52994943Y-43296894D01*
X53455278Y-42837363D01*
X53704716Y-42236648D01*
X53705284Y-41586205D01*
X53456894Y-40985057D01*
X52997363Y-40524722D01*
X52955000Y-40507131D01*
X52955000Y-35693398D01*
X52994943Y-35676894D01*
X53455278Y-35217363D01*
X53704716Y-34616648D01*
X53705284Y-33966205D01*
X53456894Y-33365057D01*
X52997363Y-32904722D01*
X52396648Y-32655284D01*
X51746205Y-32654716D01*
X51145057Y-32903106D01*
X50684722Y-33362637D01*
X50435284Y-33963352D01*
X50434716Y-34613795D01*
X26085000Y-34613795D01*
X26085000Y-32343738D01*
X26170435Y-32429173D01*
X26372108Y-32227500D01*
X26711054Y-32865570D01*
X28300200Y-33543611D01*
X30027856Y-33561899D01*
X31631001Y-32917651D01*
X31708946Y-32865570D01*
X32047893Y-32227498D01*
X29210000Y-29389605D01*
X29195858Y-29403748D01*
X29016253Y-29224143D01*
X29030395Y-29210000D01*
X29016253Y-29195858D01*
X29195858Y-29016253D01*
X29210000Y-29030395D01*
X29224143Y-29016253D01*
X29403748Y-29195858D01*
X29389605Y-29210000D01*
X32227498Y-32047893D01*
X32865570Y-31708946D01*
X33543611Y-30119800D01*
X33561899Y-28392144D01*
X33510321Y-28263795D01*
X77104716Y-28263795D01*
X77353106Y-28864943D01*
X77812637Y-29325278D01*
X77855000Y-29342869D01*
X77855000Y-35426602D01*
X77815057Y-35443106D01*
X77354722Y-35902637D01*
X77105284Y-36503352D01*
X77104716Y-37153795D01*
X77353106Y-37754943D01*
X77812637Y-38215278D01*
X78413352Y-38464716D01*
X79063795Y-38465284D01*
X79664943Y-38216894D01*
X80125278Y-37757363D01*
X80374716Y-37156648D01*
X80375284Y-36506205D01*
X80137201Y-35930000D01*
X82272560Y-35930000D01*
X82272560Y-37730000D01*
X82316838Y-37965317D01*
X82455910Y-38181441D01*
X82668110Y-38326431D01*
X82684344Y-38329719D01*
X82401845Y-38752509D01*
X82285000Y-39339928D01*
X82285000Y-39400072D01*
X82401845Y-39987491D01*
X82734591Y-40485481D01*
X82965845Y-40640000D01*
X82734591Y-40794519D01*
X82401845Y-41292509D01*
X82285000Y-41879928D01*
X82285000Y-41940072D01*
X82401845Y-42527491D01*
X82734591Y-43025481D01*
X83232581Y-43358227D01*
X83820000Y-43475072D01*
X84407419Y-43358227D01*
X84905409Y-43025481D01*
X85238155Y-42527491D01*
X85355000Y-41940072D01*
X85355000Y-41879928D01*
X85238155Y-41292509D01*
X84905409Y-40794519D01*
X84674155Y-40640000D01*
X84905409Y-40485481D01*
X85238155Y-39987491D01*
X85355000Y-39400072D01*
X85355000Y-39339928D01*
X85238155Y-38752509D01*
X84957163Y-38331974D01*
X85171441Y-38194090D01*
X85316431Y-37981890D01*
X85367440Y-37730000D01*
X85367440Y-35930000D01*
X138152560Y-35930000D01*
X138152560Y-37730000D01*
X138196838Y-37965317D01*
X138335910Y-38181441D01*
X138548110Y-38326431D01*
X138564344Y-38329719D01*
X138281845Y-38752509D01*
X138165000Y-39339928D01*
X138165000Y-39400072D01*
X138281845Y-39987491D01*
X138614591Y-40485481D01*
X138845845Y-40640000D01*
X138614591Y-40794519D01*
X138281845Y-41292509D01*
X138165000Y-41879928D01*
X138165000Y-41940072D01*
X138281845Y-42527491D01*
X138614591Y-43025481D01*
X139112581Y-43358227D01*
X139700000Y-43475072D01*
X140287419Y-43358227D01*
X140785409Y-43025481D01*
X141118155Y-42527491D01*
X141235000Y-41940072D01*
X141235000Y-41879928D01*
X141118155Y-41292509D01*
X140785409Y-40794519D01*
X140554155Y-40640000D01*
X140785409Y-40485481D01*
X141118155Y-39987491D01*
X141235000Y-39400072D01*
X141235000Y-39339928D01*
X141118155Y-38752509D01*
X140837163Y-38331974D01*
X141051441Y-38194090D01*
X141196431Y-37981890D01*
X141247440Y-37730000D01*
X141247440Y-35930000D01*
X141203162Y-35694683D01*
X141064090Y-35478559D01*
X140851890Y-35333569D01*
X140600000Y-35282560D01*
X138800000Y-35282560D01*
X138564683Y-35326838D01*
X138348559Y-35465910D01*
X138203569Y-35678110D01*
X138152560Y-35930000D01*
X85367440Y-35930000D01*
X85323162Y-35694683D01*
X85184090Y-35478559D01*
X84971890Y-35333569D01*
X84720000Y-35282560D01*
X82920000Y-35282560D01*
X82684683Y-35326838D01*
X82468559Y-35465910D01*
X82323569Y-35678110D01*
X82272560Y-35930000D01*
X80137201Y-35930000D01*
X80126894Y-35905057D01*
X79667363Y-35444722D01*
X79625000Y-35427131D01*
X79625000Y-29343398D01*
X79664943Y-29326894D01*
X80112618Y-28880000D01*
X100622560Y-28880000D01*
X100622560Y-32080000D01*
X100666838Y-32315317D01*
X100805910Y-32531441D01*
X101018110Y-32676431D01*
X101270000Y-32727440D01*
X104470000Y-32727440D01*
X104705317Y-32683162D01*
X104921441Y-32544090D01*
X105066431Y-32331890D01*
X105117440Y-32080000D01*
X105117440Y-28880000D01*
X118402560Y-28880000D01*
X118402560Y-32080000D01*
X118446838Y-32315317D01*
X118585910Y-32531441D01*
X118798110Y-32676431D01*
X119050000Y-32727440D01*
X122250000Y-32727440D01*
X122485317Y-32683162D01*
X122701441Y-32544090D01*
X122846431Y-32331890D01*
X122897440Y-32080000D01*
X122897440Y-28880000D01*
X122853162Y-28644683D01*
X122714090Y-28428559D01*
X122501890Y-28283569D01*
X122250000Y-28232560D01*
X119050000Y-28232560D01*
X118814683Y-28276838D01*
X118598559Y-28415910D01*
X118453569Y-28628110D01*
X118402560Y-28880000D01*
X105117440Y-28880000D01*
X105073162Y-28644683D01*
X104934090Y-28428559D01*
X104721890Y-28283569D01*
X104470000Y-28232560D01*
X101270000Y-28232560D01*
X101034683Y-28276838D01*
X100818559Y-28415910D01*
X100673569Y-28628110D01*
X100622560Y-28880000D01*
X80112618Y-28880000D01*
X80125278Y-28867363D01*
X80374716Y-28266648D01*
X80375284Y-27616205D01*
X80126894Y-27015057D01*
X79667363Y-26554722D01*
X79066648Y-26305284D01*
X78416205Y-26304716D01*
X77815057Y-26553106D01*
X77354722Y-27012637D01*
X77105284Y-27613352D01*
X77104716Y-28263795D01*
X33510321Y-28263795D01*
X32917651Y-26788999D01*
X32865570Y-26711054D01*
X32227500Y-26372108D01*
X32429173Y-26170435D01*
X32343738Y-26085000D01*
X154346262Y-26085000D01*
X154260827Y-26170435D01*
M02*
