M48
;DRILL file {KiCad 4.0.7+dfsg1-1} date Sat Dec  2 04:06:04 2017
;FORMAT={-:-/ absolute / metric / decimal}
FMAT,2
METRIC,TZ
T1C0.800
T2C1.000
T3C1.050
T4C1.300
T5C1.600
T6C3.200
%
G90
G05
M71
T1
X39.37Y-39.37
X39.37Y-44.45
X39.37Y-50.8
X39.37Y-55.88
X41.91Y-41.91
X41.91Y-53.34
X46.99Y-36.83
X46.99Y-46.99
X46.99Y-52.07
X46.99Y-62.23
X55.88Y-41.91
X55.88Y-44.45
X55.88Y-46.99
X55.88Y-49.53
X55.88Y-52.07
X55.88Y-54.61
X55.88Y-57.15
X63.5Y-41.91
X63.5Y-44.45
X63.5Y-46.99
X63.5Y-49.53
X63.5Y-52.07
X63.5Y-54.61
X63.5Y-57.15
X69.85Y-52.07
X69.85Y-62.23
X72.39Y-44.45
X72.39Y-47.95
X74.93Y-52.07
X74.93Y-62.23
X146.05Y-45.72
X146.05Y-50.72
T2
X52.07Y-34.29
X52.07Y-41.91
X52.07Y-46.99
X52.07Y-54.61
X72.39Y-64.77
X78.74Y-27.94
X78.74Y-36.83
X78.74Y-64.77
X83.82Y-36.83
X83.82Y-39.37
X83.82Y-41.91
X83.82Y-55.88
X83.82Y-58.42
X83.82Y-60.96
X139.7Y-36.83
X139.7Y-39.37
X139.7Y-41.91
X139.7Y-55.88
X139.7Y-58.42
X139.7Y-60.96
T3
X30.48Y-40.68
X30.48Y-43.18
X30.48Y-52.11
X30.48Y-54.61
T4
X91.44Y-64.77
X96.44Y-64.77
X109.22Y-64.77
X114.22Y-64.77
X127.Y-64.77
X132.Y-64.77
X153.67Y-45.8
X153.67Y-50.8
T5
X91.44Y-49.53
X96.52Y-49.53
X102.87Y-30.48
X102.87Y-45.72
X102.87Y-50.8
X102.87Y-66.04
X120.65Y-30.48
X120.65Y-45.72
X120.65Y-50.8
X120.65Y-66.04
X127.Y-49.53
X132.08Y-49.53
T6
X29.21Y-29.21
X29.21Y-68.58
X157.48Y-29.21
X157.48Y-68.58
T0
M30
